<svg width="28" height="80" viewBox="0 0 28 80" fill="none" xmlns="http://www.w3.org/2000/svg">
<path d="M66.1499 12.6611L59.7191 19.1597L58.1396 19.0476C56.2593 13.9683 53.5892 10.3081 50.1294 8.06723C46.6696 5.75164 42.608 4.59384 37.9448 4.59384C32.8302 4.59384 28.5055 5.60224 24.9704 7.61905C21.4354 9.63586 18.5773 12.3623 16.3961 15.7983C14.2149 19.2344 12.6354 23.0439 11.6576 27.2269C10.6798 31.3352 10.1909 35.5182 10.1909 39.7759C10.1909 43.212 10.6798 46.6107 11.6576 49.972C12.7106 53.3333 13.9516 56.3212 15.3807 58.9356C16.8097 61.55 18.126 63.4921 19.3294 64.7619C22.4131 67.8245 25.3841 70.1401 28.2422 71.7087C31.1755 73.2773 34.9362 74.0616 39.5243 74.0616C43.3602 74.0616 47.0456 73.352 50.5807 71.9328C54.1157 70.4389 57.4627 68.6461 60.6217 66.5546L62.5396 69.8039C58.4781 72.5677 54.1909 74.958 49.6781 76.9748C45.1653 78.9916 40.4644 80 35.5755 80C31.1379 80 26.7379 79.4398 22.3755 78.3193C18.0131 77.1242 14.2149 74.9206 10.9807 71.7087C7.06956 67.7498 4.28665 63.1559 2.63195 57.9272C0.977253 52.6237 0.149902 47.2456 0.149902 41.7927C0.149902 36.4146 0.864432 31.1111 2.29349 25.8824C3.79777 20.6536 6.50546 16.0971 10.4166 12.2129C14.5533 8.10458 19.3294 5.04202 24.7448 3.02521C30.2354 1.0084 35.914 0 41.7807 0C46.7448 0 51.2952 0.933707 55.432 2.80112C59.6439 4.59384 63.2166 7.88049 66.1499 12.6611Z" fill="#7541EE"/>
</svg>
