<svg width="67" height="80" viewBox="0 0 67 80" fill="none" xmlns="http://www.w3.org/2000/svg">
<path d="M66.4458 12.6611L60.015 19.1597L58.4355 19.0476C56.5552 13.9683 53.8851 10.3081 50.4253 8.06723C46.9655 5.75164 42.9039 4.59384 38.2407 4.59384C33.1261 4.59384 28.8014 5.60224 25.2663 7.61905C21.7313 9.63586 18.8732 12.3623 16.692 15.7983C14.5108 19.2344 12.9313 23.0439 11.9535 27.2269C10.9757 31.3352 10.4868 35.5182 10.4868 39.7759C10.4868 43.212 10.9757 46.6107 11.9535 49.972C13.0065 53.3333 14.2475 56.3212 15.6766 58.9356C17.1056 61.55 18.4219 63.4921 19.6253 64.7619C22.709 67.8245 25.68 70.1401 28.5381 71.7087C31.4714 73.2773 35.2321 74.0616 39.8202 74.0616C43.6561 74.0616 47.3415 73.352 50.8766 71.9328C54.4116 70.4389 57.7586 68.6461 60.9176 66.5546L62.8355 69.8039C58.774 72.5677 54.4868 74.958 49.974 76.9748C45.4612 78.9916 40.7603 80 35.8714 80C31.4338 80 27.0338 79.4398 22.6714 78.3193C18.309 77.1242 14.5108 74.9206 11.2766 71.7087C7.36546 67.7498 4.58255 63.1559 2.92785 57.9272C1.27315 52.6237 0.445801 47.2456 0.445801 41.7927C0.445801 36.4146 1.16033 31.1111 2.58939 25.8824C4.09366 20.6536 6.80136 16.0971 10.7125 12.2129C14.8492 8.10458 19.6253 5.04202 25.0407 3.02521C30.5313 1.0084 36.2099 0 42.0766 0C47.0407 0 51.5911 0.933707 55.7279 2.80112C59.9398 4.59384 63.5125 7.88049 66.4458 12.6611Z" fill="#7541EE"/>
</svg>
