<svg width="32" height="14" viewBox="0 0 32 14" fill="none" xmlns="http://www.w3.org/2000/svg">
<path d="M0.878199 10.318C0.818199 10.138 0.764199 9.95801 0.716199 9.77801C0.680199 9.58601 0.650199 9.36401 0.626199 9.11201C0.602199 8.84801 0.584199 8.53601 0.572199 8.17601C0.560199 7.81601 0.554199 7.38401 0.554199 6.88001C0.554199 6.37601 0.560199 5.94401 0.572199 5.58401C0.584199 5.22401 0.602199 4.91801 0.626199 4.66601C0.650199 4.40201 0.680199 4.18001 0.716199 4.00001C0.764199 3.80801 0.818199 3.62201 0.878199 3.44201C1.1902 2.47001 1.6942 1.75001 2.3902 1.28201C3.0862 0.802012 3.9382 0.562012 4.9462 0.562012C5.8582 0.562012 6.6502 0.778012 7.3222 1.21001C8.0062 1.63001 8.5222 2.23601 8.8702 3.02801C8.9062 3.13601 8.8822 3.21401 8.7982 3.26201L7.7182 3.78401C7.5982 3.84401 7.5142 3.81401 7.4662 3.69401C7.2262 3.21401 6.9082 2.82401 6.5122 2.52401C6.1162 2.21201 5.5942 2.05601 4.9462 2.05601C4.2742 2.05601 3.7342 2.21201 3.3262 2.52401C2.9182 2.83601 2.6122 3.28001 2.4082 3.85601C2.3722 3.98801 2.3362 4.13201 2.3002 4.28801C2.2762 4.43201 2.2522 4.61801 2.2282 4.84601C2.2162 5.06201 2.2042 5.33801 2.1922 5.67401C2.1802 5.99801 2.1742 6.40001 2.1742 6.88001C2.1742 7.36001 2.1802 7.76801 2.1922 8.10401C2.2042 8.42801 2.2162 8.70401 2.2282 8.93201C2.2522 9.14801 2.2762 9.33401 2.3002 9.49001C2.3362 9.64601 2.3722 9.78401 2.4082 9.90401C2.6122 10.48 2.9182 10.924 3.3262 11.236C3.7342 11.548 4.2742 11.704 4.9462 11.704C5.5942 11.704 6.1162 11.554 6.5122 11.254C6.9082 10.942 7.2262 10.546 7.4662 10.066C7.5142 9.94601 7.5982 9.91601 7.7182 9.97601L8.7982 10.498C8.8822 10.546 8.9062 10.624 8.8702 10.732C8.5222 11.524 8.0062 12.136 7.3222 12.568C6.6502 12.988 5.8582 13.198 4.9462 13.198C3.9382 13.198 3.0862 12.964 2.3902 12.496C1.6942 12.016 1.1902 11.29 0.878199 10.318Z" fill="#7541EE"/>
<path d="M27.3222 0.940012C27.3582 0.820012 27.4302 0.760012 27.5382 0.760012H28.7082C28.8282 0.760012 28.9062 0.820012 28.9422 0.940012L33.1362 12.82C33.1722 12.94 33.1302 13 33.0102 13H31.7502C31.6302 13 31.5522 12.94 31.5162 12.82L30.5802 10.156H25.6302L24.6942 12.82C24.6462 12.94 24.5682 13 24.4602 13H23.2002C23.0802 13 23.0382 12.94 23.0742 12.82L27.3222 0.940012ZM30.0582 8.68001L28.1322 3.11801H28.0962L26.1522 8.68001H30.0582Z" fill="#7541EE"/>
<path d="M48.2404 13C48.1204 13 48.0604 12.94 48.0604 12.82V0.940012C48.0604 0.820012 48.1204 0.760012 48.2404 0.760012H52.5964C53.1844 0.760012 53.7184 0.850012 54.1984 1.03001C54.6784 1.19801 55.0864 1.44401 55.4224 1.76801C55.7584 2.08001 56.0164 2.46401 56.1964 2.92001C56.3884 3.36401 56.4844 3.86201 56.4844 4.41401C56.4844 4.96601 56.3884 5.47001 56.1964 5.92601C56.0164 6.37001 55.7584 6.75401 55.4224 7.07801C55.0864 7.39001 54.6784 7.63601 54.1984 7.81601C53.7184 7.98401 53.1844 8.06801 52.5964 8.06801H49.7704C49.6984 8.06801 49.6624 8.10401 49.6624 8.17601V12.82C49.6624 12.94 49.6024 13 49.4824 13H48.2404ZM52.5064 6.57401C53.2624 6.57401 53.8504 6.38201 54.2704 5.99801C54.6904 5.61401 54.9004 5.08601 54.9004 4.41401C54.9004 3.74201 54.6904 3.21401 54.2704 2.83001C53.8504 2.44601 53.2624 2.25401 52.5064 2.25401H49.7704C49.6984 2.25401 49.6624 2.29001 49.6624 2.36201V6.46601C49.6624 6.53801 49.6984 6.57401 49.7704 6.57401H52.5064Z" fill="#7541EE"/>
</svg>
