<svg width="56" height="14" viewBox="0 0 56 14" fill="none" xmlns="http://www.w3.org/2000/svg">
<path d="M0.324 10.318C0.264 10.138 0.21 9.95801 0.162 9.77801C0.126 9.58601 0.096 9.36401 0.072 9.11201C0.048 8.84801 0.0300001 8.53601 0.0180001 8.17601C0.0060001 7.81601 0 7.38401 0 6.88001C0 6.37601 0.0060001 5.94401 0.0180001 5.58401C0.0300001 5.22401 0.048 4.91801 0.072 4.66601C0.096 4.40201 0.126 4.18001 0.162 4.00001C0.21 3.80801 0.264 3.62201 0.324 3.44201C0.636 2.47001 1.14 1.75001 1.836 1.28201C2.532 0.802012 3.384 0.562012 4.392 0.562012C5.304 0.562012 6.096 0.778012 6.768 1.21001C7.452 1.63001 7.968 2.23601 8.316 3.02801C8.352 3.13601 8.328 3.21401 8.244 3.26201L7.164 3.78401C7.044 3.84401 6.96 3.81401 6.912 3.69401C6.672 3.21401 6.354 2.82401 5.958 2.52401C5.562 2.21201 5.04 2.05601 4.392 2.05601C3.72 2.05601 3.18 2.21201 2.772 2.52401C2.364 2.83601 2.058 3.28001 1.854 3.85601C1.818 3.98801 1.782 4.13201 1.746 4.28801C1.722 4.43201 1.698 4.61801 1.674 4.84601C1.662 5.06201 1.65 5.33801 1.638 5.67401C1.626 5.99801 1.62 6.40001 1.62 6.88001C1.62 7.36001 1.626 7.76801 1.638 8.10401C1.65 8.42801 1.662 8.70401 1.674 8.93201C1.698 9.14801 1.722 9.33401 1.746 9.49001C1.782 9.64601 1.818 9.78401 1.854 9.90401C2.058 10.48 2.364 10.924 2.772 11.236C3.18 11.548 3.72 11.704 4.392 11.704C5.04 11.704 5.562 11.554 5.958 11.254C6.354 10.942 6.672 10.546 6.912 10.066C6.96 9.94601 7.044 9.91601 7.164 9.97601L8.244 10.498C8.328 10.546 8.352 10.624 8.316 10.732C7.968 11.524 7.452 12.136 6.768 12.568C6.096 12.988 5.304 13.198 4.392 13.198C3.384 13.198 2.532 12.964 1.836 12.496C1.14 12.016 0.636 11.29 0.324 10.318Z" fill="#7541EE"/>
<path d="M26.768 0.940012C26.804 0.820012 26.876 0.760012 26.984 0.760012H28.154C28.274 0.760012 28.352 0.820012 28.388 0.940012L32.582 12.82C32.618 12.94 32.576 13 32.456 13H31.196C31.076 13 30.998 12.94 30.962 12.82L30.026 10.156H25.076L24.14 12.82C24.092 12.94 24.014 13 23.906 13H22.646C22.526 13 22.484 12.94 22.52 12.82L26.768 0.940012ZM29.504 8.68001L27.578 3.11801H27.542L25.598 8.68001H29.504Z" fill="#7541EE"/>
<path d="M47.6862 13C47.5662 13 47.5062 12.94 47.5062 12.82V0.940012C47.5062 0.820012 47.5662 0.760012 47.6862 0.760012H52.0422C52.6302 0.760012 53.1642 0.850012 53.6442 1.03001C54.1242 1.19801 54.5322 1.44401 54.8682 1.76801C55.2042 2.08001 55.4622 2.46401 55.6422 2.92001C55.8342 3.36401 55.9302 3.86201 55.9302 4.41401C55.9302 4.96601 55.8342 5.47001 55.6422 5.92601C55.4622 6.37001 55.2042 6.75401 54.8682 7.07801C54.5322 7.39001 54.1242 7.63601 53.6442 7.81601C53.1642 7.98401 52.6302 8.06801 52.0422 8.06801H49.2162C49.1442 8.06801 49.1082 8.10401 49.1082 8.17601V12.82C49.1082 12.94 49.0482 13 48.9282 13H47.6862ZM51.9522 6.57401C52.7082 6.57401 53.2962 6.38201 53.7162 5.99801C54.1362 5.61401 54.3462 5.08601 54.3462 4.41401C54.3462 3.74201 54.1362 3.21401 53.7162 2.83001C53.2962 2.44601 52.7082 2.25401 51.9522 2.25401H49.2162C49.1442 2.25401 49.1082 2.29001 49.1082 2.36201V6.46601C49.1082 6.53801 49.1442 6.57401 49.2162 6.57401H51.9522Z" fill="#7541EE"/>
</svg>
