<svg width="26" height="25" viewBox="0 0 26 25" fill="none" xmlns="http://www.w3.org/2000/svg">
<path d="M23.9158 3.28122L3.15428 5.73117C2.97777 5.75063 2.81155 5.82402 2.67826 5.94136C2.54497 6.05871 2.45109 6.21428 2.40941 6.3869C2.36773 6.55953 2.38028 6.7408 2.44535 6.90603C2.51041 7.07126 2.62483 7.21242 2.77302 7.31028L11.2162 13.0742C11.3819 13.1853 11.5027 13.3516 11.5572 13.5435L14.4299 23.3546C14.4772 23.5258 14.5761 23.6782 14.7131 23.7912C14.8502 23.9041 15.0187 23.9721 15.1957 23.9858C15.3728 23.9995 15.5498 23.9583 15.7025 23.8678C15.8553 23.7772 15.9765 23.6418 16.0496 23.48L24.7953 4.49165C24.8606 4.35333 24.8876 4.19997 24.8734 4.04765C24.8591 3.89532 24.8041 3.74963 24.7142 3.62586C24.6243 3.50208 24.5027 3.40478 24.3622 3.34414C24.2218 3.28351 24.0676 3.26178 23.9158 3.28122V3.28122Z" stroke="white" stroke-linecap="round" stroke-linejoin="round"/>
<path d="M11.4159 13.2841L17.1679 9.10506" stroke="white" stroke-linecap="round" stroke-linejoin="round"/>
</svg>
