<svg width="338" height="338" viewBox="0 0 338 338" fill="none" xmlns="http://www.w3.org/2000/svg">
<path d="M56.784 270.4L49.5981 265.452C49.5981 265.452 45.4474 271.488 39.1066 267.284C37.87 266.495 36.9095 265.341 36.3583 263.982C35.8071 262.623 35.6927 261.126 36.0308 259.699C36.2988 258.496 36.8476 257.373 37.6325 256.423C38.4173 255.472 39.4158 254.721 40.5464 254.23C43.1423 253.061 47.0698 253.074 51.3286 257.259L62.4691 241.035L55.3644 236.147L48.841 245.611C48.841 245.611 37.1056 241.332 29.5479 252.31C22.3215 262.815 30.0617 271.738 34.0974 274.51C37.18 276.68 48.165 283.163 56.784 270.4Z" fill="#EBEBEB"/>
<path d="M57.5421 232.776L64.7485 237.735L69.3812 231.002L62.1748 226.043L57.5421 232.776Z" fill="#EBEBEB"/>
<path d="M87.3796 290.268L91.1923 289.26C91.079 288.827 91.0532 288.375 91.1163 287.931C91.1794 287.487 91.3301 287.06 91.5597 286.675C91.7894 286.29 92.0933 285.955 92.4538 285.688C92.8143 285.422 93.2242 285.23 93.6597 285.123C94.2948 284.93 94.9745 284.94 95.6035 285.152C96.2326 285.365 96.7797 285.768 97.1681 286.306C97.502 286.752 97.7257 287.27 97.8209 287.819C97.916 288.368 97.88 288.931 97.7157 289.463C97.3506 290.7 96.1879 292.046 93.4974 292.269L95.762 300.874L99.5341 299.88L98.1821 294.837C99.6083 293.973 100.711 292.664 101.322 291.112C101.933 289.56 102.017 287.85 101.562 286.245C100.088 280.668 94.7413 280.689 92.6051 281.257C91.003 281.689 85.5342 283.555 87.3796 290.268Z" fill="#EBEBEB"/>
<path d="M100.066 301.627L96.2358 302.638L97.1792 306.213L101.009 305.203L100.066 301.627Z" fill="#EBEBEB"/>
<path d="M150.748 49.3953C152.677 48.2202 154.755 47.3107 156.927 46.6913L158.198 40.6073L168.534 40.4248L170.021 46.5088C172.213 47.0458 174.323 47.8758 176.294 48.9762L181.52 45.5489L188.956 52.728L185.717 58.0684C186.888 60.0015 187.798 62.0815 188.421 64.2538L194.539 65.5247L194.715 75.8607L188.631 77.3479C188.091 79.5394 187.261 81.649 186.164 83.6212L189.584 88.8467L182.405 96.2827L177.065 93.0446C175.134 94.2198 173.053 95.1293 170.879 95.7486L169.608 101.873L159.272 102.049L157.785 95.965C155.592 95.4309 153.481 94.6008 151.512 93.4976L146.286 96.9249L138.85 89.7458L142.088 84.4054C140.913 82.4744 140.004 80.3939 139.384 78.22L133.3 76.9491L133.118 66.613L139.202 65.1258C139.729 62.9205 140.552 60.7966 141.649 58.812L138.222 53.5865L145.401 46.1505L150.748 49.3953ZM156.257 63.1654C154.737 64.7451 153.719 66.7402 153.332 68.8984C152.945 71.0567 153.207 73.2811 154.084 75.2906C154.962 77.3 156.415 79.0041 158.261 80.1875C160.107 81.3708 162.262 81.9802 164.455 81.9386C166.647 81.897 168.778 81.2063 170.577 79.9538C172.377 78.7013 173.765 76.9432 174.565 74.902C175.366 72.8607 175.543 70.6279 175.075 68.4859C174.606 66.3438 173.513 64.3888 171.934 62.868C169.815 60.8302 166.973 59.7168 164.034 59.7726C161.095 59.8284 158.298 61.0487 156.257 63.1654Z" fill="#F5F5F5"/>
<path d="M107.484 27.8445C108.598 27.1754 109.796 26.6571 111.046 26.3032L111.777 22.7745L117.732 22.6731L118.591 26.168C119.852 26.4765 121.067 26.9541 122.2 27.5876L125.209 25.6137L129.467 29.7441L127.602 32.8199C128.275 33.9329 128.795 35.1311 129.15 36.3824L132.672 37.1125L132.773 43.068L129.278 43.9401C128.971 45.2021 128.493 46.4165 127.859 47.5499L129.833 50.5581L125.695 54.8439L122.62 52.9782C121.507 53.651 120.308 54.1716 119.057 54.5262L118.3 58.0414L112.344 58.1496L111.54 54.6547C110.279 54.3407 109.065 53.8611 107.93 53.2283L104.922 55.2022L100.636 51.0651L102.475 47.9961C101.801 46.886 101.28 45.6899 100.927 44.4403L97.4048 43.7035L97.2966 37.7479L100.798 36.8961C101.106 35.6319 101.583 34.4153 102.218 33.2795L100.244 30.2713L104.381 25.9923L107.484 27.8445ZM110.654 35.7807C109.772 36.6882 109.179 37.8372 108.951 39.0821C108.723 40.327 108.87 41.6115 109.373 42.7728C109.876 43.9341 110.713 44.9199 111.777 45.6049C112.841 46.29 114.085 46.6436 115.35 46.6207C116.615 46.5979 117.846 46.1998 118.884 45.4768C119.923 44.7538 120.724 43.7385 121.185 42.5599C121.645 41.3812 121.746 40.0921 121.473 38.8563C121.2 37.6205 120.566 36.4936 119.652 35.6185C118.433 34.4447 116.798 33.8025 115.106 33.833C113.414 33.8634 111.803 34.5639 110.627 35.7807H110.654Z" fill="#EBEBEB"/>
<path d="M297.487 138.384C298.599 137.713 299.795 137.192 301.043 136.836L301.78 133.314L307.729 133.213L308.587 136.708C309.852 137.015 311.068 137.492 312.204 138.127L315.212 136.153L319.491 140.29L317.625 143.366C318.298 144.479 318.819 145.677 319.173 146.929L322.702 147.659L322.804 153.614L319.309 154.473C318.994 155.733 318.517 156.946 317.889 158.083L319.856 161.091L315.726 165.377L312.65 163.511C311.537 164.184 310.339 164.704 309.088 165.059L308.351 168.581L302.402 168.689L301.543 165.187C300.281 164.88 299.067 164.403 297.934 163.768L294.919 165.742L290.64 161.605L292.505 158.529C291.831 157.416 291.311 156.218 290.957 154.966L287.435 154.236L287.327 148.281L290.822 147.422C291.137 146.162 291.614 144.949 292.242 143.812L290.274 140.804L294.405 136.518L297.487 138.384ZM300.658 146.314C299.78 147.222 299.191 148.371 298.965 149.614C298.74 150.857 298.889 152.139 299.392 153.298C299.896 154.457 300.731 155.441 301.794 156.125C302.856 156.809 304.098 157.162 305.361 157.14C306.625 157.119 307.853 156.723 308.892 156.003C309.93 155.283 310.731 154.271 311.195 153.095C311.658 151.92 311.762 150.633 311.494 149.398C311.226 148.163 310.598 147.036 309.689 146.158C308.47 144.983 306.834 144.339 305.141 144.369C303.448 144.398 301.836 145.097 300.658 146.314Z" fill="#EBEBEB"/>
<path d="M313.515 314.55C313.515 314.651 249.41 314.725 170.359 314.725C91.3073 314.725 27.1887 314.651 27.1887 314.55C27.1887 314.448 91.2735 314.374 170.359 314.374C249.444 314.374 313.515 314.455 313.515 314.55Z" fill="#263238"/>
<path d="M282.338 314.056L186.346 314.002C180.801 313.998 175.485 311.793 171.566 307.871C167.646 303.949 165.444 298.631 165.444 293.087L165.492 52.4305C165.504 46.8809 167.718 41.5628 171.646 37.643C175.575 33.7232 180.898 31.5218 186.448 31.5219L282.44 31.5827C287.984 31.5863 293.301 33.7914 297.22 37.7135C301.14 41.6355 303.342 46.9534 303.342 52.4981L303.294 293.154C303.294 295.904 302.752 298.626 301.698 301.165C300.644 303.705 299.1 306.012 297.153 307.953C295.206 309.895 292.896 311.433 290.354 312.481C287.811 313.528 285.088 314.063 282.338 314.056Z" fill="#455A64"/>
<path d="M282.304 40.0665H263.694C262.467 40.0949 261.302 40.6092 260.454 41.4965C259.606 42.3838 259.145 43.5715 259.172 44.7985V48.1785C259.199 49.4056 258.738 50.5932 257.89 51.4805C257.042 52.3678 255.876 52.8822 254.649 52.9105H218.368C217.143 52.8804 215.979 52.3653 215.132 51.4782C214.286 50.5911 213.825 49.4044 213.853 48.1785V44.7985C213.88 43.5715 213.419 42.3838 212.571 41.4965C211.723 40.6092 210.557 40.0949 209.33 40.0665H186.495C182.619 40.0629 178.899 41.5966 176.152 44.3312C173.404 47.0659 171.854 50.7783 171.839 54.6546L171.792 289.578C171.799 293.457 173.345 297.175 176.09 299.917C178.835 302.658 182.555 304.198 186.434 304.2L282.244 304.254C284.167 304.255 286.072 303.877 287.85 303.142C289.628 302.406 291.243 301.328 292.604 299.968C293.965 298.609 295.045 296.994 295.782 295.217C296.519 293.44 296.898 291.536 296.899 289.612L296.94 54.6884C296.935 50.8098 295.39 47.0917 292.647 44.3503C289.903 41.609 286.183 40.0683 282.304 40.0665Z" fill="white"/>
<path d="M296.933 89.4416V54.4451C296.864 50.6099 295.293 46.955 292.557 44.2662C289.822 41.5774 286.14 40.0695 282.305 40.0665H263.694C263.086 40.0797 262.487 40.2126 261.931 40.4577C261.374 40.7027 260.872 41.0551 260.452 41.4946C260.032 41.9341 259.702 42.4522 259.483 43.0191C259.263 43.586 259.157 44.1907 259.172 44.7985V48.1785C259.199 49.4056 258.738 50.5932 257.89 51.4805C257.042 52.3678 255.876 52.8822 254.649 52.9105H218.368C217.143 52.8804 215.979 52.3653 215.132 51.4782C214.286 50.5911 213.826 49.4044 213.853 48.1785V44.7985C213.88 43.5715 213.419 42.3838 212.571 41.4965C211.723 40.6092 210.557 40.0949 209.33 40.0665H186.495C182.619 40.0629 178.899 41.5966 176.152 44.3312C173.405 47.0659 171.854 50.7783 171.839 54.6546V89.5497H296.933V89.4416Z" fill="#EBEBEB"/>
<path d="M197.352 136.91C205.726 136.91 212.514 130.137 212.514 121.781C212.514 113.426 205.726 106.652 197.352 106.652C188.978 106.652 182.189 113.426 182.189 121.781C182.189 130.137 188.978 136.91 197.352 136.91Z" fill="#E0E0E0"/>
<path d="M190.267 125.567L194.242 125.229L203.936 126.865L205.078 134.159L204.916 135.011C202.732 136.243 200.278 136.918 197.772 136.976C195.265 137.034 192.782 136.473 190.544 135.342L190.267 125.567Z" fill="#455A64"/>
<path d="M201.86 126.75C202.822 126.61 203.803 126.742 204.692 127.133C205.582 127.524 206.343 128.157 206.89 128.96C207.547 129.878 208.149 130.832 208.695 131.82C207.113 133.537 205.828 134.842 203.638 135.606L201.86 126.75Z" fill="#455A64"/>
<path d="M190.267 125.567C190.267 125.567 187.644 125.891 186.63 128.129C185.616 130.367 185.38 131.063 185.38 131.063C186.732 132.699 188.462 134.632 190.578 135.355C190.578 135.355 191.058 129.718 191.119 128.129C191.193 126.412 191.261 125.52 190.267 125.567Z" fill="#455A64"/>
<path d="M192.66 111.236C193.321 110.389 194.163 109.702 195.125 109.225C196.087 108.748 197.143 108.492 198.217 108.478C199.14 108.478 200.056 108.642 200.921 108.964C201.832 109.18 202.637 109.712 203.192 110.465C203.881 111.351 204.333 112.398 204.504 113.507C204.662 114.642 204.717 115.789 204.666 116.934C204.611 118.088 204.239 119.203 203.591 120.159L200.678 120.659C199.071 120.787 197.455 120.701 195.871 120.402C194.27 120.095 192.856 119.167 191.937 117.82C190.767 115.92 191.254 112.966 192.66 111.236Z" fill="#263238"/>
<path d="M189.848 119.652C189.878 119.322 189.982 119.004 190.153 118.72C190.324 118.437 190.557 118.196 190.835 118.016C191.119 117.845 191.45 117.769 191.781 117.798C192.111 117.827 192.424 117.96 192.674 118.178L193.133 118.719C193.488 118.883 193.783 119.153 193.977 119.493C194.17 119.832 194.254 120.223 194.215 120.612C194.164 121.001 194.002 121.367 193.748 121.666C193.494 121.965 193.158 122.183 192.782 122.295C192.406 122.402 192.009 122.41 191.629 122.319C191.249 122.228 190.899 122.04 190.612 121.775C190.331 121.503 190.115 121.17 189.983 120.802C189.851 120.434 189.804 120.041 189.848 119.652Z" fill="#263238"/>
<path d="M190.423 121.639C190.313 121.468 190.259 121.268 190.267 121.065C190.364 120.573 190.599 120.118 190.943 119.753C191.269 119.37 191.667 119.053 192.113 118.82C192.451 118.638 192.687 118.57 192.68 118.55C192.465 118.566 192.255 118.628 192.065 118.733C191.589 118.944 191.168 119.264 190.835 119.665C190.648 119.869 190.489 120.096 190.362 120.341C190.251 120.551 190.187 120.781 190.173 121.017C190.169 121.18 190.214 121.34 190.301 121.477C190.362 121.612 190.423 121.68 190.423 121.639Z" fill="#455A64"/>
<path d="M200.65 126.229V123.525C200.65 123.525 203.023 123.262 203.686 120.22C203.997 118.208 204.119 116.171 204.051 114.136C204.051 112.29 202.462 109.776 200.177 109.769L199.163 109.647L195.276 111.188C195.006 111.203 194.751 111.318 194.562 111.511C194.372 111.703 194.26 111.959 194.249 112.23L194.134 125.215L195.912 127.71C196.237 128.151 196.692 128.478 197.214 128.647C197.735 128.816 198.296 128.817 198.817 128.651C199.339 128.484 199.796 128.159 200.124 127.72C200.451 127.281 200.633 126.75 200.644 126.202L200.65 126.229Z" fill="#FFBE9D"/>
<path d="M199.102 119.517C199.124 119.36 199.203 119.218 199.326 119.118C199.437 119.025 199.575 118.97 199.72 118.961C199.865 118.953 200.009 118.991 200.13 119.071C200.254 119.167 200.351 119.295 200.41 119.441C200.469 119.587 200.489 119.746 200.468 119.902C200.4 119.996 200.313 120.075 200.213 120.133C200.113 120.191 200.002 120.228 199.887 120.24H199.778C199.689 120.242 199.6 120.227 199.516 120.194C199.433 120.162 199.356 120.113 199.292 120.051C199.223 119.981 199.171 119.897 199.138 119.805C199.106 119.712 199.093 119.614 199.102 119.517Z" fill="#EB996E"/>
<path d="M202.638 116.272C202.634 116.375 202.591 116.472 202.516 116.543C202.441 116.614 202.342 116.652 202.239 116.65C202.188 116.651 202.138 116.642 202.091 116.624C202.044 116.605 202.001 116.578 201.965 116.542C201.928 116.507 201.899 116.465 201.879 116.419C201.859 116.372 201.848 116.323 201.847 116.272C201.852 116.169 201.897 116.071 201.973 116.001C202.049 115.93 202.149 115.891 202.253 115.893C202.303 115.892 202.353 115.902 202.399 115.92C202.446 115.939 202.489 115.967 202.525 116.002C202.56 116.037 202.589 116.079 202.608 116.125C202.628 116.172 202.638 116.222 202.638 116.272Z" fill="#263238"/>
<path d="M203.287 115.299C203.233 115.346 202.942 115.109 202.523 115.089C202.104 115.069 201.773 115.265 201.732 115.211C201.691 115.157 201.766 115.096 201.908 115.001C202.099 114.887 202.321 114.833 202.543 114.846C202.763 114.854 202.975 114.935 203.145 115.075C203.266 115.184 203.307 115.278 203.287 115.299Z" fill="#263238"/>
<path d="M200.617 118.503C200.838 118.451 201.065 118.424 201.293 118.422C201.401 118.422 201.509 118.422 201.529 118.327C201.545 118.216 201.526 118.103 201.475 118.003L201.198 117.164C200.94 116.449 200.739 115.714 200.596 114.967C200.912 115.66 201.172 116.376 201.374 117.11C201.468 117.401 201.55 117.685 201.637 117.955C201.694 118.09 201.706 118.239 201.671 118.381C201.63 118.454 201.562 118.507 201.482 118.53C201.421 118.536 201.36 118.536 201.299 118.53C201.072 118.552 200.842 118.543 200.617 118.503Z" fill="#263238"/>
<path d="M200.637 123.532C199.185 123.467 197.781 122.999 196.581 122.18C196.581 122.18 197.561 124.364 200.637 124.249V123.532Z" fill="#EB996E"/>
<path d="M199.352 118.733C199.427 118.733 199.4 119.192 199.778 119.537C200.157 119.882 200.644 119.862 200.644 119.922C200.644 119.983 200.529 120.01 200.326 120.003C200.056 119.991 199.798 119.886 199.596 119.706C199.405 119.53 199.289 119.289 199.271 119.03C199.265 118.834 199.325 118.726 199.352 118.733Z" fill="#263238"/>
<path d="M203.199 113.703C203.125 113.805 202.8 113.703 202.422 113.703C202.043 113.703 201.746 113.798 201.644 113.703C201.543 113.608 201.644 113.554 201.793 113.46C201.979 113.343 202.195 113.279 202.415 113.277C202.636 113.271 202.855 113.33 203.043 113.446C203.185 113.568 203.233 113.656 203.199 113.703Z" fill="#263238"/>
<path d="M197.987 116.272C197.985 116.376 198.023 116.476 198.094 116.551C198.165 116.627 198.262 116.672 198.365 116.678C198.416 116.682 198.466 116.677 198.515 116.661C198.563 116.646 198.607 116.621 198.646 116.589C198.684 116.556 198.716 116.516 198.738 116.471C198.761 116.426 198.774 116.376 198.778 116.326C198.778 116.224 198.739 116.125 198.668 116.051C198.598 115.977 198.501 115.932 198.399 115.927C198.349 115.922 198.299 115.926 198.251 115.941C198.203 115.955 198.158 115.979 198.119 116.011C198.081 116.044 198.049 116.083 198.026 116.128C198.004 116.173 197.99 116.222 197.987 116.272Z" fill="#263238"/>
<path d="M197.473 115.15C197.52 115.204 197.825 114.988 198.251 114.994C198.676 115.001 198.981 115.217 199.028 115.17C199.075 115.123 199.028 115.055 198.866 114.954C198.685 114.822 198.467 114.75 198.244 114.751C198.024 114.744 197.809 114.808 197.629 114.934C197.493 115.035 197.446 115.123 197.473 115.15Z" fill="#263238"/>
<path d="M197.23 114.244C197.311 114.345 197.642 114.244 198.034 114.244C198.426 114.244 198.758 114.325 198.839 114.244C198.92 114.163 198.839 114.095 198.676 114.001C198.48 113.885 198.256 113.825 198.027 113.825C197.799 113.825 197.575 113.885 197.378 114.001C197.237 114.095 197.189 114.19 197.23 114.244Z" fill="#263238"/>
<path d="M194.763 117.414C194.763 117.185 194.546 116.63 194.316 116.583C193.721 116.454 192.633 116.448 192.538 117.975C192.41 120.064 194.566 119.76 194.566 119.699C194.566 119.638 194.722 118.199 194.763 117.414Z" fill="#FFBE9D"/>
<path d="M194.012 118.902C194.012 118.902 193.978 118.902 193.911 118.949C193.868 118.967 193.822 118.977 193.775 118.977C193.729 118.977 193.683 118.967 193.64 118.949C193.509 118.855 193.406 118.728 193.34 118.58C193.275 118.433 193.25 118.271 193.268 118.111C193.276 117.932 193.323 117.757 193.404 117.597C193.428 117.533 193.467 117.476 193.517 117.43C193.568 117.384 193.629 117.351 193.694 117.333C193.737 117.324 193.782 117.331 193.821 117.352C193.859 117.373 193.889 117.407 193.904 117.448C193.909 117.482 193.909 117.516 193.904 117.55C193.904 117.55 193.951 117.55 193.938 117.435C193.929 117.382 193.903 117.335 193.863 117.299C193.838 117.274 193.807 117.255 193.773 117.244C193.739 117.232 193.703 117.228 193.667 117.232C193.581 117.243 193.499 117.276 193.429 117.328C193.359 117.38 193.304 117.45 193.268 117.529C193.168 117.705 193.113 117.902 193.106 118.104C193.083 118.29 193.116 118.478 193.2 118.646C193.284 118.813 193.416 118.951 193.579 119.044C193.635 119.062 193.694 119.069 193.752 119.063C193.81 119.057 193.867 119.039 193.917 119.01C194.012 118.976 194.012 118.908 194.012 118.902Z" fill="#EB996E"/>
<path d="M194.235 116.59L194.762 117.137C197.061 114.947 201.556 109.451 201.306 109.776C200.257 109.388 199.128 109.268 198.021 109.424C196.31 109.715 193.072 110.567 193.12 112.574C193.22 113.974 193.6 115.339 194.235 116.59Z" fill="#263238"/>
<path d="M191.193 116.13C191.193 116.13 191.193 116.083 191.193 116.008C191.233 115.895 191.28 115.784 191.335 115.677C191.552 115.29 191.852 114.955 192.214 114.697C192.749 114.315 193.346 114.027 193.978 113.845C194.654 113.622 195.465 113.446 196.243 113.115C197.573 112.553 198.774 111.725 199.772 110.681C200.072 110.364 200.354 110.03 200.617 109.681L200.826 109.39C200.849 109.355 200.876 109.324 200.907 109.296L200.846 109.404C200.799 109.471 200.738 109.58 200.65 109.708C200.398 110.068 200.123 110.411 199.826 110.736C199.381 111.214 198.892 111.648 198.365 112.033C197.721 112.507 197.022 112.902 196.283 113.21C195.538 113.495 194.778 113.739 194.005 113.94C193.382 114.114 192.793 114.39 192.261 114.758C191.903 115.005 191.601 115.325 191.376 115.697C191.304 115.837 191.243 115.981 191.193 116.13Z" fill="#455A64"/>
<path d="M191.802 116.454C191.796 116.299 191.824 116.145 191.883 116.002C192.039 115.601 192.312 115.257 192.667 115.015C193.2 114.675 193.795 114.445 194.418 114.339C195.164 114.196 195.892 113.969 196.588 113.663C197.279 113.348 197.929 112.949 198.521 112.473C199.012 112.082 199.465 111.645 199.873 111.168C200.142 110.847 200.388 110.509 200.61 110.154C200.684 110.039 200.745 109.938 200.786 109.863C200.807 109.827 200.832 109.793 200.86 109.762C200.846 109.8 200.827 109.836 200.806 109.87L200.644 110.174C200.436 110.542 200.196 110.89 199.927 111.215C199.528 111.715 199.074 112.168 198.575 112.567C197.977 113.053 197.321 113.462 196.621 113.784C195.918 114.094 195.18 114.321 194.424 114.46C193.812 114.575 193.228 114.804 192.701 115.136C192.35 115.365 192.075 115.692 191.91 116.076C191.863 116.199 191.827 116.325 191.802 116.454Z" fill="#455A64"/>
<path d="M190.578 135.342C190.479 134.01 190.479 132.672 190.578 131.34C190.668 132.672 190.668 134.009 190.578 135.342Z" fill="#263238"/>
<path d="M204.923 135.058C204.905 134.833 204.905 134.607 204.923 134.382C204.963 133.818 204.943 133.251 204.862 132.692C204.757 132.134 204.594 131.588 204.375 131.063C204.273 130.846 204.191 130.619 204.132 130.387C204.264 130.584 204.375 130.795 204.463 131.016C204.713 131.537 204.893 132.089 204.997 132.658C205.078 133.23 205.078 133.81 204.997 134.382C205.001 134.61 204.976 134.837 204.923 135.058Z" fill="#263238"/>
<path d="M277.89 140.993H226.21C224.979 140.992 223.799 140.502 222.928 139.631C222.058 138.761 221.568 137.58 221.566 136.349V114.65L215.867 109.593H277.89C278.503 109.589 279.112 109.706 279.679 109.938C280.247 110.169 280.763 110.511 281.198 110.944C281.633 111.376 281.978 111.89 282.213 112.457C282.448 113.023 282.569 113.631 282.568 114.244V136.349C282.567 136.962 282.445 137.568 282.21 138.133C281.974 138.698 281.629 139.212 281.194 139.643C280.759 140.075 280.244 140.416 279.677 140.648C279.11 140.879 278.503 140.997 277.89 140.993Z" fill="#EBEBEB"/>
<path d="M274.348 144.509C272.515 144.683 270.672 144.741 268.832 144.684C266.993 144.741 265.153 144.682 263.322 144.509C265.153 144.335 266.993 144.276 268.832 144.333C270.672 144.276 272.515 144.334 274.348 144.509Z" fill="#E0E0E0"/>
<path d="M276.626 144.941C276.603 144.941 276.581 144.936 276.56 144.927C276.539 144.917 276.52 144.904 276.504 144.887L275.436 143.772C275.405 143.74 275.388 143.698 275.388 143.653C275.388 143.609 275.405 143.567 275.436 143.535C275.451 143.519 275.47 143.506 275.49 143.497C275.51 143.488 275.532 143.484 275.555 143.484C275.577 143.484 275.599 143.488 275.619 143.497C275.639 143.506 275.658 143.519 275.673 143.535L276.619 144.522L278.695 142.413C278.71 142.397 278.728 142.384 278.748 142.375C278.769 142.366 278.791 142.362 278.813 142.362C278.835 142.362 278.857 142.366 278.877 142.375C278.898 142.384 278.916 142.397 278.931 142.413C278.962 142.444 278.979 142.487 278.979 142.531C278.979 142.575 278.962 142.618 278.931 142.65L276.734 144.887C276.705 144.916 276.667 144.935 276.626 144.941Z" fill="#7541EE"/>
<path d="M278.147 144.907H277.951C277.906 144.907 277.863 144.889 277.831 144.858C277.8 144.826 277.782 144.783 277.782 144.738C277.787 144.694 277.807 144.653 277.839 144.622C277.871 144.591 277.913 144.572 277.958 144.569H278.079L280.222 142.386C280.238 142.369 280.257 142.356 280.278 142.348C280.299 142.339 280.321 142.334 280.344 142.334C280.367 142.334 280.389 142.339 280.41 142.348C280.431 142.356 280.45 142.369 280.466 142.386C280.497 142.417 280.514 142.46 280.514 142.504C280.514 142.548 280.497 142.591 280.466 142.622L278.269 144.853C278.254 144.871 278.235 144.885 278.214 144.894C278.193 144.903 278.17 144.908 278.147 144.907Z" fill="#7541EE"/>
<path d="M274.348 229.461C272.515 229.636 270.672 229.694 268.832 229.637C266.993 229.694 265.153 229.635 263.322 229.461C265.153 229.287 266.993 229.229 268.832 229.286C270.672 229.229 272.515 229.287 274.348 229.461Z" fill="#E0E0E0"/>
<path d="M276.626 229.894C276.6 229.897 276.573 229.893 276.549 229.884C276.524 229.874 276.502 229.859 276.484 229.84L275.416 228.725C275.397 228.709 275.382 228.69 275.371 228.669C275.36 228.647 275.354 228.624 275.353 228.599C275.352 228.575 275.356 228.551 275.365 228.529C275.374 228.506 275.388 228.486 275.406 228.47C275.423 228.453 275.444 228.44 275.467 228.433C275.49 228.425 275.514 228.422 275.538 228.424C275.562 228.427 275.585 228.434 275.606 228.446C275.627 228.458 275.645 228.475 275.659 228.495L276.606 229.482L278.681 227.373C278.696 227.356 278.715 227.343 278.735 227.335C278.755 227.326 278.777 227.321 278.799 227.321C278.821 227.321 278.843 227.326 278.864 227.335C278.884 227.343 278.902 227.356 278.918 227.373C278.949 227.404 278.966 227.447 278.966 227.491C278.966 227.535 278.949 227.578 278.918 227.609L276.748 229.84C276.715 229.872 276.672 229.891 276.626 229.894Z" fill="#7541EE"/>
<path d="M278.147 229.84H277.951C277.906 229.838 277.863 229.819 277.831 229.786C277.8 229.753 277.782 229.71 277.782 229.664C277.782 229.642 277.786 229.619 277.795 229.599C277.804 229.578 277.818 229.56 277.834 229.544C277.851 229.529 277.87 229.517 277.891 229.51C277.913 229.503 277.935 229.5 277.958 229.502H278.079L280.222 227.318C280.238 227.302 280.257 227.289 280.278 227.28C280.299 227.271 280.321 227.267 280.344 227.267C280.367 227.267 280.389 227.271 280.41 227.28C280.431 227.289 280.45 227.302 280.466 227.318C280.497 227.35 280.514 227.393 280.514 227.437C280.514 227.481 280.497 227.523 280.466 227.555L278.269 229.786C278.254 229.803 278.235 229.817 278.214 229.827C278.193 229.836 278.17 229.84 278.147 229.84Z" fill="#7541EE"/>
<path d="M277.228 115.806C277.228 115.9 265.945 115.981 252.026 115.981C238.107 115.981 226.832 115.9 226.832 115.806C226.832 115.711 238.107 115.63 252.026 115.63C265.945 115.63 277.228 115.704 277.228 115.806Z" fill="white"/>
<path d="M277.228 119.503C277.228 119.605 265.945 119.679 252.026 119.679C238.107 119.679 226.832 119.605 226.832 119.503C226.832 119.402 238.107 119.328 252.026 119.328C265.945 119.328 277.228 119.409 277.228 119.503Z" fill="white"/>
<path d="M277.228 123.208C277.228 123.302 265.945 123.384 252.026 123.384C238.107 123.384 226.832 123.302 226.832 123.208C226.832 123.113 238.107 123.032 252.026 123.032C265.945 123.032 277.228 123.113 277.228 123.208Z" fill="white"/>
<path d="M197.352 231.26C205.726 231.26 212.514 224.486 212.514 216.131C212.514 207.775 205.726 201.002 197.352 201.002C188.978 201.002 182.189 207.775 182.189 216.131C182.189 224.486 188.978 231.26 197.352 231.26Z" fill="#E0E0E0"/>
<path d="M190.267 219.916L194.242 219.578L203.936 221.214L205.078 228.488L204.916 229.333C202.733 230.567 200.279 231.243 197.772 231.301C195.265 231.359 192.782 230.796 190.544 229.664L190.267 219.896" fill="#455A64"/>
<path d="M201.86 221.093C202.822 220.954 203.802 221.087 204.691 221.478C205.58 221.869 206.342 222.501 206.89 223.303C207.548 224.222 208.151 225.179 208.695 226.169C207.113 227.886 205.828 229.191 203.638 229.948L201.86 221.093Z" fill="#455A64"/>
<path d="M190.267 219.916C190.267 219.916 187.644 220.234 186.63 222.472C185.616 224.709 185.38 225.412 185.38 225.412C186.732 227.041 188.462 228.975 190.578 229.698C190.578 229.698 191.058 224.067 191.119 222.472C191.193 220.728 191.261 219.862 190.267 219.916Z" fill="#455A64"/>
<path d="M192.66 205.585C193.32 204.738 194.162 204.05 195.124 203.572C196.086 203.095 197.143 202.84 198.217 202.827C199.14 202.822 200.056 202.984 200.921 203.307C201.83 203.527 202.633 204.058 203.192 204.808C203.88 205.694 204.331 206.741 204.504 207.85C204.662 208.987 204.717 210.137 204.666 211.284C204.612 212.435 204.24 213.549 203.591 214.502L200.678 215.009C199.071 215.133 197.455 215.047 195.871 214.752C194.27 214.444 192.856 213.516 191.937 212.169C190.767 210.236 191.254 207.309 192.66 205.585Z" fill="#263238"/>
<path d="M189.848 214.028C189.877 213.698 189.981 213.379 190.152 213.096C190.323 212.812 190.556 212.572 190.835 212.392C191.118 212.22 191.449 212.142 191.78 212.169C192.11 212.197 192.423 212.33 192.674 212.548L193.133 213.095C193.489 213.259 193.784 213.529 193.978 213.868C194.172 214.208 194.255 214.599 194.215 214.988C194.16 215.376 193.996 215.739 193.742 216.037C193.488 216.335 193.155 216.555 192.782 216.671C192.405 216.777 192.008 216.783 191.628 216.691C191.248 216.599 190.898 216.41 190.612 216.144C190.331 215.874 190.116 215.542 189.983 215.175C189.851 214.808 189.804 214.416 189.848 214.028Z" fill="#263238"/>
<path d="M190.423 215.989C190.314 215.815 190.26 215.612 190.267 215.407C190.365 214.917 190.599 214.465 190.943 214.103C191.267 213.717 191.665 213.4 192.113 213.17C192.451 212.987 192.687 212.92 192.68 212.893C192.465 212.912 192.256 212.974 192.065 213.075C191.591 213.291 191.171 213.61 190.835 214.008C190.647 214.226 190.488 214.467 190.362 214.725C190.25 214.933 190.186 215.164 190.172 215.401C190.17 215.563 190.215 215.723 190.301 215.86C190.362 215.962 190.423 215.995 190.423 215.989Z" fill="#455A64"/>
<path d="M200.664 220.822V218.118C200.664 218.118 203.037 217.855 203.699 214.819C204.01 212.807 204.132 210.77 204.064 208.735C204.064 206.89 202.476 204.375 200.191 204.368L199.177 204.253L195.29 205.795C195.019 205.808 194.763 205.922 194.573 206.115C194.383 206.308 194.272 206.565 194.262 206.836L194.147 219.815L195.925 222.309C196.251 222.75 196.706 223.078 197.227 223.246C197.748 223.415 198.309 223.416 198.831 223.25C199.353 223.084 199.81 222.758 200.137 222.319C200.465 221.88 200.646 221.35 200.657 220.802L200.664 220.822Z" fill="#FFBE9D"/>
<path d="M199.102 213.866C199.123 213.71 199.203 213.567 199.325 213.467C199.437 213.374 199.575 213.319 199.72 213.311C199.865 213.302 200.008 213.34 200.13 213.42C200.254 213.517 200.351 213.645 200.41 213.79C200.469 213.936 200.489 214.095 200.468 214.251C200.4 214.344 200.313 214.422 200.213 214.479C200.112 214.536 200.001 214.572 199.886 214.583H199.778C199.598 214.579 199.425 214.509 199.292 214.387C199.222 214.32 199.169 214.239 199.136 214.148C199.104 214.058 199.092 213.962 199.102 213.866Z" fill="#EB996E"/>
<path d="M202.638 210.912C202.625 211.008 202.578 211.096 202.505 211.16C202.433 211.224 202.339 211.259 202.242 211.259C202.146 211.259 202.052 211.224 201.979 211.16C201.907 211.096 201.859 211.008 201.847 210.912C201.852 210.809 201.897 210.711 201.973 210.641C202.049 210.57 202.149 210.532 202.253 210.533C202.303 210.532 202.353 210.542 202.399 210.56C202.446 210.579 202.489 210.607 202.525 210.642C202.56 210.677 202.589 210.719 202.608 210.765C202.628 210.812 202.638 210.862 202.638 210.912Z" fill="#263238"/>
<path d="M203.287 209.905C203.233 209.952 202.942 209.715 202.523 209.695C202.104 209.675 201.773 209.864 201.732 209.81C201.691 209.756 201.766 209.695 201.908 209.607C202.097 209.487 202.32 209.433 202.543 209.452C202.763 209.46 202.975 209.541 203.145 209.682C203.266 209.79 203.307 209.884 203.287 209.905Z" fill="#263238"/>
<path d="M200.617 213.109C200.838 213.056 201.065 213.027 201.293 213.021C201.401 213.021 201.509 213.021 201.529 212.926C201.544 212.815 201.525 212.702 201.475 212.602C201.387 212.338 201.293 212.061 201.198 211.764C200.941 211.05 200.74 210.318 200.596 209.573C200.913 210.263 201.173 210.978 201.374 211.71C201.468 212.007 201.55 212.284 201.637 212.555C201.694 212.689 201.706 212.839 201.671 212.981C201.653 213.018 201.626 213.051 201.594 213.077C201.561 213.102 201.523 213.12 201.482 213.129C201.422 213.139 201.36 213.139 201.299 213.129C201.072 213.153 200.842 213.147 200.617 213.109Z" fill="#263238"/>
<path d="M200.637 218.132C199.189 218.075 197.785 217.619 196.581 216.813C196.581 216.813 197.561 218.997 200.637 218.882V218.132Z" fill="#EB996E"/>
<path d="M199.352 213.332C199.427 213.332 199.4 213.792 199.778 214.143C200.157 214.495 200.644 214.468 200.644 214.529C200.644 214.589 200.529 214.61 200.326 214.61C200.054 214.598 199.795 214.49 199.596 214.305C199.403 214.132 199.286 213.889 199.271 213.629C199.265 213.44 199.325 213.332 199.352 213.332Z" fill="#263238"/>
<path d="M203.199 208.309C203.125 208.411 202.8 208.309 202.422 208.309C202.043 208.309 201.746 208.404 201.644 208.309C201.543 208.215 201.644 208.161 201.793 208.066C201.978 207.946 202.194 207.882 202.415 207.883C202.637 207.874 202.856 207.933 203.043 208.052C203.185 208.161 203.233 208.262 203.199 208.309Z" fill="#263238"/>
<path d="M197.987 210.858C197.985 210.961 198.024 211.06 198.095 211.135C198.165 211.209 198.263 211.253 198.365 211.257C198.415 211.262 198.466 211.258 198.514 211.243C198.562 211.229 198.607 211.205 198.645 211.172C198.684 211.14 198.715 211.101 198.738 211.056C198.761 211.011 198.774 210.962 198.778 210.912C198.78 210.808 198.741 210.708 198.671 210.633C198.6 210.557 198.503 210.512 198.399 210.506C198.349 210.502 198.298 210.507 198.25 210.522C198.202 210.538 198.157 210.562 198.119 210.595C198.081 210.628 198.049 210.668 198.026 210.713C198.004 210.758 197.99 210.808 197.987 210.858Z" fill="#263238"/>
<path d="M197.473 209.749C197.52 209.803 197.825 209.587 198.251 209.6C198.676 209.614 198.981 209.824 199.028 209.769C199.075 209.715 199.028 209.655 198.866 209.553C198.684 209.424 198.467 209.353 198.244 209.35C198.024 209.349 197.809 209.415 197.629 209.54C197.493 209.634 197.446 209.729 197.473 209.749Z" fill="#263238"/>
<path d="M197.23 208.843C197.311 208.938 197.642 208.843 198.034 208.843C198.426 208.843 198.758 208.918 198.839 208.843C198.92 208.769 198.839 208.701 198.676 208.607C198.48 208.492 198.256 208.431 198.027 208.431C197.799 208.431 197.575 208.492 197.378 208.607C197.237 208.695 197.189 208.796 197.23 208.843Z" fill="#263238"/>
<path d="M194.763 211.757C194.763 211.527 194.546 210.98 194.316 210.932C193.721 210.804 192.633 210.79 192.538 212.318C192.41 214.407 194.566 214.109 194.566 214.049C194.566 213.988 194.722 212.548 194.763 211.757Z" fill="#FFBE9D"/>
<path d="M194.012 213.251C194.012 213.251 193.978 213.251 193.911 213.298C193.824 213.332 193.727 213.332 193.64 213.298C193.51 213.205 193.407 213.079 193.341 212.933C193.276 212.787 193.251 212.626 193.268 212.467C193.276 212.288 193.322 212.112 193.404 211.953C193.428 211.889 193.467 211.832 193.517 211.786C193.568 211.741 193.629 211.707 193.694 211.689C193.736 211.681 193.78 211.687 193.818 211.707C193.856 211.726 193.886 211.758 193.904 211.798C193.91 211.833 193.91 211.87 193.904 211.906C193.904 211.906 193.951 211.872 193.938 211.784C193.928 211.732 193.902 211.685 193.863 211.649C193.836 211.626 193.805 211.609 193.771 211.599C193.738 211.588 193.702 211.584 193.667 211.588C193.58 211.598 193.498 211.63 193.428 211.683C193.358 211.735 193.303 211.805 193.268 211.885C193.167 212.06 193.112 212.258 193.106 212.46C193.084 212.645 193.117 212.832 193.201 212.998C193.285 213.164 193.417 213.302 193.579 213.393C193.632 213.419 193.69 213.432 193.748 213.432C193.807 213.432 193.865 213.419 193.917 213.393C194.012 213.298 194.012 213.251 194.012 213.251Z" fill="#EB996E"/>
<path d="M194.235 210.912L194.762 211.466C197.061 209.269 201.556 203.773 201.306 204.105C200.258 203.712 199.129 203.589 198.021 203.746C196.31 204.037 193.072 204.889 193.12 206.903C193.221 208.3 193.6 209.663 194.235 210.912Z" fill="#263238"/>
<path d="M191.193 210.473C191.193 210.473 191.193 210.432 191.193 210.351C191.234 210.24 191.282 210.132 191.335 210.026C191.553 209.638 191.853 209.301 192.214 209.039C192.761 208.661 193.369 208.38 194.012 208.208C194.688 207.978 195.499 207.802 196.277 207.471C197.009 207.167 197.703 206.779 198.345 206.315C198.87 205.937 199.358 205.511 199.805 205.044C200.184 204.639 200.481 204.287 200.65 204.044C200.731 203.922 200.806 203.827 200.86 203.753C200.914 203.679 200.934 203.652 200.941 203.658L200.88 203.767L200.684 204.064C200.436 204.427 200.16 204.77 199.859 205.092C199.415 205.572 198.926 206.009 198.399 206.396C197.751 206.856 197.049 207.238 196.31 207.532C195.526 207.863 194.729 208.039 194.032 208.262C193.41 208.434 192.821 208.708 192.288 209.073C191.929 209.322 191.627 209.645 191.403 210.02C191.324 210.166 191.254 210.317 191.193 210.473Z" fill="#455A64"/>
<path d="M191.802 210.804C191.797 210.647 191.824 210.49 191.883 210.344C192.037 209.945 192.311 209.603 192.667 209.364C193.2 209.024 193.795 208.794 194.418 208.688C195.164 208.542 195.891 208.316 196.588 208.012C197.279 207.698 197.929 207.298 198.521 206.822C199.335 206.17 200.034 205.387 200.59 204.504C200.664 204.382 200.725 204.287 200.765 204.206C200.787 204.172 200.812 204.141 200.84 204.111C200.825 204.149 200.807 204.185 200.786 204.22L200.623 204.524C200.416 204.891 200.176 205.24 199.907 205.565C199.507 206.064 199.054 206.517 198.555 206.917C197.958 207.403 197.302 207.809 196.601 208.127C195.896 208.433 195.159 208.66 194.404 208.803C193.79 208.911 193.204 209.141 192.68 209.479C192.326 209.703 192.05 210.031 191.889 210.419C191.848 210.544 191.819 210.673 191.802 210.804Z" fill="#455A64"/>
<path d="M190.578 229.684C190.479 228.355 190.479 227.019 190.578 225.689C190.668 227.02 190.668 228.354 190.578 229.684Z" fill="#263238"/>
<path d="M204.923 229.407C204.903 229.171 204.903 228.934 204.923 228.698C204.963 228.131 204.943 227.563 204.862 227.001C204.756 226.445 204.593 225.901 204.375 225.378C204.274 225.161 204.193 224.934 204.132 224.702C204.264 224.9 204.375 225.11 204.463 225.331C204.714 225.852 204.894 226.405 204.997 226.974C205.078 227.546 205.078 228.126 204.997 228.698C205.003 228.936 204.978 229.175 204.923 229.407Z" fill="#263238"/>
<path d="M277.89 225.027H226.21C224.978 225.025 223.796 224.534 222.926 223.662C222.055 222.79 221.566 221.608 221.566 220.376V208.992L215.867 203.936H277.89C279.121 203.937 280.302 204.427 281.172 205.298C282.043 206.168 282.533 207.349 282.534 208.58V220.376C282.534 221.608 282.045 222.79 281.175 223.662C280.304 224.534 279.123 225.025 277.89 225.027Z" fill="#EBEBEB"/>
<path d="M277.228 210.148C277.228 210.249 265.945 210.324 252.026 210.324C238.107 210.324 226.832 210.249 226.832 210.148C226.832 210.047 238.107 209.972 252.026 209.972C265.945 209.972 277.228 210.053 277.228 210.148Z" fill="white"/>
<path d="M277.228 213.853C277.228 213.947 265.945 214.028 252.026 214.028C238.107 214.028 226.832 213.947 226.832 213.853C226.832 213.758 238.107 213.677 252.026 213.677C265.945 213.677 277.228 213.758 277.228 213.853Z" fill="white"/>
<path d="M277.228 217.557C277.228 217.652 265.945 217.733 252.026 217.733C238.107 217.733 226.832 217.652 226.832 217.557C226.832 217.462 238.107 217.381 252.026 217.381C265.945 217.381 277.228 217.456 277.228 217.557Z" fill="white"/>
<path d="M277.228 126.912C277.228 127.007 265.945 127.088 252.026 127.088C238.107 127.088 226.832 127.007 226.832 126.912C226.832 126.818 238.107 126.736 252.026 126.736C265.945 126.736 277.228 126.811 277.228 126.912Z" fill="white"/>
<path d="M277.228 130.61C277.228 130.711 265.945 130.786 252.026 130.786C238.107 130.786 226.832 130.711 226.832 130.61C226.832 130.509 238.107 130.434 252.026 130.434C265.945 130.434 277.228 130.515 277.228 130.61Z" fill="white"/>
<path d="M277.228 135.058C277.228 135.159 265.945 135.234 252.026 135.234C238.107 135.234 226.832 135.159 226.832 135.058C226.832 134.957 238.107 134.882 252.026 134.882C265.945 134.882 277.228 134.963 277.228 135.058Z" fill="white"/>
<path d="M227.136 70.7298C227.172 70.2045 227.361 69.7012 227.679 69.2816C227.997 68.8621 228.431 68.5445 228.927 68.3679C229.423 68.1913 229.96 68.1634 230.471 68.2876C230.983 68.4117 231.447 68.6826 231.807 69.0668L231.084 69.7428C230.934 69.5617 230.746 69.4162 230.533 69.3168C230.321 69.2174 230.088 69.1667 229.853 69.1682C229.438 69.1682 229.039 69.3335 228.745 69.6276C228.45 69.9217 228.285 70.3206 228.285 70.7366C228.285 71.1525 228.45 71.5514 228.745 71.8455C229.039 72.1397 229.438 72.3049 229.853 72.3049C230.089 72.3066 230.322 72.2552 230.535 72.1546C230.748 72.0539 230.936 71.9066 231.084 71.7235L231.807 72.3995C231.448 72.7835 230.984 73.0544 230.473 73.1788C229.962 73.3032 229.425 73.2759 228.93 73.1001C228.434 72.9243 228 72.6077 227.681 72.1891C227.363 71.7705 227.173 71.268 227.136 70.7433V70.7298Z" fill="#263238"/>
<path d="M236.303 71.0205V73.177H235.248V71.1895C235.248 70.5811 234.964 70.304 234.484 70.304C234.004 70.304 233.585 70.6285 233.585 71.318V73.177H232.49V67.9921H233.585V69.8105C233.744 69.6582 233.931 69.5395 234.137 69.4617C234.343 69.3838 234.562 69.3484 234.782 69.3576C234.996 69.3489 235.21 69.3872 235.408 69.4697C235.606 69.5522 235.784 69.6771 235.929 69.8355C236.074 69.9938 236.182 70.182 236.247 70.3867C236.311 70.5914 236.33 70.8077 236.303 71.0205Z" fill="#263238"/>
<path d="M240.615 71.034V73.1769H239.595V72.7105C239.468 72.8929 239.294 73.0376 239.092 73.1293C238.89 73.2209 238.666 73.2561 238.445 73.231C237.567 73.231 237.046 72.7443 237.046 72.0953C237.046 71.4464 237.513 70.9664 238.662 70.9664H239.527C239.527 70.5 239.243 70.2296 238.662 70.2296C238.272 70.2256 237.89 70.3464 237.573 70.5743L237.181 69.8172C237.664 69.5048 238.229 69.3446 238.804 69.3575C239.98 69.3575 240.615 69.8916 240.615 71.034ZM239.527 71.9872V71.6019H238.777C238.27 71.6019 238.101 71.7911 238.101 72.048C238.101 72.3049 238.331 72.5009 238.716 72.5009C238.888 72.5139 239.06 72.4709 239.207 72.3784C239.353 72.2858 239.465 72.1486 239.527 71.9872Z" fill="#263238"/>
<path d="M244.036 73.008C243.769 73.1753 243.458 73.2578 243.144 73.2446C242.958 73.2701 242.769 73.2532 242.591 73.195C242.413 73.1368 242.25 73.0389 242.115 72.9087C241.981 72.7785 241.877 72.6194 241.813 72.4433C241.749 72.2673 241.725 72.079 241.744 71.8926V70.3445H241.163V69.5063H241.744V68.5869H242.833V69.5063H243.772V70.3445H242.833V71.879C242.825 71.9435 242.831 72.0089 242.851 72.0706C242.871 72.1323 242.905 72.1888 242.949 72.236C242.994 72.2832 243.049 72.3199 243.109 72.3435C243.169 72.3671 243.234 72.377 243.299 72.3725C243.458 72.3782 243.613 72.328 243.739 72.2306L244.036 73.008Z" fill="#263238"/>
<path d="M263.322 78.2741C263.322 78.3687 251.83 78.4498 237.587 78.4498C223.344 78.4498 211.858 78.3687 211.858 78.2741C211.858 78.1794 223.35 78.0916 237.587 78.0916C251.824 78.0916 263.322 78.1727 263.322 78.2741Z" fill="#263238"/>
<path d="M286.124 70.7298C286.785 70.7298 287.32 70.1941 287.32 69.5333C287.32 68.8725 286.785 68.3368 286.124 68.3368C285.463 68.3368 284.927 68.8725 284.927 69.5333C284.927 70.1941 285.463 70.7298 286.124 70.7298Z" fill="#263238"/>
<path d="M287.3 73.0079C287.301 73.2465 287.232 73.4801 287.1 73.679C286.968 73.8779 286.781 74.0332 286.56 74.1251C286.34 74.217 286.098 74.2414 285.864 74.1952C285.63 74.149 285.415 74.0342 285.246 73.8655C285.077 73.6968 284.963 73.4818 284.916 73.2478C284.87 73.0137 284.895 72.7712 284.986 72.5511C285.078 72.3309 285.234 72.1431 285.433 72.0114C285.631 71.8797 285.865 71.8101 286.104 71.8114C286.42 71.8132 286.724 71.9398 286.948 72.1638C287.172 72.3878 287.298 72.6911 287.3 73.0079Z" fill="#263238"/>
<path d="M287.3 76.5164C287.301 76.7549 287.232 76.9885 287.1 77.1874C286.968 77.3863 286.781 77.5416 286.56 77.6335C286.34 77.7254 286.098 77.7498 285.864 77.7036C285.63 77.6574 285.415 77.5426 285.246 77.374C285.077 77.2053 284.963 76.9902 284.916 76.7562C284.87 76.5222 284.895 76.2797 284.986 76.0595C285.078 75.8394 285.234 75.6515 285.433 75.5198C285.631 75.3881 285.865 75.3185 286.104 75.3198C286.421 75.3198 286.725 75.4459 286.95 75.6703C287.174 75.8947 287.3 76.199 287.3 76.5164Z" fill="#263238"/>
<path d="M188.82 73.5893C188.747 73.5909 188.675 73.567 188.618 73.5217L185.447 71.1963C185.404 71.1641 185.368 71.1223 185.344 71.0743C185.319 71.0262 185.306 70.9731 185.305 70.9191C185.305 70.8659 185.318 70.8136 185.343 70.7666C185.368 70.7195 185.404 70.6791 185.447 70.6487L188.618 68.3638C188.654 68.3379 188.695 68.3194 188.739 68.3094C188.782 68.2995 188.827 68.2982 188.871 68.3058C188.915 68.3133 188.957 68.3295 188.995 68.3534C189.033 68.3773 189.065 68.4084 189.091 68.4449C189.142 68.517 189.162 68.6061 189.149 68.6933C189.135 68.7805 189.087 68.8587 189.016 68.9114L186.218 70.9394L189.016 72.9674C189.088 73.0212 189.135 73.1007 189.149 73.189C189.163 73.2772 189.142 73.3674 189.091 73.4406C189.061 73.4854 189.021 73.5224 188.974 73.5484C188.927 73.5743 188.874 73.5883 188.82 73.5893Z" fill="#263238"/>
<path d="M271.556 187.252C279.93 187.252 286.719 180.479 286.719 172.123C286.719 163.768 279.93 156.994 271.556 156.994C263.182 156.994 256.393 163.768 256.393 172.123C256.393 180.479 263.182 187.252 271.556 187.252Z" fill="#E0E0E0"/>
<path d="M275.707 181.067H267.73C267.457 181.067 267.196 180.958 267.003 180.766C266.811 180.573 266.702 180.312 266.702 180.039C266.702 179.766 266.81 179.504 267.003 179.31C267.195 179.116 267.457 179.007 267.73 179.005H275.707C275.98 179.007 276.241 179.116 276.434 179.31C276.626 179.504 276.734 179.766 276.734 180.039C276.734 180.312 276.626 180.573 276.433 180.766C276.241 180.958 275.979 181.067 275.707 181.067Z" fill="#263238"/>
<path d="M272.171 162.287H271.468V165.83H272.171V162.287Z" fill="#263238"/>
<path d="M261.484 176.449C262.619 176.449 263.539 175.529 263.539 174.394C263.539 173.259 262.619 172.339 261.484 172.339C260.349 172.339 259.429 173.259 259.429 174.394C259.429 175.529 260.349 176.449 261.484 176.449Z" fill="#7541EE"/>
<path d="M282.264 176.314C283.399 176.314 284.319 175.394 284.319 174.259C284.319 173.124 283.399 172.204 282.264 172.204C281.129 172.204 280.209 173.124 280.209 174.259C280.209 175.394 281.129 176.314 282.264 176.314Z" fill="#7541EE"/>
<path d="M272.124 165.086C272.124 165.086 280.493 164.985 281.818 172.238C283.143 179.492 276.065 179.62 274.03 179.755C273.111 179.816 271.137 179.823 269.393 179.796C265.533 179.728 262.809 178.985 261.882 175.402C261.771 174.981 261.701 174.551 261.673 174.117C261.43 170.197 264.079 164.897 272.124 165.086Z" fill="#7541EE"/>
<path d="M266.054 176.125L278.222 176.314C278.834 176.323 279.424 176.089 279.864 175.663C280.304 175.238 280.557 174.655 280.567 174.043C280.574 173.431 280.339 172.841 279.912 172.403C279.485 171.964 278.901 171.713 278.289 171.704L266.121 171.515C265.818 171.509 265.516 171.564 265.234 171.675C264.952 171.786 264.695 171.952 264.477 172.163C264.259 172.374 264.085 172.626 263.964 172.905C263.844 173.183 263.78 173.483 263.775 173.786C263.771 174.089 263.826 174.39 263.938 174.672C264.051 174.954 264.217 175.211 264.429 175.428C264.641 175.646 264.893 175.819 265.172 175.939C265.451 176.058 265.75 176.121 266.054 176.125Z" fill="#263238"/>
<path d="M275.693 173.793C275.711 173.888 275.747 173.98 275.801 174.061C275.854 174.142 275.923 174.212 276.003 174.267C276.084 174.322 276.174 174.36 276.269 174.379C276.365 174.399 276.463 174.399 276.558 174.381C276.661 174.37 276.761 174.339 276.851 174.288C276.941 174.237 277.019 174.167 277.081 174.084C277.142 174.001 277.186 173.906 277.209 173.805C277.232 173.705 277.233 173.6 277.213 173.498C277.194 173.397 277.153 173.301 277.094 173.216C277.035 173.131 276.958 173.059 276.87 173.006C276.782 172.952 276.683 172.917 276.58 172.904C276.478 172.89 276.374 172.898 276.274 172.927C276.179 172.946 276.089 172.983 276.008 173.037C275.928 173.09 275.858 173.159 275.804 173.24C275.75 173.32 275.713 173.41 275.694 173.505C275.675 173.6 275.674 173.698 275.693 173.793Z" fill="white"/>
<path d="M267.196 173.658C267.206 173.761 267.238 173.86 267.289 173.95C267.34 174.04 267.409 174.118 267.492 174.18C267.576 174.242 267.671 174.285 267.771 174.308C267.872 174.331 267.977 174.333 268.078 174.313C268.18 174.293 268.276 174.252 268.361 174.193C268.446 174.134 268.517 174.058 268.571 173.969C268.625 173.881 268.66 173.782 268.673 173.68C268.686 173.577 268.678 173.473 268.649 173.374C268.597 173.196 268.48 173.044 268.322 172.948C268.164 172.851 267.975 172.818 267.793 172.853C267.611 172.889 267.449 172.991 267.339 173.14C267.228 173.289 267.177 173.473 267.196 173.658Z" fill="white"/>
<path d="M272.976 162.24C272.977 162.469 272.91 162.693 272.784 162.884C272.658 163.075 272.478 163.224 272.267 163.313C272.056 163.401 271.823 163.425 271.598 163.381C271.374 163.338 271.167 163.228 271.005 163.067C270.842 162.905 270.732 162.699 270.687 162.475C270.641 162.25 270.664 162.018 270.751 161.806C270.838 161.594 270.987 161.413 271.177 161.286C271.367 161.159 271.591 161.091 271.82 161.091C272.125 161.091 272.418 161.212 272.635 161.427C272.851 161.642 272.974 161.935 272.976 162.24Z" fill="#7541EE"/>
<path d="M273.564 173.455C273.564 173.455 273.611 173.509 273.638 173.631C273.659 173.803 273.643 173.978 273.591 174.144C273.517 174.401 273.377 174.634 273.185 174.82C272.951 175.054 272.643 175.2 272.313 175.233C271.984 175.26 271.655 175.174 271.38 174.989C271.163 174.842 270.985 174.645 270.86 174.415C270.78 174.26 270.734 174.089 270.725 173.915C270.725 173.793 270.725 173.725 270.765 173.725C270.806 173.725 270.833 173.982 271.056 174.3C271.186 174.476 271.349 174.625 271.536 174.739C271.762 174.874 272.024 174.935 272.286 174.915C272.538 174.883 272.774 174.774 272.962 174.604C273.133 174.463 273.269 174.285 273.361 174.084C273.537 173.732 273.51 173.455 273.564 173.455Z" fill="white"/>
<path d="M281.804 172.001C281.83 172.058 281.85 172.117 281.865 172.177C281.892 172.248 281.914 172.32 281.933 172.394C281.933 172.475 281.98 172.569 282 172.684C282.052 172.936 282.088 173.191 282.108 173.448C282.132 173.763 282.132 174.079 282.108 174.395C282.08 174.709 282.028 175.021 281.953 175.327C281.889 175.576 281.808 175.82 281.71 176.057C281.676 176.152 281.638 176.244 281.595 176.335C281.565 176.402 281.531 176.468 281.493 176.531L281.399 176.7C281.414 176.637 281.439 176.578 281.473 176.524L281.561 176.314C281.595 176.233 281.635 176.145 281.669 176.044C281.76 175.806 281.835 175.562 281.892 175.314C281.964 175.009 282.016 174.7 282.048 174.388C282.068 174.075 282.068 173.761 282.048 173.448C282.031 173.194 281.999 172.941 281.953 172.691C281.939 172.586 281.919 172.482 281.892 172.38C281.892 172.292 281.858 172.225 281.845 172.164C281.824 172.112 281.81 172.057 281.804 172.001Z" fill="#263238"/>
<path d="M261.977 172.042C261.948 172.1 261.926 172.161 261.91 172.225C261.91 172.279 261.869 172.353 261.842 172.434C261.815 172.515 261.795 172.617 261.774 172.725C261.722 172.977 261.689 173.232 261.673 173.489C261.649 173.804 261.649 174.12 261.673 174.435C261.7 174.75 261.752 175.062 261.828 175.368C261.891 175.619 261.973 175.866 262.072 176.105C262.106 176.206 262.153 176.294 262.187 176.375C262.221 176.456 262.261 176.524 262.288 176.578L262.383 176.74C262.365 176.679 262.34 176.62 262.308 176.564C262.308 176.51 262.254 176.443 262.22 176.362C262.187 176.281 262.146 176.193 262.112 176.091C262.021 175.851 261.947 175.605 261.889 175.354C261.817 175.05 261.765 174.74 261.734 174.428C261.714 174.118 261.714 173.806 261.734 173.495C261.751 173.239 261.782 172.984 261.828 172.732C261.843 172.636 261.863 172.541 261.889 172.448C261.889 172.36 261.923 172.285 261.937 172.231C261.95 172.177 261.977 172.042 261.977 172.042Z" fill="#263238"/>
<path d="M263.782 185.116C263.782 185.116 266.27 182.689 271.468 182.689C276.667 182.689 279.33 185.116 279.33 185.116C276.984 186.531 274.296 187.279 271.556 187.279C268.816 187.279 266.128 186.531 263.782 185.116Z" fill="#7541EE"/>
<path d="M188.604 187.549H240.278C240.888 187.55 241.492 187.431 242.056 187.198C242.62 186.965 243.132 186.623 243.563 186.191C243.995 185.76 244.337 185.247 244.57 184.684C244.803 184.12 244.923 183.515 244.922 182.905V167.912L250.62 162.855H188.604C187.994 162.855 187.39 162.975 186.827 163.209C186.263 163.442 185.751 163.784 185.32 164.215C184.889 164.647 184.547 165.159 184.313 165.722C184.08 166.285 183.96 166.889 183.96 167.499V182.905C183.959 183.515 184.079 184.12 184.312 184.684C184.545 185.247 184.887 185.76 185.318 186.191C185.75 186.623 186.262 186.965 186.826 187.198C187.39 187.431 187.994 187.55 188.604 187.549Z" fill="#EBEBEB"/>
<path d="M237.952 170.183C237.952 170.284 227.312 170.359 214.184 170.359C201.056 170.359 190.416 170.284 190.416 170.183C190.416 170.082 201.056 170.007 214.184 170.007C227.312 170.007 237.952 170.088 237.952 170.183Z" fill="white"/>
<path d="M237.952 174.198C237.952 174.3 227.312 174.374 214.184 174.374C201.056 174.374 190.416 174.3 190.416 174.198C190.416 174.097 201.056 174.023 214.184 174.023C227.312 174.023 237.952 174.104 237.952 174.198Z" fill="white"/>
<path d="M237.952 178.214C237.952 178.308 227.312 178.39 214.184 178.39C201.056 178.39 190.416 178.308 190.416 178.214C190.416 178.119 201.056 178.038 214.184 178.038C227.312 178.038 237.952 178.119 237.952 178.214Z" fill="white"/>
<path d="M237.952 182.229C237.952 182.324 227.312 182.405 214.184 182.405C201.056 182.405 190.416 182.324 190.416 182.229C190.416 182.135 201.056 182.054 214.184 182.054C227.312 182.054 237.952 182.128 237.952 182.229Z" fill="white"/>
<path d="M271.556 271.265C279.93 271.265 286.719 264.492 286.719 256.136C286.719 247.781 279.93 241.007 271.556 241.007C263.182 241.007 256.393 247.781 256.393 256.136C256.393 264.492 263.182 271.265 271.556 271.265Z" fill="#E0E0E0"/>
<path d="M275.707 265.08H267.73C267.594 265.08 267.46 265.053 267.335 265.001C267.21 264.949 267.096 264.873 267.001 264.777C266.905 264.68 266.83 264.566 266.779 264.441C266.727 264.315 266.702 264.181 266.702 264.046C266.702 263.773 266.811 263.512 267.003 263.319C267.196 263.126 267.457 263.018 267.73 263.018H275.707C275.979 263.018 276.241 263.126 276.433 263.319C276.626 263.512 276.734 263.773 276.734 264.046C276.735 264.181 276.709 264.315 276.658 264.441C276.607 264.566 276.531 264.68 276.436 264.777C276.34 264.873 276.227 264.949 276.102 265.001C275.976 265.053 275.842 265.08 275.707 265.08Z" fill="#263238"/>
<path d="M272.171 246.301H271.468V249.843H272.171V246.301Z" fill="#263238"/>
<path d="M261.484 260.463C262.619 260.463 263.539 259.543 263.539 258.408C263.539 257.273 262.619 256.353 261.484 256.353C260.349 256.353 259.429 257.273 259.429 258.408C259.429 259.543 260.349 260.463 261.484 260.463Z" fill="#7541EE"/>
<path d="M282.264 260.321C283.399 260.321 284.319 259.401 284.319 258.266C284.319 257.131 283.399 256.211 282.264 256.211C281.129 256.211 280.209 257.131 280.209 258.266C280.209 259.401 281.129 260.321 282.264 260.321Z" fill="#7541EE"/>
<path d="M272.124 249.099C272.124 249.099 280.493 248.998 281.818 256.244C283.143 263.491 276.065 263.633 274.03 263.768C273.111 263.829 271.137 263.836 269.393 263.809C265.533 263.741 262.809 262.991 261.882 259.415C261.771 258.995 261.701 258.564 261.673 258.131C261.43 254.21 264.079 248.903 272.124 249.099Z" fill="#7541EE"/>
<path d="M266.054 260.138L278.222 260.328C278.834 260.337 279.424 260.103 279.864 259.677C280.304 259.251 280.557 258.668 280.567 258.056C280.574 257.444 280.339 256.854 279.912 256.416C279.485 255.977 278.901 255.726 278.289 255.717L266.121 255.521C265.509 255.512 264.918 255.746 264.479 256.172C264.039 256.598 263.786 257.181 263.775 257.793C263.771 258.096 263.826 258.398 263.938 258.68C264.05 258.962 264.217 259.22 264.429 259.437C264.64 259.655 264.893 259.829 265.171 259.949C265.45 260.07 265.75 260.134 266.054 260.138Z" fill="#263238"/>
<path d="M275.693 257.806C275.71 257.902 275.745 257.995 275.797 258.077C275.849 258.16 275.917 258.232 275.997 258.288C276.076 258.345 276.166 258.385 276.262 258.407C276.357 258.428 276.455 258.431 276.552 258.414C276.648 258.398 276.74 258.363 276.823 258.311C276.906 258.259 276.977 258.191 277.034 258.111C277.09 258.032 277.131 257.941 277.152 257.846C277.174 257.751 277.177 257.652 277.16 257.556C277.15 257.453 277.118 257.353 277.067 257.264C277.016 257.174 276.947 257.095 276.864 257.034C276.781 256.972 276.686 256.928 276.585 256.905C276.484 256.883 276.379 256.881 276.278 256.901C276.176 256.921 276.08 256.961 275.995 257.021C275.91 257.08 275.839 257.156 275.785 257.244C275.731 257.333 275.697 257.431 275.683 257.534C275.67 257.636 275.678 257.741 275.707 257.84L275.693 257.806Z" fill="white"/>
<path d="M267.196 257.671C267.224 257.815 267.294 257.948 267.398 258.052C267.501 258.157 267.633 258.228 267.778 258.257C267.922 258.287 268.071 258.273 268.207 258.217C268.343 258.161 268.46 258.066 268.542 257.945C268.624 257.823 268.669 257.679 268.669 257.532C268.67 257.385 268.627 257.241 268.546 257.118C268.465 256.996 268.349 256.9 268.213 256.843C268.078 256.786 267.928 256.771 267.784 256.799C267.688 256.817 267.597 256.855 267.515 256.909C267.434 256.963 267.364 257.032 267.309 257.113C267.255 257.194 267.216 257.285 267.197 257.381C267.178 257.476 267.177 257.575 267.196 257.671Z" fill="white"/>
<path d="M272.976 246.226C272.976 246.455 272.908 246.678 272.781 246.868C272.654 247.059 272.473 247.207 272.262 247.294C272.051 247.382 271.818 247.405 271.594 247.36C271.37 247.315 271.164 247.205 271.002 247.044C270.841 246.882 270.731 246.676 270.686 246.452C270.641 246.228 270.664 245.995 270.752 245.784C270.839 245.573 270.987 245.392 271.178 245.265C271.368 245.138 271.591 245.07 271.82 245.07C272.126 245.07 272.42 245.192 272.637 245.409C272.854 245.626 272.976 245.92 272.976 246.226Z" fill="#7541EE"/>
<path d="M273.564 257.461C273.564 257.461 273.611 257.522 273.638 257.644C273.659 257.817 273.643 257.992 273.591 258.158C273.515 258.414 273.375 258.646 273.185 258.834C272.951 259.068 272.643 259.213 272.313 259.246C271.984 259.273 271.655 259.188 271.38 259.003C271.163 258.856 270.985 258.658 270.86 258.428C270.78 258.272 270.734 258.102 270.725 257.928C270.725 257.806 270.725 257.738 270.765 257.738C270.806 257.738 270.833 257.995 271.056 258.306C271.184 258.486 271.347 258.638 271.536 258.752C271.764 258.883 272.024 258.944 272.286 258.928C272.538 258.896 272.774 258.787 272.962 258.617C273.13 258.473 273.265 258.296 273.361 258.097C273.537 257.732 273.51 257.468 273.564 257.461Z" fill="white"/>
<path d="M281.804 256.008C281.804 256.008 281.804 256.076 281.865 256.19C281.892 256.261 281.915 256.333 281.933 256.407C281.933 256.488 281.98 256.583 282 256.691C282.051 256.943 282.087 257.198 282.108 257.455C282.132 257.77 282.132 258.086 282.108 258.401C282.081 258.716 282.029 259.028 281.953 259.334C281.89 259.585 281.809 259.831 281.71 260.071C281.676 260.163 281.638 260.253 281.595 260.341C281.566 260.411 281.533 260.479 281.493 260.544L281.399 260.706C281.416 260.645 281.441 260.586 281.473 260.53C281.473 260.476 281.527 260.409 281.561 260.328C281.595 260.246 281.635 260.159 281.669 260.057C281.761 259.817 281.835 259.571 281.892 259.32C281.965 259.018 282.017 258.711 282.048 258.401C282.068 258.088 282.068 257.774 282.048 257.461C282.031 257.207 282 256.954 281.953 256.704C281.939 256.606 281.918 256.509 281.892 256.414C281.892 256.326 281.858 256.258 281.845 256.197C281.822 256.137 281.808 256.073 281.804 256.008Z" fill="#263238"/>
<path d="M261.977 256.055C261.948 256.114 261.926 256.175 261.91 256.238C261.91 256.292 261.869 256.366 261.842 256.447C261.815 256.528 261.795 256.63 261.774 256.738C261.722 256.99 261.689 257.245 261.673 257.502C261.649 257.817 261.649 258.133 261.673 258.448C261.7 258.763 261.752 259.075 261.828 259.381C261.891 259.633 261.973 259.879 262.072 260.118C262.106 260.219 262.153 260.307 262.187 260.388C262.221 260.47 262.261 260.537 262.288 260.591L262.383 260.754C262.366 260.692 262.341 260.633 262.308 260.578C262.308 260.524 262.254 260.456 262.22 260.375C262.187 260.294 262.146 260.206 262.112 260.098C262.021 259.86 261.947 259.616 261.889 259.368C261.817 259.063 261.765 258.753 261.734 258.442C261.714 258.131 261.714 257.819 261.734 257.509C261.751 257.252 261.782 256.997 261.828 256.745C261.843 256.649 261.863 256.554 261.889 256.461C261.889 256.373 261.923 256.299 261.937 256.245C261.95 256.19 261.977 256.055 261.977 256.055Z" fill="#263238"/>
<path d="M263.782 269.129C263.782 269.129 266.27 266.702 271.468 266.702C276.667 266.702 279.33 269.129 279.33 269.129C276.984 270.545 274.296 271.293 271.556 271.293C268.816 271.293 266.128 270.545 263.782 269.129Z" fill="#7541EE"/>
<path d="M188.604 271.563H240.278C240.888 271.564 241.492 271.444 242.056 271.211C242.62 270.978 243.132 270.636 243.563 270.204C243.995 269.773 244.337 269.261 244.57 268.697C244.803 268.133 244.923 267.529 244.922 266.919V251.925L250.62 246.868H188.604C187.994 246.868 187.39 246.989 186.827 247.222C186.263 247.455 185.751 247.797 185.32 248.229C184.889 248.66 184.547 249.172 184.313 249.735C184.08 250.299 183.96 250.903 183.96 251.513V266.919C183.959 267.529 184.079 268.133 184.312 268.697C184.545 269.261 184.887 269.773 185.318 270.204C185.75 270.636 186.262 270.978 186.826 271.211C187.39 271.444 187.994 271.564 188.604 271.563Z" fill="#EBEBEB"/>
<path d="M188.604 295.013H240.278C240.888 295.013 241.492 294.893 242.056 294.659C242.62 294.425 243.132 294.082 243.564 293.65C243.995 293.219 244.337 292.706 244.57 292.142C244.803 291.577 244.923 290.973 244.922 290.362V285.394L250.62 280.337H188.604C187.994 280.337 187.39 280.457 186.827 280.691C186.263 280.924 185.751 281.266 185.32 281.697C184.889 282.129 184.547 282.641 184.313 283.204C184.08 283.768 183.96 284.371 183.96 284.981V290.389C183.965 291.617 184.457 292.793 185.327 293.66C186.198 294.527 187.376 295.013 188.604 295.013Z" fill="#EBEBEB"/>
<path d="M237.952 254.176C237.952 254.277 227.312 254.352 214.184 254.352C201.056 254.352 190.416 254.277 190.416 254.176C190.416 254.075 201.056 254 214.184 254C227.312 254 237.952 254.102 237.952 254.176Z" fill="white"/>
<path d="M237.952 258.232C237.952 258.327 227.312 258.408 214.184 258.408C201.056 258.408 190.416 258.327 190.416 258.232C190.416 258.137 201.056 258.056 214.184 258.056C227.312 258.056 237.952 258.117 237.952 258.232Z" fill="white"/>
<path d="M237.952 262.227C237.952 262.322 227.312 262.403 214.184 262.403C201.056 262.403 190.416 262.322 190.416 262.227C190.416 262.133 201.056 262.051 214.184 262.051C227.312 262.051 237.952 262.126 237.952 262.227Z" fill="white"/>
<path d="M237.952 266.243C237.952 266.337 227.312 266.418 214.184 266.418C201.056 266.418 190.416 266.337 190.416 266.243C190.416 266.148 201.056 266.067 214.184 266.067C227.312 266.067 237.952 266.141 237.952 266.243Z" fill="white"/>
<path d="M238.114 287.888C238.114 287.983 227.582 288.064 214.596 288.064C201.61 288.064 191.072 287.983 191.072 287.888C191.072 287.793 201.604 287.712 214.596 287.712C227.589 287.712 238.114 287.787 238.114 287.888Z" fill="white"/>
<path d="M65.1935 278.1C66.104 278.319 66.9608 278.72 67.7124 279.279C68.464 279.838 69.0949 280.543 69.5672 281.351C70.5016 282.979 71.054 284.799 71.1829 286.671C71.5276 290.268 70.277 294.236 68.7222 297.487C65.2138 295.527 63.5846 291.167 62.8951 288.902C61.8067 285.326 62.0095 278.194 65.1935 278.086" fill="#455A64"/>
<path d="M73.3866 302.571C72.9676 301.613 72.8095 300.561 72.9282 299.522C73.047 298.484 73.4383 297.495 74.0626 296.656C74.705 295.83 75.506 295.141 76.4184 294.629C77.3309 294.117 78.3364 293.793 79.3759 293.675C79.8425 293.574 80.3253 293.574 80.7917 293.676C81.2581 293.777 81.6974 293.977 82.0799 294.263C82.3908 294.593 82.6075 295 82.7074 295.443C82.8073 295.885 82.7867 296.346 82.6478 296.778C82.3606 297.637 81.8524 298.407 81.1741 299.008C78.95 301.158 76.4015 302.828 73.319 302.571" fill="#455A64"/>
<path d="M71.8723 314.151C71.8323 313.905 71.8165 313.656 71.8249 313.407C71.8249 312.88 71.8249 312.197 71.7709 311.379C71.6331 309.138 71.8615 306.889 72.4469 304.721C73.0754 302.546 74.2725 300.579 75.9147 299.022C76.4176 298.559 76.9736 298.157 77.5709 297.825C77.7304 297.734 77.8952 297.653 78.0644 297.582C78.1203 297.548 78.1823 297.525 78.2469 297.514C77.4596 297.987 76.7213 298.538 76.0432 299.157C74.4564 300.719 73.2932 302.659 72.6632 304.795C72.0815 306.939 71.824 309.159 71.8993 311.379C71.8993 312.238 71.8993 312.927 71.8993 313.407C71.9085 313.655 71.8994 313.904 71.8723 314.151Z" fill="#263238"/>
<path d="M65.518 283.548C65.5612 283.646 65.5952 283.748 65.6194 283.852C65.687 284.082 65.7681 284.38 65.8627 284.745C66.0723 285.522 66.363 286.651 66.701 288.05C67.377 290.849 68.2828 294.729 69.1751 299.029C70.0674 303.328 70.784 307.249 71.264 310.088C71.5006 311.508 71.6831 312.657 71.8048 313.468C71.8588 313.847 71.8994 314.144 71.9332 314.387C71.944 314.495 71.944 314.604 71.9332 314.712C71.8982 314.608 71.8711 314.502 71.8521 314.394C71.8048 314.157 71.7507 313.86 71.6763 313.481C71.5208 312.664 71.3113 311.521 71.0544 310.135C70.5271 307.303 69.7835 303.375 68.8912 299.096C67.9989 294.817 67.1336 290.917 66.4982 288.111C66.1804 286.759 65.9236 285.603 65.741 284.785C65.6599 284.413 65.5923 284.109 65.545 283.879C65.5232 283.77 65.5141 283.659 65.518 283.548Z" fill="#263238"/>
<path d="M68.7221 305.795C67.9092 303.747 66.621 301.921 64.9637 300.468C63.3065 299.016 61.3277 297.978 59.1905 297.44C58.1022 297.176 56.7502 297.143 56.0877 298.048C55.4252 298.954 55.8917 300.239 56.5068 301.178C57.822 303.11 59.6782 304.611 61.8428 305.493C64.0074 306.374 66.3841 306.597 68.6748 306.133" fill="#455A64"/>
<path d="M60.3802 300.638C60.6091 300.666 60.8352 300.714 61.0562 300.78C61.3238 300.842 61.5878 300.919 61.8471 301.009C62.1446 301.118 62.5231 301.212 62.8679 301.381C63.2126 301.55 63.652 301.712 64.0644 301.942C64.5171 302.172 64.9551 302.429 65.3758 302.713C66.345 303.356 67.2365 304.109 68.0325 304.957C68.813 305.817 69.4934 306.763 70.0605 307.776C70.3104 308.214 70.5361 308.665 70.7365 309.128C70.9096 309.534 71.0608 309.95 71.1894 310.372C71.3246 310.751 71.3787 311.116 71.4598 311.427C71.5246 311.694 71.5742 311.965 71.6086 312.238C71.65 312.461 71.6726 312.687 71.6762 312.914C71.6153 312.914 71.5072 311.927 71.0002 310.406C70.8663 309.994 70.7106 309.591 70.5337 309.196C70.3333 308.733 70.1076 308.282 69.8577 307.844C69.2843 306.853 68.6042 305.928 67.8297 305.086C67.0442 304.256 66.1742 303.511 65.2339 302.862C64.7877 302.578 64.3686 302.301 63.9495 302.091C63.5708 301.876 63.1803 301.681 62.78 301.51C61.3401 300.915 60.3599 300.692 60.3802 300.638Z" fill="#263238"/>
<path d="M81.8637 102.549L79.3625 94.7414C82.92 88.9685 84.1895 82.0736 82.9213 75.4122C81.6532 68.7508 77.9392 62.8046 72.5094 58.7426C67.0797 54.6805 60.3268 52.7964 53.5784 53.4606C46.8299 54.1248 40.574 57.2893 36.0403 62.3319C31.5066 67.3746 29.0232 73.9307 29.078 80.7115C29.1329 87.4924 31.7222 94.0074 36.3369 98.976C40.9516 103.945 47.258 107.007 54.0163 107.562C60.7746 108.117 67.496 106.124 72.8594 101.975L81.8637 102.549Z" fill="#FAFAFA"/>
<path d="M81.8636 102.549H81.2958L79.5787 102.461L72.8187 102.089C72.8084 102.09 72.7981 102.087 72.7886 102.083C72.7791 102.079 72.7706 102.073 72.7636 102.065C72.7566 102.058 72.7513 102.049 72.748 102.039C72.7446 102.029 72.7434 102.019 72.7444 102.008C72.7414 101.995 72.7414 101.981 72.7444 101.968L72.8525 102.076C68.1553 105.745 62.3791 107.762 56.419 107.815C54.9137 107.807 53.4111 107.687 51.9236 107.457C45.0118 106.375 38.7863 102.662 34.5504 97.0938C32.1912 93.9595 30.5294 90.3571 29.6764 86.528C28.7494 82.4567 28.7865 78.2251 29.7846 74.1707C29.913 73.6569 30.0482 73.1364 30.1834 72.6226C30.3186 72.1089 30.5417 71.6086 30.7174 71.1016C30.8887 70.5889 31.0873 70.0857 31.3123 69.5942C31.5422 69.1074 31.7788 68.6207 31.9883 68.1272C32.2209 67.6339 32.4875 67.1573 32.786 66.7009L33.6445 65.2948L34.6315 63.9428L35.1317 63.2668C35.3007 63.0505 35.4968 62.8544 35.6793 62.6449C38.6026 59.2837 42.3111 56.6969 46.475 55.1142C50.439 53.6038 54.6957 53.0188 58.9202 53.404C62.8897 53.7986 66.7234 55.0635 70.1485 57.1084C76.2353 60.7235 80.6749 66.567 82.5261 73.4C82.9171 74.8641 83.1973 76.3555 83.3643 77.8616C83.4726 79.2695 83.4974 80.6826 83.4387 82.0934C83.1797 86.5895 81.7992 90.9493 79.4232 94.7752V94.7143C80.2209 97.2561 80.8293 99.2165 81.2484 100.555C81.4512 101.231 81.6 101.697 81.7081 102.042L81.8568 102.542C81.8568 102.542 81.7892 102.36 81.6743 102.022L81.1808 100.528C80.7482 99.1759 80.106 97.2696 79.2813 94.7616C79.274 94.742 79.274 94.7204 79.2813 94.7008C81.6125 90.8835 82.9576 86.5464 83.1953 82.0799C83.2472 80.6822 83.2156 79.2826 83.1007 77.8887C82.9319 76.3957 82.6494 74.9177 82.2557 73.4676C80.8057 68.2074 77.7983 63.5089 73.6287 59.9896C69.459 56.4702 64.3221 54.2946 58.8931 53.7487C54.7218 53.367 50.5185 53.9427 46.6034 55.432C42.5028 57.0011 38.851 59.5548 35.97 62.868C35.7942 63.0775 35.5982 63.2668 35.4292 63.4831L34.9357 64.1591L33.9622 65.4638L33.124 66.8564C32.8266 67.3111 32.5601 67.7854 32.3263 68.276C32.0965 68.7559 31.8666 69.2426 31.6503 69.7226C31.4298 70.2075 31.2357 70.7039 31.069 71.2098C30.8932 71.71 30.6836 72.2035 30.5349 72.7105C30.3862 73.2175 30.2713 73.7313 30.1428 74.2383C29.1626 78.2304 29.121 82.3954 30.0212 86.4063C31.1925 91.6734 33.919 96.4672 37.8472 100.166C41.7753 103.866 46.7241 106.299 52.052 107.153C53.526 107.384 55.0149 107.508 56.5068 107.525C57.8995 107.519 59.2896 107.403 60.6642 107.18C65.0934 106.458 69.2744 104.649 72.8322 101.914C72.8392 101.906 72.8476 101.9 72.8569 101.896C72.8662 101.892 72.8762 101.89 72.8863 101.89C72.8964 101.89 72.9065 101.892 72.9158 101.896C72.9251 101.9 72.9334 101.906 72.9404 101.914C72.9503 101.928 72.9556 101.944 72.9556 101.961C72.9556 101.978 72.9503 101.995 72.9404 102.008L72.8863 101.887L79.5652 102.346L81.2958 102.468L81.8636 102.549Z" fill="#263238"/>
<path d="M48.6315 80.5386C48.6315 81.0827 48.4702 81.6146 48.1679 82.0671C47.8655 82.5196 47.4358 82.8722 46.9331 83.0804C46.4304 83.2887 45.8772 83.3432 45.3435 83.237C44.8098 83.1308 44.3195 82.8688 43.9347 82.484C43.55 82.0992 43.2879 81.609 43.1818 81.0753C43.0756 80.5416 43.1301 79.9884 43.3383 79.4857C43.5466 78.9829 43.8992 78.5532 44.3517 78.2509C44.8041 77.9486 45.3361 77.7872 45.8802 77.7872C46.6094 77.789 47.3081 78.0795 47.8237 78.595C48.3393 79.1106 48.6298 79.8094 48.6315 80.5386Z" fill="#263238"/>
<path d="M59.6503 80.5386C59.6503 81.0827 59.489 81.6146 59.1867 82.0671C58.8843 82.5196 58.4546 82.8722 57.9519 83.0804C57.4492 83.2887 56.896 83.3432 56.3623 83.237C55.8286 83.1308 55.3383 82.8688 54.9535 82.484C54.5688 82.0992 54.3067 81.609 54.2006 81.0753C54.0944 80.5416 54.1489 79.9884 54.3571 79.4857C54.5654 78.9829 54.918 78.5532 55.3705 78.2509C55.8229 77.9486 56.3549 77.7872 56.899 77.7872C57.6282 77.789 58.3269 78.0795 58.8425 78.595C59.3581 79.1106 59.6486 79.8094 59.6503 80.5386Z" fill="#263238"/>
<path d="M70.642 79.1663C70.9132 79.6376 71.0387 80.1786 71.0027 80.7212C70.9666 81.2637 70.7706 81.7835 70.4394 82.2147C70.1082 82.6459 69.6567 82.9693 69.1418 83.1441C68.6269 83.3189 68.0717 83.3372 67.5464 83.1967C67.0212 83.0561 66.5493 82.7631 66.1904 82.3546C65.8315 81.9461 65.6018 81.4404 65.5301 80.9014C65.4584 80.3624 65.5481 79.8143 65.7878 79.3262C66.0274 78.8381 66.4063 78.4319 66.8766 78.1591C67.1898 77.9773 67.5359 77.8592 67.8948 77.8115C68.2538 77.7637 68.6186 77.7874 68.9684 77.8809C69.3182 77.9745 69.6461 78.1362 69.9333 78.3568C70.2205 78.5774 70.4613 78.8525 70.642 79.1663Z" fill="#263238"/>
<path d="M71.737 202.124L43.2639 199.177L31.2041 171.805L21.8347 174.246C21.8347 174.246 28.757 203.172 36.5039 207.654C44.2509 212.136 70.7163 212.94 70.7163 212.94L71.737 202.124Z" fill="#7541EE"/>
<path d="M86.8738 216.046C91.5068 210.833 91.0368 202.851 85.824 198.218C80.6113 193.585 72.6297 194.055 67.9967 199.268C63.3637 204.481 63.8337 212.462 69.0465 217.095C74.2592 221.728 82.2408 221.258 86.8738 216.046Z" fill="#263238"/>
<path d="M77.4358 220.295C74.5096 220.295 71.674 219.28 69.412 217.424C67.1501 215.568 65.6017 212.984 65.0309 210.114C64.46 207.244 64.9019 204.265 66.2813 201.685C67.6607 199.104 69.8923 197.082 72.5957 195.962C75.2991 194.842 78.3072 194.694 81.1074 195.544C83.9075 196.393 86.3265 198.187 87.9522 200.62C89.5779 203.053 90.3097 205.975 90.0229 208.887C89.7361 211.799 88.4484 214.521 86.3793 216.59C85.2075 217.769 83.8137 218.703 82.2785 219.338C80.7434 219.974 79.0974 220.299 77.4358 220.295ZM77.4358 195.04C74.5175 195.037 71.6884 196.046 69.4306 197.895C67.1728 199.744 65.6259 202.318 65.0536 205.18C64.4813 208.042 64.9188 211.013 66.2918 213.588C67.6648 216.163 69.8881 218.183 72.5831 219.303C75.2781 220.422 78.2779 220.573 81.0715 219.729C83.865 218.885 86.2795 217.098 87.9034 214.673C89.5274 212.248 90.2604 209.336 89.9776 206.431C89.6947 203.527 88.4135 200.81 86.3522 198.744C85.1847 197.568 83.7956 196.635 82.2651 195.999C80.7345 195.363 79.0931 195.037 77.4358 195.04Z" fill="#263238"/>
<path d="M40.7117 209.816C45.7977 208.595 48.9309 203.482 47.7099 198.396C46.4888 193.31 41.3759 190.177 36.2899 191.398C31.2039 192.619 28.0707 197.732 29.2917 202.818C30.5128 207.904 35.6257 211.037 40.7117 209.816Z" fill="#263238"/>
<path d="M31.3088 174.018C34.3316 170.996 34.3316 166.095 31.3088 163.072C28.2861 160.049 23.3853 160.049 20.3626 163.072C17.3398 166.095 17.3398 170.996 20.3626 174.018C23.3853 177.041 28.2861 177.041 31.3088 174.018Z" fill="#263238"/>
<path d="M37.8999 164.356L31.5266 169.738L29.228 167.017L35.6014 161.635C35.937 161.351 36.3714 161.213 36.8091 161.25C37.2468 161.287 37.6519 161.496 37.9353 161.831L38.0923 162.017C38.2337 162.183 38.3409 162.376 38.4078 162.583C38.4746 162.791 38.4998 163.01 38.482 163.227C38.4641 163.444 38.4035 163.656 38.3036 163.85C38.2037 164.044 38.0665 164.216 37.8999 164.356Z" fill="#263238"/>
<path d="M29.8049 154.5V162.612C29.8049 162.675 29.78 162.735 29.7356 162.779C29.6913 162.823 29.6311 162.848 29.5683 162.848H26.4858C26.423 162.848 26.3628 162.823 26.3185 162.779C26.2741 162.735 26.2492 162.675 26.2492 162.612V154.5C26.2492 154.061 26.4237 153.639 26.7343 153.329C27.0449 153.018 27.4661 152.844 27.9054 152.844H28.1487C28.588 152.844 29.0093 153.018 29.3199 153.329C29.6304 153.639 29.8049 154.061 29.8049 154.5Z" fill="#263238"/>
<path d="M24.0649 154.531L25.8359 162.447C25.8496 162.508 25.8384 162.572 25.8048 162.625C25.7712 162.678 25.7179 162.716 25.6567 162.729L22.6485 163.402C22.5872 163.416 22.523 163.405 22.4701 163.371C22.4171 163.338 22.3796 163.284 22.3659 163.223L20.595 155.307C20.4991 154.878 20.5774 154.429 20.8127 154.058C21.048 153.687 21.421 153.425 21.8496 153.329L22.0871 153.276C22.5158 153.18 22.965 153.258 23.3359 153.494C23.7068 153.729 23.969 154.102 24.0649 154.531Z" fill="#263238"/>
<path d="M17.8899 156.514L21.9459 163.54C21.9772 163.594 21.9857 163.659 21.9695 163.719C21.9533 163.78 21.9136 163.831 21.8593 163.863L19.1897 165.404C19.1353 165.435 19.0708 165.444 19.0102 165.428C18.9495 165.411 18.8979 165.372 18.8665 165.317L14.8105 158.292C14.5909 157.912 14.5313 157.46 14.645 157.036C14.7587 156.611 15.0363 156.249 15.4167 156.03L15.6275 155.908C16.0079 155.689 16.4599 155.629 16.8842 155.743C17.3085 155.856 17.6702 156.134 17.8899 156.514Z" fill="#263238"/>
<path d="M195.485 273.03L204.007 269.405L179.415 211.583L170.893 215.208L195.485 273.03Z" fill="#7541EE"/>
<path d="M180.637 217.109C185.145 211.787 184.486 203.819 179.164 199.311C173.843 194.803 165.875 195.462 161.367 200.784C156.859 206.105 157.518 214.073 162.84 218.581C168.161 223.089 176.129 222.43 180.637 217.109Z" fill="#263238"/>
<path d="M171.028 221.62C169.047 221.621 167.093 221.157 165.324 220.265C163.555 219.373 162.02 218.078 160.843 216.485C159.666 214.891 158.879 213.044 158.547 211.091C158.214 209.138 158.344 207.134 158.928 205.24C159.619 203.007 160.916 201.009 162.675 199.469C164.433 197.929 166.584 196.907 168.889 196.516C171.194 196.125 173.562 196.38 175.73 197.255C177.899 198.129 179.782 199.587 181.171 201.467C182.56 203.348 183.4 205.576 183.599 207.906C183.797 210.235 183.346 212.574 182.295 214.662C181.244 216.75 179.634 218.506 177.645 219.734C175.656 220.963 173.366 221.615 171.028 221.62ZM171.028 196.351C168.694 196.353 166.407 197.003 164.42 198.228C162.434 199.453 160.826 201.205 159.776 203.289C158.726 205.373 158.274 207.708 158.472 210.033C158.67 212.359 159.508 214.584 160.895 216.461C162.282 218.338 164.162 219.794 166.327 220.666C168.492 221.538 170.856 221.792 173.157 221.401C175.458 221.009 177.605 219.987 179.359 218.448C181.114 216.909 182.407 214.913 183.095 212.683C184.076 209.487 183.75 206.033 182.188 203.077C180.625 200.121 177.953 197.907 174.759 196.919C173.538 196.541 172.266 196.349 170.987 196.351H171.028Z" fill="#263238"/>
<path d="M196.57 246.702C197.97 241.662 195.02 236.442 189.98 235.041C184.941 233.641 179.72 236.591 178.32 241.63C176.919 246.67 179.869 251.891 184.909 253.291C189.949 254.692 195.169 251.741 196.57 246.702Z" fill="#263238"/>
<path d="M201.725 281.385C206 281.385 209.465 277.92 209.465 273.645C209.465 269.37 206 265.905 201.725 265.905C197.45 265.905 193.985 269.37 193.985 273.645C193.985 277.92 197.45 281.385 201.725 281.385Z" fill="#263238"/>
<path d="M191.602 281.44L195.936 274.328L198.978 276.182L194.644 283.294C194.415 283.669 194.047 283.938 193.62 284.041C193.193 284.145 192.743 284.075 192.368 283.846L192.16 283.719C191.973 283.607 191.811 283.458 191.681 283.283C191.552 283.107 191.459 282.907 191.407 282.695C191.355 282.484 191.346 282.264 191.379 282.048C191.413 281.833 191.488 281.626 191.602 281.44Z" fill="#263238"/>
<path d="M202.393 288.223L199.824 280.528C199.805 280.468 199.809 280.403 199.837 280.347C199.865 280.291 199.914 280.248 199.974 280.229L202.898 279.253C202.957 279.233 203.022 279.237 203.079 279.265C203.135 279.293 203.177 279.343 203.197 279.402L205.766 287.097C205.832 287.304 205.857 287.522 205.839 287.739C205.821 287.956 205.761 288.167 205.661 288.36C205.562 288.553 205.425 288.725 205.259 288.866C205.093 289.006 204.901 289.113 204.694 289.179L204.463 289.256C204.051 289.388 203.604 289.354 203.218 289.161C202.831 288.968 202.535 288.631 202.393 288.223Z" fill="#263238"/>
<path d="M207.834 286.378L203.647 279.43C203.631 279.404 203.621 279.374 203.616 279.343C203.611 279.313 203.613 279.281 203.62 279.251C203.628 279.221 203.641 279.193 203.66 279.168C203.678 279.143 203.701 279.121 203.728 279.105L206.368 277.515C206.395 277.499 206.424 277.488 206.455 277.483C206.486 277.479 206.517 277.48 206.547 277.488C206.577 277.495 206.606 277.508 206.631 277.527C206.656 277.545 206.677 277.568 206.693 277.595L210.879 284.543C211.106 284.92 211.174 285.37 211.068 285.797C210.963 286.223 210.692 286.59 210.316 286.817L210.107 286.942C209.731 287.169 209.28 287.237 208.854 287.131C208.427 287.025 208.06 286.755 207.834 286.378Z" fill="#263238"/>
<path d="M213.06 282.547L206.988 277.168C206.941 277.126 206.912 277.068 206.909 277.005C206.905 276.942 206.926 276.881 206.968 276.834L209.007 274.532C209.049 274.485 209.108 274.456 209.17 274.452C209.233 274.449 209.294 274.47 209.341 274.512L215.413 279.891C215.742 280.182 215.942 280.592 215.968 281.031C215.995 281.469 215.846 281.9 215.555 282.229L215.393 282.411C215.101 282.738 214.692 282.936 214.255 282.961C213.817 282.987 213.388 282.838 213.06 282.547Z" fill="#263238"/>
<path d="M73.6841 194.512C73.6841 194.512 74.5967 283.163 124.344 284.893C174.09 286.624 176.179 195.148 176.179 194.512C176.179 194.512 170.305 181.296 124.932 181.81C79.5585 182.324 73.6841 194.512 73.6841 194.512Z" fill="#7541EE"/>
<path d="M101.616 178.91H143.663C146.408 178.91 148.632 176.686 148.632 173.942V173.218C148.632 170.474 146.408 168.25 143.663 168.25H101.616C98.8722 168.25 96.6477 170.474 96.6477 173.218V173.942C96.6477 176.686 98.8722 178.91 101.616 178.91Z" fill="#263238"/>
<path d="M120.828 100.082H124.458V81.7284H120.828V100.082Z" fill="#263238"/>
<path d="M178.149 154.721C183.881 153.358 187.423 147.608 186.061 141.876C184.698 136.144 178.948 132.602 173.216 133.964C167.484 135.327 163.942 141.078 165.304 146.809C166.667 152.541 172.417 156.083 178.149 154.721Z" fill="#7541EE"/>
<path d="M70.3624 154.028C76.1078 152.725 79.7089 147.011 78.4057 141.265C77.1025 135.52 71.3884 131.919 65.643 133.222C59.8976 134.525 56.2965 140.239 57.5997 145.985C58.9029 151.73 64.617 155.331 70.3624 154.028Z" fill="#7541EE"/>
<path d="M120.531 96.1002C120.531 96.1002 77.1586 95.5796 70.304 133.172C63.4493 170.764 100.116 171.44 110.668 172.15C115.447 172.475 125.682 172.508 134.713 172.346C154.709 172.001 168.838 168.135 173.644 149.585C174.216 147.41 174.576 145.185 174.719 142.94C175.983 122.579 162.24 95.0997 120.531 96.1002Z" fill="#7541EE"/>
<path d="M151.992 153.317L88.9818 154.297C87.4096 154.325 85.8474 154.042 84.3846 153.465C82.9218 152.889 81.5871 152.029 80.4569 150.936C79.3267 149.843 78.4231 148.538 77.798 147.095C77.1729 145.652 76.8384 144.1 76.8138 142.528C76.7869 140.955 77.0703 139.393 77.6478 137.93C78.2253 136.467 79.0854 135.133 80.1791 134.003C81.2729 132.872 82.5786 131.969 84.0218 131.344C85.4649 130.719 87.0172 130.385 88.5897 130.36L151.6 129.38C153.172 129.351 154.735 129.633 156.198 130.209C157.661 130.786 158.996 131.645 160.126 132.739C161.257 133.832 162.16 135.138 162.785 136.581C163.41 138.024 163.744 139.576 163.768 141.149C163.795 142.722 163.513 144.284 162.935 145.748C162.358 147.211 161.498 148.546 160.404 149.676C159.31 150.806 158.004 151.71 156.561 152.335C155.117 152.959 153.564 153.293 151.992 153.317Z" fill="#263238"/>
<path d="M102.076 141.223C101.929 141.968 101.565 142.653 101.029 143.191C100.494 143.729 99.8105 144.096 99.0661 144.246C98.3217 144.396 97.5496 144.322 96.8474 144.033C96.1451 143.744 95.5444 143.253 95.121 142.623C94.6976 141.993 94.4706 141.251 94.4688 140.492C94.4669 139.732 94.6902 138.989 95.1104 138.357C95.5307 137.725 96.129 137.231 96.8298 136.939C97.5306 136.646 98.3023 136.568 99.0475 136.714C99.5424 136.811 100.013 137.005 100.434 137.284C100.854 137.563 101.215 137.923 101.496 138.341C101.777 138.76 101.973 139.23 102.073 139.724C102.172 140.219 102.173 140.728 102.076 141.223Z" fill="white"/>
<path d="M146.077 140.52C145.931 141.266 145.568 141.952 145.033 142.491C144.498 143.03 143.815 143.398 143.07 143.549C142.326 143.7 141.553 143.626 140.85 143.338C140.147 143.049 139.546 142.559 139.122 141.929C138.698 141.298 138.47 140.556 138.468 139.797C138.466 139.037 138.689 138.294 139.11 137.661C139.53 137.028 140.129 136.534 140.83 136.242C141.531 135.949 142.303 135.872 143.048 136.018C144.046 136.214 144.926 136.798 145.494 137.642C146.062 138.487 146.271 139.522 146.077 140.52Z" fill="white"/>
<path d="M139.743 229.718C139.496 233.101 138.251 236.335 136.167 239.01C134.082 241.686 131.251 243.683 128.031 244.75C124.811 245.817 121.347 245.904 118.078 245.002C114.808 244.101 111.879 242.249 109.661 239.683C107.444 237.116 106.037 233.95 105.619 230.584C105.201 227.218 105.79 223.804 107.312 220.773C108.835 217.742 111.222 215.23 114.171 213.555C117.121 211.881 120.501 211.119 123.884 211.365C128.42 211.697 132.639 213.817 135.613 217.259C138.587 220.7 140.072 225.182 139.743 229.718Z" fill="#263238"/>
<path d="M135.099 229.38C134.918 231.846 134.011 234.203 132.491 236.152C130.971 238.102 128.907 239.557 126.56 240.334C124.213 241.111 121.689 241.174 119.306 240.516C116.923 239.858 114.789 238.509 113.173 236.637C111.557 234.766 110.532 232.458 110.228 230.005C109.924 227.551 110.355 225.063 111.465 222.854C112.576 220.646 114.316 218.816 116.466 217.596C118.617 216.376 121.08 215.822 123.546 216.002C125.183 216.121 126.781 216.562 128.248 217.299C129.715 218.036 131.022 219.054 132.095 220.297C133.168 221.539 133.985 222.981 134.501 224.54C135.016 226.098 135.219 227.743 135.099 229.38Z" fill="white"/>
<path d="M129.075 231.652C128.98 230.969 128.942 230.279 128.961 229.59C128.927 228.299 128.9 226.453 128.9 224.182L129.035 224.432L122.606 220.68H122.964L116.475 224.324C116.299 224.621 116.711 223.925 116.671 223.999V224.959V225.926C116.671 226.561 116.671 227.197 116.637 227.819C116.637 229.063 116.59 230.266 116.569 231.429L116.394 231.118L122.748 234.998H122.464C124.445 233.93 126.081 233.078 127.196 232.497C127.796 232.155 128.422 231.861 129.069 231.618C128.565 232.029 128.021 232.389 127.446 232.693C126.351 233.369 124.742 234.322 122.714 235.491L122.572 235.573L122.43 235.491L115.995 231.74L115.819 231.638V231.422C115.819 230.259 115.833 229.056 115.86 227.812C115.86 227.19 115.86 226.561 115.86 225.919V224.959V224.026C115.819 224.101 116.231 223.411 116.056 223.702L122.566 220.092L122.755 219.991L122.931 220.099L129.278 223.979L129.42 224.067V224.229C129.346 226.568 129.271 228.447 129.204 229.725C129.221 230.37 129.178 231.015 129.075 231.652Z" fill="#7541EE"/>
<path d="M126.878 85.5869C129.214 83.2506 129.214 79.4626 126.878 77.1262C124.541 74.7899 120.753 74.7899 118.417 77.1262C116.081 79.4626 116.081 83.2506 118.417 85.5869C120.753 87.9233 124.541 87.9233 126.878 85.5869Z" fill="#7541EE"/>
<path d="M113.088 139.452C113.372 139.486 113.23 140.804 114.068 142.609C114.543 143.645 115.235 144.567 116.096 145.313C117.106 146.202 118.363 146.76 119.699 146.915C121.043 147.002 122.381 146.681 123.539 145.996C124.519 145.426 125.367 144.654 126.027 143.731C127.176 142.129 127.277 140.784 127.561 140.804C127.676 140.804 127.791 141.142 127.791 141.778C127.765 142.683 127.534 143.571 127.115 144.373C126.485 145.587 125.554 146.618 124.411 147.368C122.998 148.364 121.277 148.824 119.555 148.667C117.833 148.51 116.224 147.745 115.015 146.51C114.028 145.566 113.301 144.383 112.906 143.075C112.624 142.203 112.55 141.277 112.689 140.371C112.804 139.743 112.98 139.432 113.088 139.452Z" fill="white"/>
<path d="M170.839 156.967C170.771 156.967 171.548 155.75 172.299 153.621C173.232 150.832 173.822 147.94 174.056 145.009C174.327 142.088 174.395 139.151 174.259 136.221C174.212 135.092 174.158 134.193 174.104 133.517C174.058 133.19 174.047 132.859 174.07 132.53C174.156 132.848 174.213 133.174 174.239 133.503C174.334 134.132 174.428 135.045 174.509 136.207C174.721 139.161 174.687 142.128 174.408 145.076C174.17 148.035 173.54 150.949 172.535 153.743C172.217 154.585 171.833 155.401 171.386 156.183C171.226 156.46 171.043 156.722 170.839 156.967Z" fill="#263238"/>
<path d="M70.3851 131.915C70.3468 132.243 70.2767 132.567 70.1755 132.881C70.0877 133.186 69.993 133.557 69.9051 134.004C69.8173 134.45 69.6821 134.936 69.6009 135.497C69.3639 136.8 69.2059 138.117 69.1277 139.439C69.0368 141.056 69.0594 142.678 69.1953 144.292C69.3464 145.904 69.6084 147.503 69.9795 149.078C70.2899 150.367 70.6782 151.636 71.1422 152.877C71.3247 153.411 71.5343 153.878 71.7033 154.297C71.8723 154.716 72.0345 155.068 72.1697 155.352C72.3239 155.643 72.4506 155.949 72.5483 156.264C72.3559 155.996 72.1885 155.711 72.0481 155.412C71.857 155.075 71.6832 154.727 71.5275 154.371C71.3383 153.966 71.1084 153.499 70.9124 152.965C70.4105 151.727 69.9949 150.455 69.6685 149.159C69.2729 147.569 68.9973 145.951 68.8438 144.319C68.7061 142.689 68.6925 141.051 68.8033 139.418C68.8975 138.084 69.0827 136.759 69.3576 135.45C69.459 134.889 69.6009 134.396 69.7159 133.956C69.8308 133.517 69.9389 133.145 70.0403 132.841C70.13 132.523 70.2453 132.214 70.3851 131.915Z" fill="#263238"/>
<path d="M73.4541 194.438L73.711 194.512L74.4681 194.769L77.3479 195.783L79.4299 196.527C80.1938 196.784 81.0388 197.027 81.9379 197.304C83.7428 197.838 85.7776 198.534 88.0895 199.075L91.6926 200.001C92.9499 200.319 94.2749 200.556 95.6404 200.853C98.3444 201.475 101.312 201.901 104.428 202.401C111.168 203.326 117.96 203.811 124.762 203.855C131.565 203.815 138.358 203.329 145.097 202.401C148.193 201.901 151.14 201.482 153.885 200.853C155.237 200.562 156.589 200.326 157.832 200.008L161.442 199.082C163.747 198.541 165.782 197.845 167.587 197.311C168.486 197.034 169.331 196.79 170.095 196.533L172.177 195.79L175.057 194.776L175.814 194.519C175.899 194.485 175.987 194.46 176.078 194.445L175.828 194.553L175.084 194.843L172.224 195.918L170.095 196.716C169.338 196.98 168.493 197.23 167.594 197.52C165.789 198.075 163.761 198.785 161.449 199.346L157.839 200.292C156.589 200.617 155.257 200.86 153.891 201.164C151.187 201.799 148.213 202.232 145.103 202.746C138.35 203.693 131.541 204.188 124.722 204.226C117.905 204.183 111.098 203.686 104.347 202.739C101.244 202.232 98.2633 201.793 95.5593 201.157C94.2073 200.853 92.8553 200.61 91.6115 200.285L88.0016 199.339C85.6897 198.778 83.6617 198.068 81.8568 197.514C80.9577 197.223 80.1195 196.973 79.3556 196.709L77.2803 195.932L74.4208 194.857L73.6772 194.566C73.5989 194.531 73.5242 194.488 73.4541 194.438Z" fill="#263238"/>
<g opacity="0.3">
<path d="M73.6841 194.512C73.6841 194.512 79.5585 182.344 124.932 181.81C170.305 181.276 176.179 194.512 176.179 194.512C176.179 194.512 130.387 217.084 73.6841 194.512Z" fill="black"/>
</g>
<path d="M115.035 98.9123C114.983 98.9172 114.931 98.9172 114.88 98.9123L114.427 98.9596C114.021 99.0002 113.426 99.0137 112.662 99.1016C110.507 99.3108 108.368 99.6653 106.261 100.163C95.3598 102.659 85.7449 109.048 79.2205 118.131C76.0684 122.496 73.6819 127.365 72.1631 132.53C71.9265 133.26 71.7981 133.841 71.6831 134.227L71.5547 134.673C71.5426 134.724 71.5244 134.774 71.5006 134.821C71.4917 134.77 71.4917 134.717 71.5006 134.666C71.5006 134.544 71.5547 134.396 71.5953 134.213C71.6899 133.821 71.7913 133.233 72.0076 132.489C72.5718 130.389 73.295 128.335 74.1708 126.344C77.0603 119.73 81.4591 113.884 87.0148 109.275C92.5942 104.702 99.1667 101.498 106.206 99.9195C108.326 99.4378 110.48 99.1192 112.649 98.9664C113.419 98.8988 114.001 98.9055 114.42 98.8853H114.88C114.988 98.8988 115.035 98.9055 115.035 98.9123Z" fill="white"/>
<path d="M72.6023 150.951C72.3314 150.532 72.1219 150.077 71.9804 149.599C71.1785 147.34 70.8048 144.951 70.8785 142.555C70.8592 142.057 70.9185 141.56 71.0543 141.081C71.1624 141.081 71.0137 143.339 71.4463 146.07C71.879 148.801 72.7037 150.91 72.6023 150.951Z" fill="white"/>
<path d="M61.2253 147.456C61.2253 147.456 61.0699 147.348 60.8603 147.091C60.5616 146.727 60.3053 146.33 60.0964 145.908C59.3745 144.51 59.0983 142.925 59.305 141.366C59.5117 139.807 60.1913 138.348 61.2524 137.187C61.5632 136.832 61.9149 136.514 62.3002 136.241C62.4325 136.13 62.5836 136.043 62.7463 135.984C62.7869 136.038 62.1785 136.451 61.4417 137.336C60.4746 138.494 59.8558 139.903 59.6572 141.399C59.4586 142.894 59.6882 144.416 60.3195 145.786C60.7927 146.861 61.2727 147.415 61.2253 147.456Z" fill="white"/>
<path d="M123.032 77.1857C122.504 77.1277 121.973 77.1163 121.443 77.1519C120.813 77.2072 120.203 77.4062 119.662 77.7337C119.12 78.0611 118.661 78.5083 118.319 79.0408C117.977 79.5734 117.761 80.1772 117.689 80.806C117.616 81.4347 117.689 82.0717 117.901 82.6681C118.084 83.1627 118.31 83.64 118.577 84.0944C118.577 84.0944 118.442 84.0133 118.253 83.797C117.993 83.4841 117.787 83.1299 117.644 82.7492C117.386 82.1179 117.284 81.4339 117.347 80.7548C117.409 80.0758 117.634 79.4218 118.003 78.8482C118.372 78.2745 118.873 77.7982 119.465 77.4594C120.057 77.1206 120.721 76.9293 121.403 76.9018C121.807 76.8737 122.214 76.9125 122.606 77.0167C122.91 77.064 123.032 77.1654 123.032 77.1857Z" fill="white"/>
<path d="M181.952 139.256C181.878 139.337 180.83 138.33 179.248 137.573C177.666 136.816 176.226 136.593 176.24 136.484C177.342 136.457 178.431 136.723 179.397 137.255C180.413 137.68 181.296 138.371 181.952 139.256Z" fill="white"/>
<path d="M89.2321 257.603C89.2013 257.563 89.1741 257.52 89.151 257.475L88.9279 257.076C88.7251 256.691 88.4547 256.177 88.1032 255.521C87.9274 255.183 87.7381 254.805 87.5218 254.399L86.8864 253.047C86.4267 252.067 85.9129 250.951 85.4059 249.667C85.1491 249.038 84.8787 248.376 84.5947 247.693C84.3108 247.01 84.0675 246.267 83.7903 245.516C83.2089 244.022 82.7155 242.38 82.1409 240.676C81.0795 237.229 80.0385 233.409 79.1259 229.353C78.2133 225.297 77.5508 221.383 77.01 217.821C76.4692 214.258 76.1177 211.061 75.9014 208.316C75.7729 206.964 75.6918 205.734 75.6242 204.652C75.5566 203.571 75.4958 202.624 75.4755 201.881C75.4552 201.137 75.4349 200.562 75.4147 200.13V199.677C75.4074 199.625 75.4074 199.573 75.4147 199.521C75.4224 199.573 75.4224 199.625 75.4147 199.677L75.4552 200.13C75.4552 200.556 75.5296 201.144 75.5769 201.874C75.6242 202.604 75.6918 203.564 75.7865 204.639C75.8811 205.714 75.969 206.944 76.1177 208.296C76.3611 211 76.7937 214.218 77.3007 217.76C77.8077 221.302 78.5445 225.196 79.4369 229.252C80.3292 233.308 81.377 237.12 82.4113 240.561C82.9859 242.265 83.4658 243.901 84.0337 245.395C84.3041 246.152 84.5609 246.875 84.8178 247.571L85.602 249.559C86.0887 250.823 86.5889 251.945 87.0351 252.939L87.6435 254.291C87.8395 254.703 88.0288 255.082 88.1978 255.427L88.9549 257.008L89.1442 257.421C89.1852 257.475 89.215 257.537 89.2321 257.603Z" fill="white"/>
<path d="M62.7802 202.489C61.1309 202.551 59.4793 202.493 57.8386 202.313C56.1902 202.256 54.548 202.082 52.9241 201.793C54.5733 201.73 56.225 201.789 57.8656 201.969C59.514 202.026 61.1563 202.2 62.7802 202.489Z" fill="white"/>
<path d="M37.349 188.056C36.3903 186.66 35.5297 185.199 34.7735 183.683C33.9164 182.223 33.162 180.705 32.5156 179.14C33.4715 180.539 34.3298 182.003 35.0844 183.521C35.9459 184.977 36.7026 186.493 37.349 188.056Z" fill="white"/>
<path d="M113.23 278.918C112.964 278.913 112.699 278.881 112.439 278.823C111.724 278.696 111.017 278.524 110.323 278.309C109.292 277.995 108.285 277.609 107.308 277.153C106.119 276.58 104.975 275.915 103.888 275.166C102.812 274.398 101.8 273.545 100.859 272.617C100.097 271.854 99.3925 271.036 98.7501 270.17C98.31 269.592 97.9102 268.985 97.5536 268.352C97.4077 268.129 97.2875 267.891 97.1953 267.642C97.2494 267.608 97.8172 268.588 98.9462 270.021C99.6098 270.855 100.325 271.645 101.089 272.387C102.96 274.205 105.107 275.716 107.45 276.863C108.407 277.325 109.392 277.729 110.398 278.073C112.128 278.654 113.244 278.85 113.23 278.918Z" fill="white"/>
<path d="M123.6 247.646C123.443 247.673 123.285 247.689 123.127 247.693C122.677 247.731 122.226 247.745 121.775 247.734C120.094 247.697 118.426 247.426 116.819 246.929C115.709 246.584 114.629 246.149 113.588 245.631C112.395 245.018 111.263 244.291 110.208 243.461C107.765 241.584 105.839 239.117 104.611 236.29C103.384 233.464 102.895 230.372 103.191 227.305C103.302 225.974 103.539 224.656 103.901 223.371C104.225 222.255 104.643 221.17 105.152 220.126C105.885 218.612 106.827 217.208 107.95 215.955C108.252 215.613 108.572 215.288 108.91 214.981C109.022 214.869 109.142 214.766 109.269 214.671C109.269 214.671 108.822 215.15 108.052 216.023C106.97 217.295 106.061 218.704 105.348 220.214C104.285 222.439 103.652 224.845 103.482 227.305C103.208 230.318 103.696 233.351 104.901 236.126C106.106 238.9 107.989 241.328 110.377 243.184C111.401 244.008 112.501 244.733 113.663 245.347C114.68 245.884 115.741 246.337 116.833 246.699C118.416 247.213 120.059 247.515 121.72 247.598C122.944 247.646 123.6 247.605 123.6 247.646Z" fill="white"/>
<path d="M41.7564 194.411C41.7564 194.465 41.2359 194.215 40.4044 194.019C39.2918 193.775 38.1385 193.787 37.0309 194.053C35.9234 194.318 34.8904 194.831 34.0095 195.553C33.3335 196.114 33.009 196.561 32.9617 196.527C33.1472 196.079 33.4341 195.681 33.7999 195.364C34.6773 194.559 35.7456 193.991 36.9037 193.714C38.0618 193.438 39.2714 193.461 40.418 193.782C40.9066 193.886 41.3646 194.101 41.7564 194.411Z" fill="white"/>
<path d="M141.582 127.196C141.582 127.291 133.28 127.372 123.046 127.372C112.811 127.372 104.503 127.291 104.503 127.196C104.503 127.102 112.804 127.02 123.046 127.02C133.287 127.02 141.582 127.088 141.582 127.196Z" fill="white"/>
<path d="M109.945 169.466C109.843 169.495 109.739 169.511 109.634 169.514L108.728 169.595C108.336 169.629 107.856 169.656 107.295 169.669C106.734 169.683 106.098 169.71 105.395 169.669C103.982 169.669 102.306 169.568 100.447 169.372C98.4352 169.138 96.4379 168.792 94.4644 168.338C92.4954 167.865 90.5545 167.283 88.6508 166.593C87.0997 166.025 85.5789 165.378 84.0945 164.653C83.4185 164.356 82.898 164.045 82.4045 163.781C81.911 163.518 81.4919 163.281 81.1539 163.105L80.3765 162.632C80.2843 162.581 80.1982 162.52 80.1196 162.45C80.1196 162.45 80.2278 162.45 80.4103 162.571L81.2215 162.984C81.5663 163.173 81.9922 163.396 82.4924 163.66C82.9926 163.923 83.5605 164.194 84.2027 164.478C85.4735 165.072 87.0216 165.708 88.7657 166.337C92.5563 167.696 96.4886 168.621 100.488 169.095C102.326 169.311 103.996 169.433 105.395 169.466C106.071 169.507 106.747 169.466 107.295 169.466C107.842 169.466 108.329 169.466 108.721 169.466H109.627C109.732 169.449 109.84 169.449 109.945 169.466Z" fill="white"/>
<path d="M163.91 199.927C163.86 199.96 163.805 199.985 163.747 200.001L163.261 200.184L161.381 200.86C160.563 201.157 159.563 201.502 158.38 201.847C157.197 202.192 155.865 202.638 154.358 203.016L152.005 203.638C151.187 203.848 150.322 204.024 149.436 204.233C147.665 204.659 145.746 204.997 143.731 205.382C134.957 206.911 126.039 207.457 117.144 207.011C115.116 206.883 113.149 206.782 111.337 206.572C110.431 206.477 109.552 206.41 108.714 206.295L106.301 205.964C104.76 205.781 103.381 205.504 102.171 205.288C100.961 205.071 99.9127 204.869 99.0677 204.673L97.1208 204.24L96.6138 204.118C96.5552 204.109 96.4982 204.09 96.4448 204.064C96.5056 204.059 96.5666 204.059 96.6273 204.064L97.1343 204.152L99.0947 204.524C99.9465 204.693 100.988 204.889 102.204 205.071C103.421 205.254 104.793 205.518 106.335 205.687L108.741 205.991C109.58 206.099 110.458 206.16 111.364 206.248C113.169 206.444 115.116 206.532 117.157 206.653C121.247 206.822 125.743 206.829 130.461 206.552C135.18 206.275 139.634 205.687 143.67 205.024C145.698 204.652 147.605 204.348 149.376 203.915C150.261 203.713 151.126 203.544 151.944 203.341L154.297 202.739C155.804 202.381 157.136 201.962 158.319 201.624C159.502 201.286 160.516 200.948 161.334 200.698L163.234 200.089L163.734 199.941L163.91 199.927Z" fill="white"/>
</svg>
