<svg width="241" height="177" viewBox="0 0 241 177" fill="none" xmlns="http://www.w3.org/2000/svg">
<path d="M105.369 138.065C131.833 138.065 153.286 116.612 153.286 90.1476C153.286 63.6837 131.833 42.2305 105.369 42.2305C78.9054 42.2305 57.4521 63.6837 57.4521 90.1476C57.4521 116.612 78.9054 138.065 105.369 138.065Z" fill="#455A64"/>
<path d="M44.3 46.8838V57.5137C32.0984 57.5137 22.1717 68.1435 22.1717 81.2137V115.544H12.4518V81.2137C12.4518 62.4977 26.7421 47.2768 44.3 47.2768C44.3 46.8838 44.3 46.8838 44.3 46.8838Z" fill="#C7C7C7"/>
<path d="M88.5961 96.0206H0V176.386H88.5961V96.0206Z" fill="#7541EE"/>
<path opacity="0.1" d="M88.5963 96.0206H44.2982V176.386H88.5963V96.0206Z" fill="black"/>
<path d="M48.0427 139.14L51.7652 156.739H36.0065L39.729 139.14C38.2694 138.24 37.1433 136.888 36.5217 135.29C35.9001 133.691 35.8169 131.934 36.2847 130.284C36.7526 128.634 37.7459 127.182 39.114 126.148C40.4821 125.114 42.1502 124.554 43.8652 124.554C45.5801 124.554 47.2482 125.114 48.6163 126.148C49.9844 127.182 50.9778 128.634 51.4456 130.284C51.9135 131.934 51.8303 133.691 51.2087 135.29C50.5871 136.888 49.461 138.24 48.0013 139.14H48.0427Z" fill="white"/>
<path d="M142.996 125.463C143.212 127.977 142.677 130.5 141.459 132.711C140.242 134.922 138.395 136.722 136.154 137.883C133.913 139.045 131.378 139.515 128.869 139.236C126.361 138.956 123.991 137.939 122.061 136.312C120.131 134.686 118.726 132.523 118.025 130.098C117.324 127.674 117.358 125.095 118.122 122.69C118.887 120.284 120.347 118.159 122.32 116.584C124.292 115.009 126.687 114.054 129.202 113.84C130.871 113.695 132.553 113.881 134.15 114.388C135.747 114.894 137.229 115.71 138.51 116.79C139.792 117.869 140.847 119.191 141.617 120.679C142.387 122.167 142.856 123.793 142.996 125.463Z" fill="white"/>
<path d="M142.995 125.462C143.284 128.878 142.243 132.273 140.089 134.94C137.935 137.606 134.835 139.338 131.435 139.773C129.681 139.956 127.909 139.788 126.221 139.278C124.534 138.769 122.964 137.929 121.605 136.806C120.245 135.684 119.123 134.302 118.303 132.741C117.484 131.181 116.983 129.472 116.831 127.716C116.678 125.96 116.877 124.19 117.416 122.512C117.954 120.833 118.822 119.279 119.967 117.939C121.113 116.599 122.514 115.501 124.089 114.708C125.664 113.916 127.381 113.445 129.139 113.323C132.569 113.166 135.927 114.342 138.51 116.605C141.093 118.867 142.7 122.041 142.995 125.462ZM142.995 125.462C142.858 123.816 142.388 122.214 141.615 120.754C140.841 119.294 139.779 118.006 138.494 116.968C137.208 115.93 135.726 115.164 134.136 114.715C132.546 114.266 130.881 114.144 129.243 114.357C126.125 114.799 123.291 116.411 121.318 118.865C119.344 121.319 118.377 124.431 118.613 127.572C118.887 130.718 120.364 133.638 122.737 135.722C125.111 137.806 128.196 138.894 131.352 138.76C133.002 138.688 134.621 138.283 136.11 137.568C137.6 136.853 138.929 135.844 140.017 134.601C141.105 133.358 141.93 131.907 142.442 130.337C142.954 128.766 143.142 127.108 142.995 125.462Z" fill="#263238"/>
<path d="M115.49 148.976C115.607 150.372 115.308 151.772 114.63 152.999C113.952 154.226 112.926 155.225 111.681 155.869C110.436 156.513 109.029 156.774 107.636 156.618C106.243 156.463 104.927 155.899 103.854 154.996C102.782 154.094 102.001 152.894 101.61 151.548C101.218 150.202 101.235 148.771 101.657 147.434C102.078 146.097 102.887 144.916 103.979 144.038C105.072 143.16 106.401 142.626 107.797 142.503C109.675 142.342 111.54 142.934 112.983 144.147C114.425 145.361 115.327 147.098 115.49 148.976Z" fill="white"/>
<path d="M115.491 148.975C115.667 150.913 115.101 152.845 113.907 154.38C112.713 155.916 110.98 156.941 109.059 157.248C107.549 157.481 106.004 157.255 104.623 156.6C103.243 155.945 102.091 154.891 101.316 153.574C100.542 152.257 100.181 150.738 100.279 149.213C100.378 147.688 100.932 146.228 101.87 145.022C102.808 143.816 104.086 142.919 105.54 142.447C106.993 141.976 108.554 141.951 110.022 142.377C111.489 142.803 112.795 143.66 113.77 144.836C114.745 146.013 115.344 147.455 115.491 148.975ZM115.491 148.975C115.403 148.053 115.126 147.158 114.678 146.347C114.229 145.536 113.619 144.826 112.885 144.26C111.866 143.497 110.648 143.045 109.377 142.958C108.107 142.872 106.839 143.155 105.726 143.773C104.613 144.392 103.703 145.319 103.105 146.443C102.507 147.567 102.247 148.84 102.357 150.109C102.467 151.377 102.941 152.587 103.723 153.592C104.505 154.597 105.561 155.354 106.764 155.772C107.966 156.19 109.264 156.251 110.501 155.948C111.738 155.644 112.86 154.99 113.733 154.063C114.358 153.38 114.837 152.577 115.14 151.702C115.442 150.826 115.561 149.899 115.491 148.975Z" fill="#263238"/>
<path d="M238.416 66.1292C239.212 72.6112 238.288 79.1884 235.738 85.2005C233.188 91.2126 229.101 96.448 223.887 100.381C218.674 104.314 212.517 106.807 206.036 107.608C199.555 108.409 192.977 107.492 186.963 104.947C184.038 108.753 180.275 111.834 175.967 113.951C171.659 116.068 166.92 117.164 162.12 117.154C157.32 117.144 152.586 116.029 148.287 113.894C143.988 111.759 140.238 108.662 137.329 104.843C135.979 105.257 134.595 105.548 133.193 105.712C128.324 106.32 123.383 105.502 118.97 103.358C114.557 101.213 110.861 97.8344 108.33 93.6309C105.799 89.4275 104.543 84.58 104.712 79.6764C104.882 74.7728 106.471 70.0237 109.286 66.0051C103.728 59.0295 100.859 50.2902 101.202 41.3777C101.545 32.4652 105.076 23.972 111.153 17.4438C117.231 10.9157 125.45 6.7865 134.315 5.80782C143.18 4.82913 152.102 7.06598 159.457 12.1113C162.905 7.8026 167.432 4.4838 172.579 2.49235C177.725 0.500892 183.307 -0.0921731 188.757 0.773446C194.208 1.63907 199.331 3.93249 203.607 7.42053C207.884 10.9086 211.16 15.4668 213.103 20.6317C214.405 20.1902 215.75 19.8852 217.115 19.7218C221.259 19.2122 225.46 19.9847 229.152 21.9351C232.845 23.8856 235.85 26.9203 237.765 30.6309C239.68 34.3415 240.413 38.5497 239.863 42.689C239.314 46.8284 237.51 50.7 234.694 53.7829C236.66 57.6438 237.92 61.8249 238.416 66.1292Z" fill="white"/>
<path d="M238.417 66.1291C239.188 72.6087 238.269 79.1776 235.749 85.1967C234.466 88.1925 232.82 91.0194 230.847 93.6137C228.834 96.1648 226.506 98.4509 223.919 100.418C218.695 104.384 212.525 106.915 206.02 107.76C199.516 108.606 192.903 107.736 186.839 105.236H187.191C184.232 109.122 180.419 112.274 176.046 114.448C171.673 116.623 166.859 117.761 161.975 117.775C157.092 117.789 152.27 116.678 147.885 114.529C143.5 112.38 139.669 109.25 136.688 105.381L137.433 105.629C134.859 106.407 132.18 106.776 129.491 106.725C126.796 106.721 124.12 106.274 121.571 105.402C116.411 103.674 111.916 100.386 108.707 95.992C107.147 93.7817 105.914 91.3578 105.047 88.7951C104.216 86.2208 103.77 83.5378 103.723 80.833C103.673 75.3699 105.328 70.0272 108.459 65.55V66.6254C102.813 59.4715 99.917 50.5312 100.296 41.4254C100.676 32.3196 104.305 23.6512 110.527 16.9918C116.764 10.365 125.145 6.15977 134.186 5.12107C143.206 4.1541 152.274 6.4505 159.747 11.5941L158.837 11.7389C162.38 7.37149 167.02 4.02431 172.282 2.04018C177.544 0.0560557 183.239 -0.493704 188.783 0.447226C194.282 1.36157 199.442 3.71141 203.741 7.25922C208.041 10.807 211.327 15.427 213.269 20.6523L213 20.5282C217.338 19.1239 222.017 19.182 226.318 20.6936C229.515 21.8274 232.382 23.7354 234.662 26.2473C236.941 28.7591 238.563 31.7966 239.382 35.0883C240.202 38.38 240.193 41.8233 239.357 45.1108C238.521 48.3982 236.883 51.4273 234.591 53.9275C236.577 57.7367 237.872 61.8678 238.417 66.1291ZM238.417 66.1291C237.907 61.8001 236.625 57.5975 234.632 53.7207C236.893 51.2302 238.501 48.2174 239.312 44.9525C240.122 41.6875 240.11 38.2725 239.276 35.0136C238.441 31.7547 236.812 28.7537 234.532 26.2797C232.253 23.8057 229.395 21.9361 226.215 20.8384C221.98 19.3809 217.38 19.3809 213.145 20.8384H212.938V20.6316C210.965 15.5407 207.684 11.0607 203.425 7.64411C199.191 4.21043 194.113 1.9751 188.721 1.17105C183.363 0.343536 177.881 0.954968 172.838 2.94271C167.794 4.93045 163.369 8.22307 160.016 12.4834L159.644 12.9797L159.106 12.6075C151.879 7.79547 143.176 5.71082 134.553 6.72619C125.93 7.74156 117.949 11.7908 112.037 18.1499C106.191 24.5205 102.791 32.7556 102.439 41.3946C102.087 50.0336 104.806 58.5181 110.114 65.3432L110.548 65.9016L110.134 66.5013C107.21 70.6357 105.655 75.5828 105.688 80.6469C105.706 83.1668 106.103 85.6697 106.867 88.0713C107.658 90.4636 108.793 92.7278 110.238 94.7925C113.216 98.9078 117.379 102.017 122.17 103.706C124.562 104.556 127.077 105.01 129.615 105.05C132.152 105.144 134.686 104.83 137.123 104.12L137.578 103.975L137.888 104.368C140.725 108.118 144.373 111.179 148.559 113.322C154.941 116.548 162.246 117.454 169.222 115.884C176.199 114.314 182.412 110.367 186.798 104.719L186.942 104.533H187.149C193.112 107.111 199.652 108.06 206.102 107.283C212.551 106.505 218.678 104.029 223.857 100.107C226.445 98.1575 228.779 95.8927 230.806 93.3655C232.778 90.8194 234.431 88.0413 235.728 85.0933C238.243 79.109 239.169 72.5765 238.417 66.1291Z" fill="#263238"/>
<path d="M134.909 54.1156C134.909 54.1156 141.534 52.977 144.794 54.1156C148.054 55.2542 161.849 78.699 161.849 78.699C161.849 78.699 188.607 42.031 210 26C210 26 182.242 50.7645 166.148 92.3364C166.148 92.3364 160.732 94.7171 156.9 90.4603C155.796 89.1664 143.365 68.0635 140.962 67.2742C139.079 66.6403 133 66.9508 133 66.9508L134.909 54.1156Z" fill="#7541EE"/>
</svg>
