<svg width="161" height="181" viewBox="0 0 161 181" fill="none" xmlns="http://www.w3.org/2000/svg">
<path d="M49.1598 144.332C49.4082 147.225 48.7929 150.127 47.3919 152.67C45.9908 155.213 43.8669 157.284 41.2888 158.62C38.7106 159.956 35.7942 160.498 32.9083 160.176C30.0224 159.854 27.2967 158.684 25.0761 156.813C22.8555 154.942 21.2397 152.454 20.4331 149.665C19.6265 146.875 19.6654 143.909 20.5448 141.142C21.4242 138.374 23.1047 135.93 25.3736 134.118C27.6424 132.306 30.3978 131.207 33.2912 130.961C35.2115 130.795 37.1458 131.009 38.9832 131.591C40.8207 132.173 42.5253 133.112 43.9993 134.354C45.4733 135.596 46.6879 137.117 47.5734 138.829C48.4589 140.541 48.998 142.411 49.1598 144.332Z" fill="white"/>
<path d="M49.1585 144.331C49.491 148.26 48.2933 152.166 45.8153 155.234C43.3374 158.301 39.7707 160.293 35.8593 160.794C33.8422 161.005 31.8034 160.811 29.8619 160.225C27.9204 159.639 26.115 158.672 24.5511 157.381C22.9872 156.09 21.6961 154.5 20.7532 152.705C19.8102 150.909 19.2343 148.944 19.0589 146.924C18.8836 144.903 19.1123 142.868 19.7319 140.937C20.3514 139.006 21.3493 137.217 22.6674 135.676C23.9855 134.135 25.5973 132.871 27.4088 131.96C29.2204 131.048 31.1954 130.506 33.2185 130.366C37.1645 130.185 41.0274 131.538 43.9985 134.141C46.9696 136.744 48.8186 140.396 49.1585 144.331ZM49.1585 144.331C49.0006 142.437 48.4603 140.594 47.5703 138.915C46.6803 137.236 45.4589 135.754 43.9802 134.56C42.5014 133.366 40.7958 132.484 38.9666 131.967C37.1373 131.451 35.2224 131.311 33.3375 131.555C29.7505 132.064 26.4913 133.918 24.2206 136.741C21.9499 139.564 20.8375 143.145 21.1089 146.758C21.4242 150.378 23.124 153.736 25.854 156.134C28.5841 158.531 32.134 159.783 35.7641 159.629C37.6628 159.546 39.525 159.08 41.2383 158.257C42.9515 157.435 44.4803 156.274 45.7323 154.844C46.9842 153.414 47.9332 151.745 48.5221 149.938C49.111 148.132 49.3275 146.224 49.1585 144.331Z" fill="#263238"/>
<path d="M17.5167 171.381C17.6514 172.988 17.3072 174.599 16.5274 176.01C15.7475 177.421 14.5671 178.57 13.135 179.311C11.703 180.052 10.0835 180.352 8.48107 180.174C6.87859 179.995 5.36493 179.346 4.13116 178.308C2.89739 177.269 1.99879 175.889 1.54881 174.341C1.09883 172.792 1.11766 171.146 1.60286 169.608C2.08807 168.07 3.01792 166.711 4.27506 165.701C5.53221 164.691 7.06029 164.077 8.66643 163.935C10.8272 163.75 12.9729 164.431 14.6323 165.827C16.2917 167.223 17.3291 169.221 17.5167 171.381Z" fill="white"/>
<path d="M17.5174 171.381C17.7203 173.609 17.0691 175.832 15.6955 177.599C14.3218 179.365 12.3284 180.544 10.1184 180.897C8.3813 181.165 6.60363 180.906 5.0156 180.152C3.42756 179.399 2.10226 178.186 1.21131 176.671C0.320358 175.156 -0.0952212 173.408 0.0183483 171.654C0.131918 169.9 0.769438 168.22 1.84834 166.833C2.92724 165.445 4.39783 164.413 6.06977 163.871C7.74172 163.328 9.538 163.3 11.2261 163.79C12.9141 164.28 14.4162 165.266 15.5379 166.619C16.6596 167.972 17.3492 169.631 17.5174 171.381ZM17.5174 171.381C17.4161 170.319 17.0978 169.29 16.5821 168.357C16.0664 167.424 15.3645 166.607 14.5198 165.956C13.3475 165.078 11.9461 164.558 10.4848 164.459C9.02347 164.359 7.5646 164.685 6.28421 165.396C5.00382 166.108 3.95662 167.174 3.26895 168.468C2.58129 169.761 2.28255 171.225 2.40877 172.685C2.535 174.144 3.08078 175.535 3.98029 176.691C4.87981 177.847 6.0946 178.718 7.47812 179.199C8.86163 179.68 10.3547 179.75 11.7773 179.402C13.1999 179.053 14.4911 178.3 15.4952 177.233C16.215 176.448 16.7658 175.524 17.1137 174.517C17.4615 173.51 17.599 172.443 17.5174 171.381Z" fill="#263238"/>
<path d="M158.882 75.6301C159.797 83.0869 158.735 90.6533 155.801 97.5696C152.867 104.486 148.165 110.509 142.168 115.033C136.171 119.558 129.088 122.425 121.632 123.347C114.176 124.269 106.609 123.213 99.6899 120.286C96.325 124.664 91.9966 128.209 87.0404 130.644C82.0842 133.08 76.6336 134.341 71.1114 134.329C65.5891 134.318 60.1438 133.034 55.1978 130.578C50.2518 128.122 45.9382 124.559 42.5915 120.167C41.0388 120.643 39.4463 120.977 37.8334 121.166C32.2324 121.865 26.5488 120.924 21.472 118.458C16.3951 115.991 12.1431 112.104 9.23164 107.268C6.32017 102.432 4.87435 96.8558 5.06948 91.2147C5.26462 85.5736 7.09233 80.1103 10.331 75.4873C3.93716 67.4626 0.637101 57.4089 1.03141 47.156C1.42572 36.9031 5.48819 27.1326 12.4794 19.6226C19.4707 12.1126 28.926 7.36243 39.1245 6.23655C49.323 5.11067 59.5868 7.68394 68.0479 13.488C72.0143 8.53134 77.2225 4.71341 83.143 2.42245C89.0635 0.131485 95.4851 -0.550775 101.755 0.445031C108.025 1.44084 113.919 4.07918 118.838 8.09181C123.757 12.1044 127.526 17.3482 129.762 23.2899C131.26 22.7819 132.807 22.4311 134.377 22.2431C139.145 21.6569 143.978 22.5456 148.225 24.7893C152.472 27.0331 155.93 30.5243 158.133 34.793C160.336 39.0616 161.179 43.9027 160.547 48.6646C159.915 53.4264 157.839 57.8804 154.6 61.4269C156.861 65.8685 158.312 70.6784 158.882 75.6301Z" fill="white"/>
<path d="M158.931 76.0746C159.818 83.5287 158.761 91.0856 155.862 98.0099C154.386 101.456 152.492 104.708 150.223 107.693C147.908 110.628 145.23 113.258 142.254 115.52C136.244 120.083 129.145 122.995 121.662 123.967C114.18 124.94 106.573 123.939 99.5963 121.063H100.001C96.5975 125.533 92.2106 129.159 87.1802 131.661C82.1498 134.162 76.611 135.472 70.993 135.488C65.3751 135.504 59.8288 134.226 54.7842 131.754C49.7395 129.281 45.332 125.68 41.9031 121.23L42.7596 121.515C39.7988 122.41 36.7163 122.835 33.6239 122.776C30.5236 122.772 27.4452 122.258 24.5119 121.254C18.5764 119.267 13.4052 115.484 9.71394 110.429C7.9191 107.886 6.50079 105.098 5.50293 102.15C4.54672 99.1881 4.03364 96.1016 3.98031 92.99C3.92205 86.7053 5.82666 80.5591 9.42846 75.4085V76.6456C2.93305 68.4158 -0.398431 58.1309 0.0380377 47.6556C0.474506 37.1804 4.65002 27.2083 11.8076 19.5473C18.9824 11.9239 28.6241 7.08618 39.0244 5.89126C49.4013 4.77886 59.8334 7.42063 68.4301 13.3378L67.3833 13.5044C71.4588 8.48014 76.7966 4.62956 82.8499 2.34702C88.9032 0.0644863 95.4545 -0.567956 101.833 0.514488C108.158 1.56634 114.094 4.26959 119.04 8.35098C123.987 12.4324 127.768 17.7472 130.001 23.7583L129.692 23.6155C134.682 22 140.065 22.0669 145.013 23.8059C148.691 25.1101 151.989 27.3051 154.611 30.1948C157.234 33.0844 159.1 36.5787 160.042 40.3654C160.985 44.1522 160.975 48.1134 160.013 51.8953C159.051 55.6771 157.167 59.1618 154.53 62.038C156.815 66.4201 158.305 71.1725 158.931 76.0746ZM158.931 76.0746C158.344 71.0946 156.87 66.2599 154.577 61.8001C157.179 58.935 159.029 55.4691 159.961 51.7132C160.893 47.9572 160.879 44.0286 159.919 40.2795C158.96 36.5304 157.085 33.0781 154.462 30.2321C151.84 27.386 148.552 25.2352 144.894 23.9724C140.023 22.2957 134.73 22.2957 129.858 23.9724H129.62V23.7345C127.351 17.878 123.576 12.7242 118.677 8.79376C113.806 4.84366 107.964 2.27215 101.761 1.34717C95.5976 0.395203 89.2917 1.09859 83.4892 3.38528C77.6868 5.67197 72.5964 9.45979 68.7394 14.3608L68.3111 14.9318L67.6926 14.5036C59.3784 8.96788 49.3663 6.5697 39.4464 7.73778C29.5264 8.90586 20.3453 13.564 13.5443 20.8796C6.8195 28.2083 2.90769 37.6819 2.50266 47.6202C2.09764 57.5584 5.22557 67.319 11.3317 75.1706L11.8313 75.8129L11.3555 76.5029C7.99096 81.259 6.20203 86.9502 6.24044 92.7759C6.26127 95.6748 6.71844 98.5541 7.59655 101.317C8.5067 104.069 9.81309 106.674 11.4745 109.049C14.9013 113.783 19.6899 117.36 25.2019 119.303C27.9536 120.281 30.8466 120.803 33.7666 120.849C36.6841 120.958 39.6 120.596 42.4028 119.779L42.9261 119.612L43.283 120.064C46.5472 124.379 50.7437 127.9 55.5592 130.366C62.9009 134.076 71.3047 135.118 79.3303 133.313C87.3559 131.507 94.5036 126.966 99.5487 120.469L99.7152 120.255H99.9531C106.813 123.221 114.336 124.312 121.756 123.418C129.175 122.523 136.224 119.675 142.182 115.163C145.159 112.92 147.844 110.315 150.176 107.407C152.445 104.478 154.346 101.282 155.838 97.891C158.731 91.0067 159.796 83.4918 158.931 76.0746Z" fill="#263238"/>
</svg>
