<svg width="23" height="25" viewBox="0 0 23 25" fill="none" xmlns="http://www.w3.org/2000/svg">
<g clip-path="url(#clip0_117_405)">
<path d="M22.9889 12.7339C22.9889 11.7097 22.9107 10.9622 22.7413 10.1871H11.729V14.81H18.193C18.0627 15.9589 17.359 17.689 15.7951 18.8516L15.7731 19.0064L19.255 21.8712L19.4963 21.8968C21.7117 19.7237 22.9889 16.5264 22.9889 12.7339Z" fill="#4285F4"/>
<path d="M11.729 24.9141C14.8958 24.9141 17.5544 23.8068 19.4963 21.8967L15.7951 18.8516C14.8046 19.5852 13.4753 20.0973 11.729 20.0973C8.62733 20.0973 5.99482 17.9243 5.0564 14.9208L4.91885 14.9332L1.29832 17.909L1.25098 18.0488C3.17974 22.1181 7.14158 24.9141 11.729 24.9141Z" fill="#34A853"/>
<path d="M5.0565 14.9208C4.80889 14.1457 4.66559 13.3152 4.66559 12.457C4.66559 11.5988 4.80889 10.7684 5.04347 9.99331L5.03691 9.82823L1.37102 6.80457L1.25107 6.86516C0.456137 8.5538 0 10.4501 0 12.457C0 14.464 0.456137 16.3602 1.25107 18.0488L5.0565 14.9208Z" fill="#FBBC05"/>
<path d="M11.729 4.8167C13.9314 4.8167 15.4171 5.8271 16.2642 6.67147L19.5744 3.23884C17.5414 1.23187 14.8958 0 11.729 0C7.14158 0 3.17974 2.7959 1.25098 6.86517L5.04337 9.99332C5.99482 6.98979 8.62733 4.8167 11.729 4.8167Z" fill="#EB4335"/>
</g>
<defs>
<clipPath id="clip0_117_405">
<rect width="23" height="25" fill="white"/>
</clipPath>
</defs>
</svg>
