<svg width="30" height="30" viewBox="0 0 30 30" fill="none" xmlns="http://www.w3.org/2000/svg">
<path fill-rule="evenodd" clip-rule="evenodd" d="M5.4166 9.95401C4.36505 10.7719 3.75 12.0294 3.75 13.3616V25.0003C3.75 25.6633 4.01339 26.2992 4.48223 26.768C4.95107 27.2369 5.58696 27.5003 6.25 27.5003H10.7143V19.2863C10.7143 16.9194 12.6331 15.0006 15 15.0006C17.3669 15.0006 19.2857 16.9194 19.2857 19.2863V27.5003H23.75C24.413 27.5003 25.0489 27.2369 25.5178 26.768C25.9866 26.2992 26.25 25.6633 26.25 25.0003V13.3616C26.25 12.0294 25.6349 10.7719 24.5834 9.95401L17.6503 4.56164C16.0915 3.34916 13.9085 3.34916 12.3496 4.56164L5.4166 9.95401Z" fill="#7541EE"/>
<path d="M5.4166 9.95401L4.91966 9.31509H4.91966L5.4166 9.95401ZM4.48223 26.768L5.05459 26.1957L5.05458 26.1957L4.48223 26.768ZM10.7143 27.5003V28.3097C11.1613 28.3097 11.5237 27.9473 11.5237 27.5003H10.7143ZM19.2857 27.5003H18.4763C18.4763 27.9473 18.8387 28.3097 19.2857 28.3097V27.5003ZM24.5834 9.95401L24.0865 10.5929V10.5929L24.5834 9.95401ZM17.6503 4.56164L18.1473 3.92272V3.92272L17.6503 4.56164ZM12.3496 4.56164L11.8527 3.92271V3.92271L12.3496 4.56164ZM4.55943 13.3616C4.55943 12.2792 5.05915 11.2575 5.91354 10.5929L4.91966 9.31509C3.67094 10.2863 2.94057 11.7797 2.94057 13.3616H4.55943ZM4.55943 25.0003V13.3616H2.94057V25.0003H4.55943ZM5.05458 26.1957C4.73754 25.8786 4.55943 25.4486 4.55943 25.0003H2.94057C2.94057 25.878 3.28924 26.7197 3.90988 27.3404L5.05458 26.1957ZM6.25 26.6908C5.80163 26.6908 5.37163 26.5127 5.05459 26.1957L3.90988 27.3404C4.53052 27.961 5.37228 28.3097 6.25 28.3097V26.6908ZM10.7143 26.6908H6.25V28.3097H10.7143V26.6908ZM11.5237 27.5003V19.2863H9.90485V27.5003H11.5237ZM11.5237 19.2863C11.5237 17.3664 13.0801 15.81 15 15.81V14.1912C12.186 14.1912 9.90485 16.4724 9.90485 19.2863H11.5237ZM15 15.81C16.9199 15.81 18.4763 17.3664 18.4763 19.2863H20.0951C20.0951 16.4724 17.814 14.1912 15 14.1912V15.81ZM18.4763 19.2863V27.5003H20.0951V19.2863H18.4763ZM23.75 26.6908H19.2857V28.3097H23.75V26.6908ZM24.9454 26.1957C24.6284 26.5127 24.1984 26.6908 23.75 26.6908V28.3097C24.6277 28.3097 25.4695 27.961 26.0901 27.3404L24.9454 26.1957ZM25.4406 25.0003C25.4406 25.4486 25.2625 25.8786 24.9454 26.1957L26.0901 27.3404C26.7108 26.7197 27.0594 25.878 27.0594 25.0003H25.4406ZM25.4406 13.3616V25.0003H27.0594V13.3616H25.4406ZM24.0865 10.5929C24.9408 11.2575 25.4406 12.2792 25.4406 13.3616H27.0594C27.0594 11.7797 26.3291 10.2863 25.0803 9.31509L24.0865 10.5929ZM17.1534 5.20056L24.0865 10.5929L25.0803 9.31509L18.1473 3.92272L17.1534 5.20056ZM12.8466 5.20056C14.1132 4.21543 15.8868 4.21543 17.1534 5.20056L18.1473 3.92272C16.2961 2.4829 13.7039 2.4829 11.8527 3.92271L12.8466 5.20056ZM5.91354 10.5929L12.8466 5.20056L11.8527 3.92271L4.91966 9.31509L5.91354 10.5929Z" fill="#7541EE"/>
</svg>
