<svg width="30" height="30" viewBox="0 0 30 30" fill="none" xmlns="http://www.w3.org/2000/svg">
<path d="M5.4166 9.95407L4.91966 9.31515H4.91966L5.4166 9.95407ZM4.48223 26.7681L5.05459 26.1957L5.05458 26.1957L4.48223 26.7681ZM10.7139 27.5003V28.3097C11.1609 28.3097 11.5233 27.9474 11.5233 27.5003H10.7139ZM19.2853 27.5003H18.4759C18.4759 27.9474 18.8383 28.3097 19.2853 28.3097V27.5003ZM24.5834 9.95407L24.0865 10.593V10.593L24.5834 9.95407ZM17.6503 4.5617L18.1473 3.92278V3.92278L17.6503 4.5617ZM12.3496 4.5617L11.8527 3.92278V3.92278L12.3496 4.5617ZM4.55943 13.3617C4.55943 12.2793 5.05915 11.2575 5.91354 10.593L4.91966 9.31515C3.67094 10.2864 2.94057 11.7797 2.94057 13.3617H4.55943ZM4.55943 25.0003V13.3617H2.94057V25.0003H4.55943ZM5.05458 26.1957C4.73754 25.8787 4.55943 25.4487 4.55943 25.0003H2.94057C2.94057 25.878 3.28924 26.7198 3.90988 27.3404L5.05458 26.1957ZM6.25 26.6909C5.80163 26.6909 5.37163 26.5128 5.05459 26.1957L3.90988 27.3404C4.53052 27.9611 5.37228 28.3097 6.25 28.3097V26.6909ZM10.7139 26.6909H6.25V28.3097H10.7139V26.6909ZM11.5233 27.5003V19.2864H9.90444V27.5003H11.5233ZM11.5233 19.2864C11.5233 17.3665 13.0797 15.8101 14.9996 15.8101V14.1912C12.1856 14.1912 9.90444 16.4724 9.90444 19.2864H11.5233ZM14.9996 15.8101C16.9195 15.8101 18.4759 17.3665 18.4759 19.2864H20.0947C20.0947 16.4724 17.8135 14.1912 14.9996 14.1912V15.8101ZM18.4759 19.2864V27.5003H20.0947V19.2864H18.4759ZM23.75 26.6909H19.2853V28.3097H23.75V26.6909ZM24.9454 26.1957C24.6284 26.5128 24.1984 26.6909 23.75 26.6909V28.3097C24.6277 28.3097 25.4695 27.9611 26.0901 27.3404L24.9454 26.1957ZM25.4406 25.0003C25.4406 25.4487 25.2625 25.8787 24.9454 26.1957L26.0901 27.3404C26.7108 26.7198 27.0594 25.878 27.0594 25.0003H25.4406ZM25.4406 13.3617V25.0003H27.0594V13.3617H25.4406ZM24.0865 10.593C24.9408 11.2575 25.4406 12.2793 25.4406 13.3617H27.0594C27.0594 11.7797 26.3291 10.2864 25.0803 9.31515L24.0865 10.593ZM17.1534 5.20062L24.0865 10.593L25.0803 9.31515L18.1473 3.92278L17.1534 5.20062ZM12.8466 5.20062C14.1132 4.21549 15.8868 4.21549 17.1534 5.20062L18.1473 3.92278C16.2961 2.48296 13.7039 2.48296 11.8527 3.92278L12.8466 5.20062ZM5.91354 10.593L12.8466 5.20062L11.8527 3.92278L4.91966 9.31515L5.91354 10.593Z" fill="#7541EE"/>
</svg>
