<svg width="17" height="11" viewBox="0 0 17 11" fill="none" xmlns="http://www.w3.org/2000/svg">
<path d="M15.677 1.72631H7.40951C7.18604 1.71826 6.97441 1.62383 6.81915 1.46289C6.6639 1.30195 6.57715 1.08705 6.57715 0.863434C6.57715 0.639817 6.6639 0.424921 6.81915 0.26398C6.97441 0.103039 7.18604 0.00860607 7.40951 0.000559211H15.677C15.7929 -0.00361516 15.9085 0.0156153 16.0169 0.0570989C16.1252 0.0985826 16.224 0.161468 16.3075 0.242006C16.391 0.322543 16.4574 0.419079 16.5028 0.525848C16.5481 0.632617 16.5715 0.747431 16.5715 0.863434C16.5715 0.979438 16.5481 1.09425 16.5028 1.20102C16.4574 1.30779 16.391 1.40433 16.3075 1.48486C16.224 1.5654 16.1252 1.62829 16.0169 1.66977C15.9085 1.71126 15.7929 1.73048 15.677 1.72631Z" fill="white"/>
<path d="M4.5769 1.72631H0.832364C0.608892 1.71826 0.397257 1.62383 0.242006 1.46289C0.0867561 1.30195 0 1.08705 0 0.863434C0 0.639817 0.0867561 0.424921 0.242006 0.26398C0.397257 0.103039 0.608892 0.00860607 0.832364 0.000559211H4.5769C4.69283 -0.00361516 4.80841 0.0156153 4.91674 0.0570989C5.02507 0.0985826 5.12393 0.161468 5.20742 0.242006C5.29091 0.322543 5.35732 0.419079 5.40267 0.525848C5.44803 0.632617 5.4714 0.747431 5.4714 0.863434C5.4714 0.979438 5.44803 1.09425 5.40267 1.20102C5.35732 1.30779 5.29091 1.40433 5.20742 1.48486C5.12393 1.5654 5.02507 1.62829 4.91674 1.66977C4.80841 1.71126 4.69283 1.73048 4.5769 1.72631Z" fill="white"/>
<path d="M15.6783 6.72631H1.71127C1.4878 6.71826 1.27616 6.62383 1.12091 6.46289C0.965662 6.30195 0.878906 6.08705 0.878906 5.86343C0.878906 5.63982 0.965662 5.42492 1.12091 5.26398C1.27616 5.10304 1.4878 5.00861 1.71127 5.00056H15.6783C15.7943 4.99638 15.9098 5.01561 16.0182 5.0571C16.1265 5.09858 16.2254 5.16147 16.3089 5.24201C16.3923 5.32254 16.4588 5.41908 16.5041 5.52585C16.5495 5.63262 16.5728 5.74743 16.5728 5.86343C16.5728 5.97944 16.5495 6.09425 16.5041 6.20102C16.4588 6.30779 16.3923 6.40433 16.3089 6.48486C16.2254 6.5654 16.1265 6.62829 16.0182 6.66977C15.9098 6.71125 15.7943 6.73048 15.6783 6.72631Z" fill="white"/>
<path d="M15.6766 10.7263H9.20639C8.98292 10.7183 8.77128 10.6238 8.61603 10.4629C8.46078 10.3019 8.37402 10.0871 8.37402 9.86343C8.37402 9.63982 8.46078 9.42492 8.61603 9.26398C8.77128 9.10304 8.98292 9.00861 9.20639 9.00056H15.6766C15.7925 8.99638 15.9081 9.01562 16.0164 9.0571C16.1247 9.09858 16.2236 9.16147 16.3071 9.24201C16.3906 9.32254 16.457 9.41908 16.5023 9.52585C16.5477 9.63262 16.5711 9.74743 16.5711 9.86343C16.5711 9.97944 16.5477 10.0943 16.5023 10.201C16.457 10.3078 16.3906 10.4043 16.3071 10.4849C16.2236 10.5654 16.1247 10.6283 16.0164 10.6698C15.9081 10.7113 15.7925 10.7305 15.6766 10.7263Z" fill="white"/>
</svg>
