<svg width="34" height="14" viewBox="0 0 34 14" fill="none" xmlns="http://www.w3.org/2000/svg">
<path d="M-34.6302 13.198C-35.0622 13.198 -35.4882 13.156 -35.9082 13.072C-36.3282 12.988 -36.7242 12.88 -37.0962 12.748C-37.4682 12.604 -37.8102 12.442 -38.1222 12.262C-38.4342 12.07 -38.7042 11.872 -38.9322 11.668C-39.0162 11.584 -39.0222 11.494 -38.9502 11.398L-38.1582 10.462C-38.0862 10.378 -38.0022 10.372 -37.9062 10.444C-37.5102 10.756 -37.0182 11.044 -36.4302 11.308C-35.8422 11.572 -35.1942 11.704 -34.4862 11.704C-33.6342 11.704 -32.9742 11.512 -32.5062 11.128C-32.0262 10.744 -31.7862 10.24 -31.7862 9.61601C-31.7862 9.35201 -31.8282 9.11201 -31.9122 8.89601C-31.9962 8.68001 -32.1402 8.48801 -32.3442 8.32001C-32.5362 8.15201 -32.7942 8.00801 -33.1182 7.88801C-33.4422 7.76801 -33.8502 7.67801 -34.3422 7.61801L-34.9542 7.52801C-37.3542 7.20401 -38.5542 6.07601 -38.5542 4.14401C-38.5542 3.60401 -38.4642 3.11201 -38.2842 2.66801C-38.0922 2.22401 -37.8222 1.84601 -37.4742 1.53401C-37.1262 1.22201 -36.7062 0.982012 -36.2142 0.814012C-35.7222 0.646012 -35.1702 0.562012 -34.5582 0.562012C-33.8382 0.562012 -33.1542 0.670012 -32.5062 0.886012C-31.8462 1.09001 -31.2882 1.36001 -30.8322 1.69601C-30.7362 1.76801 -30.7242 1.85201 -30.7962 1.94801L-31.4082 2.93801C-31.4802 3.02201 -31.5642 3.03401 -31.6602 2.97401C-32.1642 2.66201 -32.6502 2.43401 -33.1182 2.29001C-33.5862 2.13401 -34.0842 2.05601 -34.6122 2.05601C-35.3682 2.05601 -35.9442 2.24201 -36.3402 2.61401C-36.7362 2.97401 -36.9342 3.44801 -36.9342 4.03601C-36.9342 4.55201 -36.7422 4.97801 -36.3582 5.31401C-35.9742 5.63801 -35.3082 5.86601 -34.3602 5.99801L-33.7662 6.08801C-32.5662 6.25601 -31.6662 6.61601 -31.0662 7.16801C-30.4662 7.72001 -30.1662 8.50001 -30.1662 9.50801C-30.1662 10.048 -30.2622 10.546 -30.4542 11.002C-30.6342 11.446 -30.9162 11.83 -31.3002 12.154C-31.6722 12.478 -32.1402 12.736 -32.7042 12.928C-33.2562 13.108 -33.8982 13.198 -34.6302 13.198Z" fill="#7541EE"/>
<path d="M-14.7307 0.940012C-14.7307 0.820012 -14.6707 0.760012 -14.5507 0.760012H-7.18873C-7.06873 0.760012 -7.00873 0.820012 -7.00873 0.940012V2.07401C-7.00873 2.19401 -7.06873 2.25401 -7.18873 2.25401H-13.0207C-13.0927 2.25401 -13.1287 2.29001 -13.1287 2.36201V5.96201C-13.1287 6.03401 -13.0927 6.07001 -13.0207 6.07001H-8.07073C-7.95073 6.07001 -7.89073 6.13001 -7.89073 6.25001V7.38401C-7.89073 7.50401 -7.95073 7.56401 -8.07073 7.56401H-13.0207C-13.0927 7.56401 -13.1287 7.60001 -13.1287 7.67201V11.398C-13.1287 11.47 -13.0927 11.506 -13.0207 11.506H-7.18873C-7.06873 11.506 -7.00873 11.566 -7.00873 11.686V12.82C-7.00873 12.94 -7.06873 13 -7.18873 13H-14.5507C-14.6707 13 -14.7307 12.94 -14.7307 12.82V0.940012Z" fill="#7541EE"/>
<path d="M8.3845 0.940012C8.3845 0.820012 8.4445 0.760012 8.5645 0.760012H9.8065C9.9265 0.760012 9.9865 0.820012 9.9865 0.940012V12.82C9.9865 12.94 9.9265 13 9.8065 13H8.5645C8.4445 13 8.3845 12.94 8.3845 12.82V0.940012Z" fill="#7541EE"/>
<path d="M25.5302 13C25.4102 13 25.3502 12.94 25.3502 12.82V11.686C25.3502 11.614 25.3742 11.548 25.4222 11.488L31.3982 2.27201V2.25401H25.7462C25.6262 2.25401 25.5662 2.19401 25.5662 2.07401V0.940012C25.5662 0.820012 25.6262 0.760012 25.7462 0.760012H33.0542C33.1742 0.760012 33.2342 0.820012 33.2342 0.940012V2.07401C33.2342 2.14601 33.2102 2.21201 33.1622 2.27201L27.1682 11.488V11.506H33.0542C33.1742 11.506 33.2342 11.566 33.2342 11.686V12.82C33.2342 12.94 33.1742 13 33.0542 13H25.5302Z" fill="#7541EE"/>
</svg>
