<svg width="390" height="164" viewBox="0 0 390 164" fill="none" xmlns="http://www.w3.org/2000/svg">
<g opacity="0.1">
<path fill-rule="evenodd" clip-rule="evenodd" d="M139.692 150.367C136.067 154.11 132.088 156.529 127.655 156.765C119.028 157.222 113.316 152.144 108.928 144.916C105.455 139.195 102.653 131.864 99.79 124.376C99.0682 122.488 98.3425 120.59 97.6014 118.705C93.8775 109.235 89.7371 100.014 83.6876 93.3074C77.7083 86.6783 69.8517 82.4896 58.5086 83.0917C35.739 84.3004 20.8274 103.739 11.5289 123.5C6.90866 133.318 3.74547 143.073 1.73703 150.38C0.733491 154.031 0.0198802 157.065 -0.442245 159.184C-0.673278 160.243 -0.84137 161.072 -0.951343 161.635C-1.00633 161.916 -1.04678 162.131 -1.07329 162.274C-1.08655 162.346 -1.09632 162.4 -1.10269 162.435L-1.10969 162.474L-1.11162 162.485C-1.11163 162.485 -1.11163 162.485 -1.12518 162.483L-1.11162 162.485C-1.24863 163.266 -1.99282 163.788 -2.7738 163.651C-3.55478 163.514 -4.07683 162.77 -3.93982 161.989L-2.52573 162.237C-3.93982 161.989 -3.9397 161.988 -3.93953 161.987L-3.93891 161.984L-3.93674 161.972L-3.92856 161.926C-3.9214 161.886 -3.91081 161.828 -3.89671 161.752C-3.86851 161.599 -3.82629 161.375 -3.76943 161.084C-3.6557 160.502 -3.4834 159.652 -3.24763 158.572C-2.77616 156.411 -2.05057 153.326 -1.03167 149.619C1.00477 142.21 4.21939 132.29 8.93084 122.277C18.2959 102.375 33.8633 81.5246 58.3564 80.2244C70.6446 79.5721 79.3164 84.174 85.8198 91.3842C92.2528 98.5164 96.5493 108.183 100.274 117.654C101.045 119.616 101.791 121.566 102.526 123.487C105.379 130.945 108.059 137.95 111.383 143.426C115.523 150.247 120.408 154.274 127.503 153.897C130.931 153.715 134.271 151.837 137.63 148.369C140.988 144.902 144.24 139.972 147.477 133.981C152.468 124.743 157.306 113.214 162.405 101.063C163.927 97.4363 165.473 93.7539 167.052 90.0605C173.893 74.0642 181.363 57.9003 190.287 45.5621C199.197 33.2431 209.766 24.4497 222.873 23.754C232.868 23.2234 241.428 28.7194 249.363 36.7532C255.862 43.3336 262.131 51.818 268.564 60.5261C269.981 62.4432 271.405 64.3711 272.842 66.2919C280.852 77.0024 289.281 87.5511 299.012 95.2522C308.711 102.928 319.635 107.721 332.673 107.029C376.129 104.722 400.145 78.1064 417.164 59.2445C417.427 58.9538 417.687 58.665 417.946 58.3781C418.478 57.7896 419.386 57.7432 419.974 58.2746C420.563 58.8059 420.609 59.7138 420.078 60.3023C419.787 60.6237 419.495 60.9479 419.2 61.2747C402.191 80.1282 377.474 107.526 332.825 109.896C318.907 110.635 307.314 105.485 297.23 97.5038C287.177 89.5482 278.556 78.7263 270.542 68.0116C269.077 66.0522 267.633 64.0982 266.204 62.1652C259.775 53.4645 253.66 45.1904 247.32 38.771C239.576 30.9303 231.778 26.1567 223.026 26.6213C211.221 27.2479 201.344 35.1749 192.614 47.2449C183.898 59.2957 176.535 75.1894 169.692 91.1896C168.136 94.8274 166.607 98.473 165.094 102.078C159.983 114.258 155.068 125.971 150.003 135.346C146.717 141.428 143.319 146.623 139.692 150.367Z" fill="white" fill-opacity="0.27"/>
<path fill-rule="evenodd" clip-rule="evenodd" d="M151.121 85.1545C144.867 93.1891 137.598 98.9889 128.027 99.4969C109.996 100.454 100.726 99.4424 91.5912 98.4288L91.4356 98.4115C82.4354 97.4127 73.5249 96.4239 56.1831 97.3444C47.8473 97.7869 40.0915 101.953 33.087 108.136C26.0865 114.317 19.9389 122.424 14.843 130.536C9.75241 138.639 5.74395 146.694 3.00696 152.728C1.63927 155.743 0.591005 158.25 -0.114371 159.999C-0.46702 160.874 -0.733853 161.56 -0.911944 162.025C-1.00099 162.258 -1.06783 162.435 -1.11212 162.554L-1.16158 162.687L-1.17354 162.719L-1.1763 162.727L-1.17688 162.728C-1.17691 162.728 -1.17692 162.728 -1.26037 162.698L-1.17688 162.728C-1.44877 163.473 -2.27302 163.857 -3.01786 163.585C-3.7627 163.313 -4.14611 162.489 -3.87422 161.744L-2.52557 162.236C-3.87422 161.744 -3.87402 161.743 -3.87373 161.743L-3.869 161.73L-3.85519 161.692L-3.80188 161.549C-3.75499 161.423 -3.68542 161.239 -3.59355 160.999C-3.40982 160.519 -3.13685 159.817 -2.77753 158.926C-2.05899 157.143 -0.994716 154.599 0.392019 151.542C3.16388 145.431 7.23187 137.254 12.4116 129.009C17.5861 120.772 23.9027 112.414 31.1867 105.984C38.4667 99.557 46.8155 94.9663 56.0309 94.4771C73.6073 93.5441 82.6899 94.552 91.7771 95.5604L91.9078 95.5749C100.957 96.5791 110.058 97.5754 127.874 96.6296C136.227 96.1863 142.813 91.1539 148.856 83.3908C153.845 76.9811 158.313 68.9125 163.021 60.4127C164.033 58.5851 165.056 56.7376 166.098 54.8824C177.736 34.1556 191.668 12.4702 218.068 11.0688C231.361 10.3632 242.537 16.412 252.405 25.583C262.252 34.7337 270.945 47.1299 279.285 59.3891C280.015 60.463 280.743 61.5358 281.469 62.6053C289.07 73.809 296.431 84.6594 304.262 92.8482C312.839 101.817 321.726 107.32 331.804 106.785C347.68 105.942 357.126 93.5842 365.897 80.5501C366.546 79.5849 367.192 78.6156 367.837 77.6482C371.48 72.1832 375.083 66.7784 379.021 62.5034C383.679 57.4463 388.995 53.7531 395.693 53.3976C396.485 53.3555 397.161 53.9634 397.203 54.7552C397.245 55.5469 396.637 56.2229 395.846 56.2649C390.217 56.5637 385.554 59.6497 381.133 64.4488C377.361 68.5431 373.905 73.7262 370.253 79.2011C369.602 80.1773 368.945 81.1628 368.279 82.1531C359.606 95.0428 349.434 108.724 331.956 109.652C320.627 110.253 310.974 104.021 302.187 94.8328C294.179 86.4594 286.68 75.4041 279.116 64.2529C278.382 63.1701 277.647 62.0864 276.911 61.0042C268.548 48.7116 260.025 36.5834 250.451 27.6863C240.898 18.8094 230.448 13.2871 218.22 13.9361C193.579 15.2441 180.338 35.3877 168.601 56.2883C167.583 58.1011 166.576 59.92 165.574 61.7303C160.866 70.2354 156.262 78.5504 151.121 85.1545Z" fill="white"/>
</g>
</svg>
