<svg width="30" height="30" viewBox="0 0 30 30" fill="none" xmlns="http://www.w3.org/2000/svg">
<path d="M26.25 14.3752C26.2543 16.025 25.8688 17.6525 25.125 19.1252C24.243 20.8898 22.8872 22.3741 21.2093 23.4118C19.5314 24.4494 17.5978 24.9994 15.625 25.0002C14.1252 25.0041 12.6439 24.6859 11.2806 24.0692C11.0184 23.9506 10.7214 23.9263 10.4485 24.0173L5.79771 25.5676C4.95401 25.8488 4.15134 25.0461 4.43257 24.2024L5.98282 19.5517C6.07382 19.2787 6.04956 18.9818 5.93096 18.7196C5.31427 17.3563 4.99609 15.8749 5 14.3752C5.00076 12.4024 5.55076 10.4687 6.5884 8.79084C7.62603 7.11297 9.11032 5.75712 10.875 4.87516C12.3476 4.13132 13.9752 3.74586 15.625 3.75016H16.25C18.8554 3.8939 21.3163 4.99361 23.1614 6.83873C25.0065 8.68385 26.1063 11.1447 26.25 13.7502V14.3752Z" stroke="#7541EE" stroke-width="2" stroke-linecap="round" stroke-linejoin="round"/>
</svg>
