<svg width="196" height="195" viewBox="0 0 196 195" fill="none" xmlns="http://www.w3.org/2000/svg">
<mask id="mask0_117_2080" style="mask-type:alpha" maskUnits="userSpaceOnUse" x="0" y="0" width="196" height="195">
<path d="M0.115479 123.177V133.433H10.3719V123.177V112.904H0.115479V123.177Z" fill="#263238"/>
<path d="M10.3719 61.6216H0.115479V71.8781H10.3719V61.6216Z" fill="#263238"/>
<path d="M73.7667 174.559H63.5103V184.816H73.7667V174.559Z" fill="#263238"/>
<path d="M10.3719 82.1347V92.3911H0.115479V102.648H10.3719V112.904H20.6284H30.9014V123.177H41.1579V112.904H51.4144V102.648V92.3911H41.1579V102.648H30.9014H20.6284V92.3911V82.1347V71.8782H10.3719V82.1347Z" fill="#263238"/>
<path d="M30.9015 61.6216H20.6284V71.8781H30.9015H41.158V61.6216H30.9015Z" fill="#263238"/>
<path d="M77.0642 144.088H82.5653V133.832H77.0642H71.5466V144.088H77.0642Z" fill="#263238"/>
<path d="M51.4144 71.8782H41.158V82.1347H51.4144V71.8782Z" fill="#263238"/>
<path d="M123.226 112.904H112.97V123.16H123.226V112.904Z" fill="#263238"/>
<path d="M133.483 0.065918H123.226V10.3224H133.483V0.065918Z" fill="#263238"/>
<path d="M71.927 82.1347V71.8782H82.1835V61.6217H71.927V51.3652H61.6705V61.6217H51.4141V71.8782H61.6705V82.1347V92.3911V102.648V112.904H71.927V102.648V92.3911H82.1835V82.1347H71.927Z" fill="#263238"/>
<path d="M123.226 184.716H133.483V174.459H123.226H112.97V184.716H123.226Z" fill="#263238"/>
<path d="M112.97 0.065918H102.714V10.3224H112.97V0.065918Z" fill="#263238"/>
<path d="M110.402 82.1345V71.8781H100.146V61.6216H89.889V71.8781V82.1345H79.6326V92.391H89.889H100.146V82.1345H110.402Z" fill="#263238"/>
<path d="M168.295 61.6216H158.039V71.8781H168.295V61.6216Z" fill="#263238"/>
<path d="M61.9691 112.904H51.7126V123.16H61.9691V112.904Z" fill="#263238"/>
<path d="M102.714 51.3647V41.1083H112.97V30.8352H123.227H133.483V20.5787H123.227V10.3223H112.97V20.5787H102.714V30.8352H92.4405V41.1083H82.1841V51.3647H92.4405H102.714Z" fill="#263238"/>
<path d="M102.714 123.177V112.904H112.97V102.647H102.714H92.4405V112.904H82.1841V123.177H92.4405H102.714Z" fill="#263238"/>
<path d="M133.483 164.203V153.93H123.227H112.97V143.673H102.714V153.93H92.4406V164.203H82.1842H71.9277V174.459H82.1842H92.4406H102.714V164.203H112.97V174.459H123.227V164.203H133.483Z" fill="#263238"/>
<path d="M92.44 10.3224V0.065918H82.1836H71.9271V10.3224H61.6707V20.5789H71.9271H82.1836V10.3224H92.44Z" fill="#263238"/>
<path d="M92.4405 20.5791H82.1841V30.8356H92.4405V20.5791Z" fill="#263238"/>
<path d="M118.09 61.6216H107.833V71.878V82.1345V92.391H118.09H128.346V82.1345H118.09V71.878H128.346V61.6216H138.603V51.3651H128.346V41.1086H118.09V51.3651V61.6216Z" fill="#263238"/>
<path d="M82.1842 30.835H71.9277V41.0914H82.1842V30.835Z" fill="#263238"/>
<path d="M112.97 133.433V143.69H123.226H133.483V133.433H143.739H153.996V123.177H143.739H133.483H123.226V133.433H112.97Z" fill="#263238"/>
<path d="M168.295 92.3906H158.039V102.647H168.295V92.3906Z" fill="#263238"/>
<path d="M133.483 102.647H123.226V112.904H133.483V102.647Z" fill="#263238"/>
<path d="M159.133 71.8782H148.876H138.603V82.1347H148.876V92.3911H159.133V82.1347V71.8782Z" fill="#263238"/>
<path d="M153.996 102.647H143.739V112.904H153.996V102.647Z" fill="#263238"/>
<path d="M41.1585 164.402H71.9444V123.16H30.7032V133.433H20.6455V143.69H30.7032V153.946H20.6455V164.203H30.7032V164.402H30.902V174.459H20.6455V194.972H30.902V184.683H41.1585V164.402ZM64.0408 131.047V156.697H38.3913V131.047H64.0408Z" fill="#263238"/>
<path d="M174.509 123.177H184.765V112.904H174.509H164.252H153.996V123.177H164.252H174.509Z" fill="#263238"/>
<path d="M174.508 82.1345H184.765V71.8781V61.6216H174.508V71.8781V82.1345Z" fill="#263238"/>
<path d="M92.8382 133.832H82.5652V144.088V154.344H92.8382V144.088V133.832Z" fill="#263238"/>
<path d="M195.021 123.177H184.765V133.433H195.021V123.177Z" fill="#263238"/>
<path d="M195.038 102.647V92.3906H184.765V102.647V112.904H195.038V102.647Z" fill="#263238"/>
<path d="M10.3719 174.459H0.115479V184.716V194.972H10.3719V184.716V174.459Z" fill="#263238"/>
<path d="M195.038 51.3652V0H143.673V51.3652H195.038ZM151.427 43.6604V7.7545H187.333V43.6604H151.427Z" fill="#263238"/>
<path d="M179.646 15.4592H159.133V35.9722H179.646V15.4592Z" fill="#263238"/>
<path d="M195.038 143.69H143.673V194.973H195.038V143.69ZM151.427 187.285V151.379H187.333V187.285H151.427Z" fill="#263238"/>
<path d="M179.646 159.066H159.133V179.579H179.646V159.066Z" fill="#263238"/>
<path d="M0 0.065918V51.4311H51.2492V0.065918H0ZM43.5941 7.75413V43.6601H7.68819V7.75413H43.5941Z" fill="#263238"/>
<path d="M35.8892 15.4592H15.3762V35.9722H35.8892V15.4592Z" fill="#263238"/>
</mask>
<g mask="url(#mask0_117_2080)">
<circle cx="97.0081" cy="93.6348" r="86" fill="#D7DADF"/>
</g>
</svg>
