<svg width="230" height="231" viewBox="0 0 230 231" fill="none" xmlns="http://www.w3.org/2000/svg">
<path d="M19.1073 139.542V149.799H29.3637V139.542V129.269H19.1073V139.542Z" fill="#263238"/>
<path d="M29.3637 77.9868H19.1073V88.2433H29.3637V77.9868Z" fill="#263238"/>
<path d="M92.7587 190.924H82.5022V201.181H92.7587V190.924Z" fill="#263238"/>
<path d="M29.3637 98.4999V108.756H19.1073V119.013H29.3637V129.269H39.6202H49.8933V139.542H60.1497V129.269H70.4062V119.013V108.756H60.1497V119.013H49.8933H39.6202V108.756V98.4999V88.2434H29.3637V98.4999Z" fill="#263238"/>
<path d="M49.8933 77.9868H39.6202V88.2433H49.8933H60.1498V77.9868H49.8933Z" fill="#263238"/>
<path d="M96.056 160.453H101.557V150.197H96.056H90.5385V160.453H96.056Z" fill="#263238"/>
<path d="M70.4064 88.2434H60.1499V98.4999H70.4064V88.2434Z" fill="#263238"/>
<path d="M142.218 129.269H131.962V139.526H142.218V129.269Z" fill="#263238"/>
<path d="M152.475 16.4312H142.218V26.6876H152.475V16.4312Z" fill="#263238"/>
<path d="M90.919 98.4999V88.2434H101.175V77.9869H90.919V67.7305H80.6625V77.9869H70.406V88.2434H80.6625V98.4999V108.756V119.013V129.269H90.919V119.013V108.756H101.175V98.4999H90.919Z" fill="#263238"/>
<path d="M142.218 201.081H152.475V190.825H142.218H131.962V201.081H142.218Z" fill="#263238"/>
<path d="M131.962 16.4312H121.706V26.6876H131.962V16.4312Z" fill="#263238"/>
<path d="M129.394 98.4998V88.2433H119.138V77.9868H108.881V88.2433V98.4998H98.6246V108.756H108.881H119.138V98.4998H129.394Z" fill="#263238"/>
<path d="M187.287 77.9868H177.031V88.2433H187.287V77.9868Z" fill="#263238"/>
<path d="M80.9611 129.269H70.7046V139.526H80.9611V129.269Z" fill="#263238"/>
<path d="M121.706 67.7299V57.4735H131.962V47.2004H142.218H152.475V36.944H142.218V26.6875H131.962V36.944H121.706V47.2004H111.432V57.4735H101.176V67.7299H111.432H121.706Z" fill="#263238"/>
<path d="M121.706 139.542V129.269H131.962V119.012H121.706H111.432V129.269H101.176V139.542H111.432H121.706Z" fill="#263238"/>
<path d="M152.475 180.568V170.295H142.219H131.962V160.039H121.706V170.295H111.433V180.568H101.176H90.9197V190.825H101.176H111.433H121.706V180.568H131.962V190.825H142.219V180.568H152.475Z" fill="#263238"/>
<path d="M111.432 26.6876V16.4312H101.176H90.9191V26.6876H80.6626V36.9441H90.9191H101.176V26.6876H111.432Z" fill="#263238"/>
<path d="M111.432 36.9443H101.176V47.2008H111.432V36.9443Z" fill="#263238"/>
<path d="M137.082 77.9868H126.825V88.2433V98.4998V108.756H137.082H147.338V98.4998H137.082V88.2433H147.338V77.9868H157.595V67.7303H147.338V57.4739H137.082V67.7303V77.9868Z" fill="#263238"/>
<path d="M101.176 47.2H90.9197V57.4564H101.176V47.2Z" fill="#263238"/>
<path d="M131.962 149.798V160.055H142.218H152.475V149.798H162.731H172.988V139.542H162.731H152.475H142.218V149.798H131.962Z" fill="#263238"/>
<path d="M187.287 108.756H177.031V119.012H187.287V108.756Z" fill="#263238"/>
<path d="M152.475 119.012H142.218V129.269H152.475V119.012Z" fill="#263238"/>
<path d="M178.124 88.2434H167.868H157.595V98.4999H167.868V108.756H178.124V98.4999V88.2434Z" fill="#263238"/>
<path d="M172.988 119.012H162.731V129.269H172.988V119.012Z" fill="#263238"/>
<path d="M60.1504 180.767H90.9364V139.526H49.6951V149.799H39.6375V160.055H49.6951V170.312H39.6375V180.568H49.6951V180.767H49.8939V190.825H39.6375V211.338H49.8939V201.048H60.1504V180.767ZM83.0328 147.413V173.062H57.3833V147.413H83.0328Z" fill="#263238"/>
<path d="M193.501 139.542H203.757V129.269H193.501H183.244H172.988V139.542H183.244H193.501Z" fill="#263238"/>
<path d="M193.5 98.4998H203.757V88.2433V77.9868H193.5V88.2433V98.4998Z" fill="#263238"/>
<path d="M111.83 150.197H101.557V160.453V170.71H111.83V160.453V150.197Z" fill="#263238"/>
<path d="M214.013 139.542H203.757V149.798H214.013V139.542Z" fill="#263238"/>
<path d="M214.03 119.012V108.756H203.757V119.012V129.269H214.03V119.012Z" fill="#263238"/>
<path d="M29.3637 190.825H19.1073V201.081V211.338H29.3637V201.081V190.825Z" fill="#263238"/>
<path d="M214.03 67.7304V16.3652H162.665V67.7304H214.03ZM170.419 60.0257V24.1197H206.325V60.0257H170.419Z" fill="#263238"/>
<path d="M198.637 31.8245H178.125V52.3374H198.637V31.8245Z" fill="#263238"/>
<path d="M214.03 160.056H162.665V211.338H214.03V160.056ZM170.419 203.65V167.744H206.325V203.65H170.419Z" fill="#263238"/>
<path d="M198.637 175.431H178.125V195.944H198.637V175.431Z" fill="#263238"/>
<path d="M18.9921 16.4312V67.7964H70.2413V16.4312H18.9921ZM62.5862 24.1194V60.0253H26.6803V24.1194H62.5862Z" fill="#263238"/>
<path d="M54.8811 31.8245H34.3682V52.3374H54.8811V31.8245Z" fill="#263238"/>
<path d="M4.36098 52.1881V15.7354C4.12776 12.3907 5.15646 9.08005 7.24409 6.45649C8.49396 5.0766 10.0332 3.9898 11.7517 3.27373C13.4703 2.55765 15.3259 2.22997 17.1857 2.31414H55.4943C55.7975 2.31414 56.0882 2.1937 56.3026 1.97929C56.5171 1.76488 56.6375 1.47406 56.6375 1.17084C56.6375 0.867624 56.5171 0.57683 56.3026 0.362421C56.0882 0.148013 55.7975 0.0275487 55.4943 0.0275487H17.6497C14.4448 -0.133363 11.265 0.668807 8.51992 2.33072C6.54689 3.64457 4.92608 5.42213 3.7995 7.50776C2.67291 9.59338 2.07493 11.9234 2.05786 14.2938C1.95844 20.292 2.05786 26.3067 2.05786 32.2882V52.1715C2.0917 52.4531 2.22758 52.7126 2.43978 52.9008C2.65198 53.0891 2.92579 53.193 3.20944 53.193C3.49309 53.193 3.76691 53.0891 3.97911 52.9008C4.19131 52.7126 4.32714 52.4531 4.36098 52.1715V52.1881Z" fill="#7541EE"/>
<path d="M52.1803 228.669H15.7276C12.3839 228.894 9.07606 227.867 6.4487 225.786C5.07063 224.535 3.98505 222.995 3.26912 221.277C2.55319 219.559 2.22449 217.704 2.30635 215.845V177.486C2.30635 177.183 2.18591 176.892 1.9715 176.678C1.75709 176.463 1.46627 176.343 1.16305 176.343C0.859835 176.343 0.569016 176.463 0.354607 176.678C0.140199 176.892 0.0197602 177.183 0.0197602 177.486V215.381C-0.139116 218.585 0.662906 221.764 2.32293 224.51C3.63657 226.482 5.41449 228.101 7.50047 229.225C9.58646 230.349 11.9166 230.943 14.2861 230.956C20.2842 231.055 26.2823 230.956 32.2804 230.956H52.1637C52.467 230.956 52.7578 230.835 52.9722 230.621C53.1866 230.407 53.307 230.116 53.307 229.813C53.307 229.509 53.1866 229.219 52.9722 229.004C52.7578 228.79 52.467 228.669 52.1637 228.669H52.1803Z" fill="#7541EE"/>
<path d="M227.551 177.121V213.574C227.785 216.918 226.756 220.229 224.668 222.852C223.419 224.233 221.88 225.321 220.161 226.037C218.443 226.753 216.587 227.08 214.727 226.995H176.368C176.065 226.995 175.774 227.115 175.56 227.33C175.346 227.544 175.225 227.835 175.225 228.138C175.225 228.441 175.346 228.732 175.56 228.947C175.774 229.161 176.065 229.281 176.368 229.281H214.263C217.468 229.442 220.647 228.64 223.392 226.978C225.364 225.665 226.984 223.887 228.107 221.801C229.231 219.715 229.826 217.385 229.838 215.015C229.954 209.017 229.838 203.019 229.838 197.021V177.137C229.838 176.834 229.717 176.543 229.503 176.329C229.289 176.115 228.998 175.994 228.695 175.994C228.391 175.994 228.101 176.115 227.886 176.329C227.672 176.543 227.551 176.834 227.551 177.137V177.121Z" fill="#7541EE"/>
<path d="M177.031 2.33077H213.484C216.83 2.10222 220.141 3.13687 222.763 5.23042C224.147 6.47664 225.237 8.0152 225.953 9.73468C226.67 11.4542 226.995 13.3115 226.905 15.1721V53.58C226.905 53.8832 227.025 54.174 227.24 54.3884C227.454 54.6028 227.745 54.7233 228.048 54.7233C228.351 54.7233 228.642 54.6028 228.857 54.3884C229.071 54.174 229.191 53.8832 229.191 53.58V15.636C229.353 12.4258 228.551 9.24071 226.888 6.48969C225.575 4.51768 223.797 2.89856 221.711 1.77468C219.625 0.650788 217.295 0.0565526 214.925 0.0441851C208.927 -0.0552314 202.929 0.0441851 196.931 0.0441851H177.047C176.744 0.0441851 176.453 0.164624 176.239 0.379032C176.025 0.593441 175.904 0.88426 175.904 1.18748C175.904 1.4907 176.025 1.78149 176.239 1.9959C176.453 2.21031 176.744 2.33077 177.047 2.33077H177.031Z" fill="#7541EE"/>
</svg>
