<svg width="225" height="293" viewBox="0 0 225 293" fill="none" xmlns="http://www.w3.org/2000/svg">
<path d="M185.818 185.236C143.118 160.629 74.1001 160.629 31.6696 185.236C-10.7608 209.844 -10.5147 249.872 32.1618 274.527C74.8383 299.181 143.892 299.134 186.322 274.527C228.753 249.919 228.53 209.914 185.818 185.236Z" fill="#E0E0E0"/>
<path d="M198.931 161.906C201.547 154.669 201.69 146.769 199.339 139.441C196.988 132.114 192.274 125.773 185.936 121.409C181.963 118.667 177.417 116.722 173.843 113.511C170.503 110.464 168.195 106.48 164.797 103.445C159.606 98.8989 152.305 97.317 145.439 97.9146C138.572 98.5123 131.6 102.309 125.378 105.285C121.694 102.647 117.447 100.903 112.972 100.191C108.498 99.479 103.919 99.819 99.5982 101.184C94.9111 102.731 90.6458 105.473 85.9469 107.043C81.248 108.613 76.2328 109.035 71.3113 109.75C66.3897 110.465 61.3862 111.578 57.2498 114.437C53.1134 117.296 48.1216 123.471 48.7075 128.405C39.0402 127.233 29.3026 132.576 23.596 140.474C17.8894 148.372 15.8388 158.449 16.0497 168.187C8.24561 171.843 2.91397 180.022 1.09769 188.435C0.214027 192.659 0.300116 197.028 1.34948 201.213C2.39885 205.398 4.38413 209.291 7.15584 212.598C3.64047 216.687 3.64047 223.601 5.28098 228.792C7.04348 233.984 10.6501 238.35 15.417 241.06C20.1703 243.728 25.4669 245.283 30.908 245.607C44.5359 246.779 60.2965 249.38 73.7486 246.978C124.944 237.779 181.284 210.816 198.931 161.906Z" fill="#7541EE"/>
<path opacity="0.2" d="M198.931 161.906C201.547 154.669 201.69 146.769 199.339 139.441C196.988 132.114 192.274 125.773 185.936 121.409C181.963 118.667 177.417 116.722 173.843 113.511C170.503 110.464 168.195 106.48 164.797 103.445C159.606 98.8989 152.305 97.317 145.439 97.9146C138.572 98.5123 131.6 102.309 125.378 105.285C121.694 102.647 117.447 100.903 112.972 100.191C108.498 99.479 103.919 99.819 99.5982 101.184C94.9111 102.731 90.6458 105.473 85.9469 107.043C81.248 108.613 76.2328 109.035 71.3113 109.75C66.3897 110.465 61.3862 111.578 57.2498 114.437C53.1134 117.296 48.1216 123.471 48.7075 128.405C39.0402 127.233 29.3026 132.576 23.596 140.474C17.8894 148.372 15.8388 158.449 16.0497 168.187C8.24561 171.843 2.91397 180.022 1.09769 188.435C0.214027 192.659 0.300116 197.028 1.34948 201.213C2.39885 205.398 4.38413 209.291 7.15584 212.598C3.64047 216.687 3.64047 223.601 5.28098 228.792C7.04348 233.984 10.6501 238.35 15.417 241.06C20.1703 243.728 25.4669 245.283 30.908 245.607C44.5359 246.779 60.2965 249.38 73.7486 246.978C124.944 237.779 181.284 210.816 198.931 161.906Z" fill="black"/>
<g opacity="0.2">
<path d="M52.3518 135.459C54.5555 131.967 57.8613 129.31 61.7455 127.909C65.6297 126.508 69.8703 126.444 73.7955 127.725C72.1424 125.928 70.0091 124.642 67.6481 124.019C65.287 123.396 62.7969 123.462 60.4723 124.21C55.8086 125.745 52.7619 130.561 52.3518 135.459Z" fill="black"/>
<path d="M11.3978 221.14C12.3017 219.628 12.9844 217.994 13.425 216.288C13.7179 214.554 12.968 211.965 11.3861 211.215C12.642 211.296 13.8683 211.632 14.9903 212.202C16.1123 212.772 17.1067 213.564 17.9129 214.531C16.0838 210.708 12.939 207.671 9.0542 205.977C6.95029 205.073 4.68813 204.595 2.39844 204.571C3.51867 207.503 5.12721 210.225 7.1559 212.621C3.64053 216.71 3.64054 223.624 5.28104 228.815C6.11353 231.443 7.47762 233.872 9.28856 235.951C8.44364 230.915 9.18052 225.74 11.3978 221.14Z" fill="black"/>
<path d="M108.75 116.792C109.219 112.105 117.62 105.601 125.378 105.285C124.827 104.875 124.206 104.5 123.667 104.113C114.187 101.922 107.813 106.844 108.75 116.792Z" fill="black"/>
<path d="M26.1155 168.151C26.1668 170.127 26.646 172.067 27.5199 173.84C28.3938 175.612 29.6418 177.173 31.1776 178.416C26.4904 168.304 28.9043 154.981 36.3803 146.649C33.1948 148.22 30.4778 150.6 28.5015 153.551C26.5252 156.502 25.3589 159.921 25.1194 163.464C22.0981 163.074 19.0278 163.363 16.1318 164.308C16.1318 165.597 16.0615 166.874 16.1318 168.151C20.4089 166.722 26.1155 168.151 26.1155 168.151Z" fill="black"/>
<path d="M199.341 139.443C196.966 132.127 192.257 125.792 185.936 121.409C181.963 118.667 177.417 116.722 173.843 113.511C173.014 112.741 172.232 111.924 171.499 111.062C166.988 110.336 162.406 109.199 157.848 109.117C153.275 108.928 148.714 109.711 144.466 111.414C140.204 113.165 136.698 116.364 134.564 120.448C133.064 120 131.459 120.056 129.994 120.608C128.529 121.161 127.286 122.179 126.456 123.507C119.301 124.181 112.35 126.266 106.005 129.641C99.6594 133.016 94.0451 137.614 89.4857 143.169C88.6163 139.886 88.6447 136.43 89.5677 133.162C86.3805 135.658 84.9626 140.287 84.0486 144.235C83.1346 148.184 82.3847 152.344 79.8536 155.508C70.7605 155.895 61.105 159.328 54.5664 165.609C47.9422 171.984 43.8258 180.524 42.9657 189.677C42.6962 192.806 42.7899 196.029 41.7939 199.052C40.7979 202.075 38.3489 204.817 35.2085 204.993C34.3753 204.568 33.6353 203.981 33.0316 203.267C32.428 202.553 31.973 201.725 31.6931 200.833C31.4468 200.006 31.3832 199.136 31.5066 198.282C31.63 197.428 31.9375 196.611 32.4079 195.888C30.1698 196.884 29.5019 199.72 29.5253 202.169C29.5487 204.618 29.9823 207.184 28.9394 209.399C27.9416 211.048 26.6463 212.499 25.1194 213.676C21.3727 217.229 18.8843 221.906 18.0301 226.999C17.1981 232.061 17.9012 239.502 22.9516 244.224C25.5461 244.935 28.2024 245.398 30.8846 245.607C44.5125 246.779 60.273 249.38 73.7252 246.978C124.909 237.814 181.248 210.852 198.896 161.941C201.505 154.693 201.662 146.788 199.341 139.443Z" fill="black"/>
<path d="M48.9653 142.911C50.5041 145.254 51.4788 147.921 51.8128 150.704C54.0773 150.225 56.4157 150.214 58.6846 150.672C60.9535 151.129 63.105 152.045 65.0071 153.364C64.1189 151.206 62.4432 149.468 60.32 148.501C58.2236 147.552 55.8395 147.459 53.6759 148.243C53.5001 145.782 51.262 143.79 48.9653 142.911Z" fill="black"/>
<path d="M92.4506 127.362C93.1679 124.932 93.0616 122.333 92.1481 119.97C91.2347 117.606 89.5653 115.612 87.4001 114.296C88.4519 114.178 89.5167 114.282 90.5259 114.601C91.5351 114.919 92.4662 115.446 93.2591 116.147C94.0249 116.839 94.6312 117.688 95.0359 118.637C95.4406 119.586 95.634 120.612 95.6027 121.643C95.4816 122.757 95.1407 123.837 94.5996 124.818C94.0586 125.8 93.3281 126.664 92.4506 127.362Z" fill="black"/>
</g>
<path d="M197.876 218.691C194.975 229.14 189.307 238.613 181.471 246.111C177.537 249.898 173.101 253.127 168.289 255.708C164.058 257.969 159.442 260.887 154.52 260.571C151.485 260.371 148.38 259.668 145.427 260.465C142.474 261.262 139.861 263.676 137.096 265.387C133.784 267.346 130.013 268.396 126.165 268.429C122.316 268.462 118.528 267.477 115.183 265.574C112.066 263.793 111.961 264.59 108.996 266.406C104.541 269.134 99.4203 270.581 94.1964 270.589C91.6576 270.598 89.1286 270.275 86.6735 269.628C85.408 269.3 80.8146 266.629 79.8537 266.91C68.6983 270.191 56.418 270.496 45.6024 266.359C34.7868 262.223 25.5062 253.282 22.3189 242.115C19.1317 230.948 22.7408 217.777 32.0331 210.805C36.1929 207.676 41.5949 205.473 43.5869 200.669C44.5829 198.243 44.5243 195.536 44.7587 192.923C45.5011 183.071 50.0821 173.903 57.5158 167.395C64.9495 160.886 74.6414 157.556 84.5057 158.121C89.1109 148.301 96.1182 139.372 105.258 133.514C114.398 127.655 126.913 124.807 137.764 124.76C137.906 122.132 139.056 119.66 140.974 117.858C142.879 116.085 145.102 114.685 147.525 113.734C157.61 109.544 168.901 109.293 179.163 113.031C184.297 114.93 189.015 117.803 193.06 121.491C200.255 121.374 207.837 125.838 212.488 131.322C214.808 134.086 216.497 137.321 217.438 140.804C218.379 144.287 218.549 147.933 217.937 151.489C230.007 160.242 225.917 217.425 197.876 218.691Z" fill="#7541EE"/>
<path opacity="0.1" d="M197.876 218.691C194.975 229.14 189.307 238.613 181.471 246.111C177.537 249.898 173.101 253.127 168.289 255.708C164.058 257.969 159.442 260.887 154.52 260.571C151.485 260.371 148.38 259.668 145.427 260.465C142.474 261.262 139.861 263.676 137.096 265.387C133.784 267.346 130.013 268.396 126.165 268.429C122.316 268.462 118.528 267.477 115.183 265.574C112.066 263.793 111.961 264.59 108.996 266.406C104.541 269.134 99.4203 270.581 94.1964 270.589C91.6576 270.598 89.1286 270.275 86.6735 269.628C85.408 269.3 80.8146 266.629 79.8537 266.91C68.6983 270.191 56.418 270.496 45.6024 266.359C34.7868 262.223 25.5062 253.282 22.3189 242.115C19.1317 230.948 22.7408 217.777 32.0331 210.805C36.1929 207.676 41.5949 205.473 43.5869 200.669C44.5829 198.243 44.5243 195.536 44.7587 192.923C45.5011 183.071 50.0821 173.903 57.5158 167.395C64.9495 160.886 74.6414 157.556 84.5057 158.121C89.1109 148.301 96.1182 139.372 105.258 133.514C114.398 127.655 126.913 124.807 137.764 124.76C137.906 122.132 139.056 119.66 140.974 117.858C142.879 116.085 145.102 114.685 147.525 113.734C157.61 109.544 168.901 109.293 179.163 113.031C184.297 114.93 189.015 117.803 193.06 121.491C200.255 121.374 207.837 125.838 212.488 131.322C214.808 134.086 216.497 137.321 217.438 140.804C218.379 144.287 218.549 147.933 217.937 151.489C230.007 160.242 225.917 217.425 197.876 218.691Z" fill="black"/>
<g opacity="0.2">
<path d="M176.983 153.891C175.637 152.055 174.8 149.895 174.56 147.631C174.319 145.367 174.682 143.079 175.612 141.001C176.585 138.88 178.143 137.041 178.964 134.849C179.733 132.554 179.662 130.061 178.762 127.813C177.863 125.566 176.194 123.711 174.054 122.581C175.494 122.77 176.875 123.276 178.097 124.062C179.319 124.848 180.352 125.894 181.123 127.126C181.893 128.357 182.382 129.744 182.553 131.187C182.725 132.63 182.575 134.092 182.116 135.47C181.143 138.599 178.764 141.06 177.171 143.919C175.577 146.778 174.663 151.571 176.983 153.891Z" fill="black"/>
<path d="M132.748 208.602C134.15 205.22 136.393 202.254 139.264 199.983C142.135 197.713 145.54 196.214 149.153 195.63C145.544 195.691 141.993 196.556 138.759 198.161C138.735 196.545 138.348 194.954 137.628 193.506C136.909 192.058 135.874 190.79 134.6 189.795C131.603 187.727 128.185 186.351 124.592 185.764C122.894 185.572 121.277 184.933 119.905 183.912C119.367 183.402 118.962 182.768 118.725 182.066C118.488 181.363 118.427 180.613 118.546 179.881C118.683 179.058 118.994 178.274 119.459 177.58C119.924 176.887 120.532 176.301 121.241 175.862C119.747 176.585 118.375 177.538 117.175 178.686C116.573 179.259 116.11 179.963 115.821 180.743C115.533 181.523 115.427 182.358 115.511 183.186C115.789 184.541 116.583 185.734 117.726 186.514C118.858 187.279 120.103 187.86 121.417 188.236C124.827 189.408 128.366 190.134 131.588 191.752C134.594 193.071 137.023 195.43 138.431 198.396C134.567 200.356 131.286 203.298 128.916 206.926C125.316 205.903 121.566 205.506 117.831 205.754C110.25 206.047 102.598 207.84 96.2469 212.07C93.2818 214.067 90.7437 216.634 88.7802 219.622C86.8167 222.609 85.4672 225.957 84.8103 229.471C81.2949 226.108 76.0922 226.015 71.2292 226.975C75.8872 227.086 80.3107 229.042 83.5275 232.412C86.7443 235.783 88.4912 240.293 88.3842 244.951C89.1703 242.407 89.3044 239.707 88.7741 237.099C88.2437 234.49 87.0661 232.057 85.3493 230.022C89.5511 222.651 95.9607 216.785 103.674 213.251C111.388 209.717 120.016 208.693 128.342 210.324C132.83 211.203 137.541 213.172 139.615 217.226C138.543 213.563 136.078 210.467 132.748 208.602Z" fill="black"/>
<path d="M68.7451 204.102C69.9556 197.692 73.0127 191.775 77.5405 187.079C82.0684 182.382 87.8697 179.111 94.2316 177.667C86.924 177.484 79.8425 180.208 74.5414 185.241C69.2403 190.275 66.1527 197.205 65.9563 204.513C63.9632 204.919 62.0484 205.643 60.2848 206.657C57.088 208.603 54.5098 211.417 52.8502 214.771C51.1906 218.126 50.5179 221.883 50.9105 225.605C53.329 219.377 57.8283 214.178 63.6445 210.891C69.4608 207.603 76.2355 206.43 82.8183 207.571C78.6573 204.85 73.694 203.627 68.7451 204.102Z" fill="black"/>
<path d="M209.325 160.324C207.863 157.853 205.892 155.72 203.542 154.07C201.192 152.419 198.518 151.288 195.697 150.751C194.987 148.889 194.016 147.137 192.814 145.548C194.856 150.916 195.016 156.817 193.268 162.287C191.521 167.758 187.969 172.473 183.194 175.663C186.198 174.664 188.935 172.993 191.197 170.778C193.459 168.563 195.186 165.862 196.248 162.879C197.098 160.104 197.251 157.161 196.693 154.313C201.478 154.773 205.949 156.901 209.325 160.324Z" fill="black"/>
<path d="M188.994 180.549C187.74 182.506 188.092 185.049 188.572 187.322C189.053 189.596 189.592 192.009 188.572 194.165C187.529 196.509 185.057 197.681 182.713 198.665C184.677 199.06 186.718 198.669 188.397 197.575C189.132 197.047 189.744 196.366 190.193 195.579C190.642 194.793 190.916 193.919 190.998 193.017C191.185 190.931 190.318 188.916 189.604 186.947C188.889 184.979 188.303 182.577 188.994 180.549Z" fill="black"/>
<path d="M149.61 144.364C149.294 146.11 144.536 151.84 135.607 153.364C138.892 153.639 142.19 153.016 145.148 151.56C148.106 150.105 150.613 147.873 152.399 145.103C152.399 145.103 147.431 171.022 162.148 178.51C153.032 167.964 152.399 145.103 159.242 130.795C159.242 130.795 152.399 134.943 151.989 141.997C146.599 140.743 137.471 132.248 137.728 124.807H136.428C135.092 129.647 136.439 140.029 149.61 144.364Z" fill="black"/>
<path d="M117.023 165.785C110.777 150.235 96.4698 150.938 85.5019 156.036C85.1503 156.727 84.7988 157.418 84.4707 158.121C103.922 154.126 114.094 162.059 117.023 165.785Z" fill="black"/>
<path d="M74.1588 261.719C70.0809 256.88 70.1512 249.333 73.8189 244.142C68.956 245.572 65.1008 250.4 65.3 255.462C51.6745 258.4 37.4433 256.174 25.3655 249.216C27.1424 252.355 29.3689 255.217 31.9744 257.712L32.9235 258.005C43.5851 261.126 54.8472 261.601 65.7336 259.387C67.1876 261.596 69.2121 263.369 71.5925 264.52C73.3468 265.44 75.0036 266.535 76.5375 267.789C77.553 267.547 78.5725 267.277 79.5959 266.981C77.8499 265.141 75.7524 263.653 74.1588 261.719Z" fill="black"/>
<path d="M121.944 255.11C123.963 251.647 126.814 248.743 130.241 246.662C132.362 245.279 134.623 244.107 136.65 242.584C138.82 240.745 140.462 238.364 141.408 235.682C145.172 235.841 148.926 235.185 152.413 233.759C155.9 232.332 159.038 230.168 161.611 227.416C164.183 224.664 166.131 221.388 167.32 217.813C168.509 214.238 168.912 210.449 168.5 206.704C167.517 213.911 164.038 220.545 158.668 225.452C153.337 230.292 145.474 232.717 138.291 232.975C137.26 235.955 135.366 238.56 132.849 240.459C130.332 242.358 127.307 243.465 124.159 243.638C119.226 243.826 114.421 241.939 109.488 241.998C113.718 243.685 119.132 246.369 119.636 250.903C120.105 255.11 116.367 261.168 108.996 266.441C111.961 264.625 112.066 263.828 115.183 265.609C117.224 266.769 119.441 267.588 121.745 268.035C121.476 267.605 121.241 267.154 121.042 266.687C120.329 264.811 120.04 262.799 120.196 260.798C120.352 258.796 120.949 256.854 121.944 255.11Z" fill="black"/>
<path d="M200.431 213.992C206.267 211.145 210.752 206.121 212.922 200.001C214.995 193.708 214.576 186.859 211.75 180.866C212.103 179.173 212.107 177.426 211.762 175.732C211.418 174.038 210.732 172.432 209.747 171.011C210.222 174.029 209.969 177.117 209.009 180.018C208.049 182.918 206.41 185.547 204.227 187.686C206.589 186.59 208.519 184.739 209.711 182.424C210.684 188.623 210.731 195.548 208.469 201.419C206.208 207.29 201.556 212.41 195.58 214.309C196.271 214.379 197.712 214.309 198.404 214.367C198.568 215.844 198.392 217.34 197.888 218.738C198.709 218.7 199.526 218.614 200.337 218.48C200.649 217.003 200.681 215.481 200.431 213.992Z" fill="black"/>
</g>
<path d="M124.628 0L92.4624 71.7135L118.031 64.9288L99.5752 129.389L139.768 42.2547L115.183 47.9379L124.628 0Z" fill="#7541EE"/>
<path opacity="0.5" d="M124.628 0L92.4624 71.7135L118.031 64.9288L99.5752 129.389L139.768 42.2547L115.183 47.9379L124.628 0Z" fill="white"/>
<path d="M160.918 60.0073L134.424 85.8921L146.798 87.3334L127.581 112.41L160.25 81.1464L148.486 79.3887L160.918 60.0073Z" fill="#7541EE"/>
<path opacity="0.5" d="M160.918 60.0073L134.424 85.8921L146.798 87.3334L127.581 112.41L160.25 81.1464L148.486 79.3887L160.918 60.0073Z" fill="white"/>
<path d="M74.4988 65.2568L71.9443 102.203L82.1506 95.0437L84.4825 126.541L88.0681 81.4744L78.1197 87.9895L74.4988 65.2568Z" fill="#7541EE"/>
<path opacity="0.5" d="M74.4988 65.2568L71.9443 102.203L82.1506 95.0437L84.4825 126.541L88.0681 81.4744L78.1197 87.9895L74.4988 65.2568Z" fill="white"/>
</svg>
