<svg width="69" height="69" viewBox="0 0 69 69" fill="none" xmlns="http://www.w3.org/2000/svg">
<g clip-path="url(#clip0_117_690)">
<path d="M34.5001 23.4107C37.9025 23.4107 40.6608 20.6525 40.6608 17.25C40.6608 13.8475 37.9025 11.0893 34.5001 11.0893C31.0976 11.0893 28.3394 13.8475 28.3394 17.25C28.3394 20.6525 31.0976 23.4107 34.5001 23.4107Z" fill="white" stroke="white" stroke-linecap="round" stroke-linejoin="round"/>
<path d="M40.1025 36.9582L47.5429 42.6537C48.0348 43.0577 48.662 43.2657 49.3013 43.2369C49.9406 43.2081 50.546 42.9446 50.9985 42.4981C51.4511 42.0516 51.7182 41.4544 51.7473 40.8236C51.7765 40.1929 51.5657 39.5741 51.1563 39.0888L42.6896 28.3517C42.295 27.9585 41.8255 27.6461 41.3082 27.4325C40.7908 27.2189 40.2357 27.1083 39.6749 27.1071H29.4122C28.2739 27.1132 27.1836 27.5601 26.3762 28.3517L17.9095 39.0888C17.4686 39.5716 17.2328 40.2032 17.251 40.8527C17.2691 41.5023 17.5397 42.1201 18.0068 42.5783C18.4739 43.0364 19.1017 43.2998 19.7602 43.3138C20.4187 43.3279 21.0574 43.0915 21.5442 42.6537L28.9846 36.9582L23.0408 55.437C22.8976 55.7389 22.8161 56.0657 22.8009 56.3988C22.7857 56.7318 22.8372 57.0645 22.9523 57.3779C23.0675 57.6913 23.2441 57.9793 23.472 58.2254C23.7 58.4714 23.9748 58.6708 24.2809 58.8121C24.5869 58.9534 24.9182 59.0338 25.2557 59.0488C25.5933 59.0637 25.9305 59.013 26.2481 58.8994C26.5658 58.7857 26.8577 58.6115 27.1071 58.3866C27.3565 58.1617 27.5586 57.8906 27.7018 57.5886L34.5436 46.957L41.3853 57.5886C41.519 57.9037 41.7159 58.1889 41.9642 58.427C42.2125 58.665 42.5071 58.851 42.8302 58.9738C43.1533 59.0965 43.4983 59.1535 43.8443 59.1412C44.1903 59.129 44.5302 59.0477 44.8436 58.9024C45.1569 58.7571 45.4372 58.5507 45.6676 58.2957C45.898 58.0406 46.0736 57.7422 46.184 57.4185C46.2944 57.0947 46.3372 56.7522 46.3098 56.4117C46.2825 56.0711 46.1856 55.7396 46.0249 55.437L40.1025 36.9582Z" fill="white" stroke="white" stroke-linecap="round" stroke-linejoin="round"/>
</g>
<defs>
<clipPath id="clip0_117_690">
<rect width="69" height="69" fill="white"/>
</clipPath>
</defs>
</svg>
