<svg width="22" height="80" viewBox="0 0 22 80" fill="none" xmlns="http://www.w3.org/2000/svg">
<path d="M20.8143 10.7113L13.7663 16.9596L12.312 16.6248C11.3424 12.9056 9.77624 9.89307 7.61337 7.58717C5.45052 5.28127 2.46726 4.12831 -1.3364 4.12831C-4.91631 4.12831 -7.89956 5.43003 -10.2862 8.03347C-12.5982 10.5625 -13.7542 13.6495 -13.7542 17.2943C-13.7542 20.1953 -12.9338 22.7243 -11.293 24.8814C-9.65223 27.0386 -7.52666 28.9354 -4.91631 30.5718C-2.30596 32.2083 0.453558 33.6588 3.36223 34.9233C9.25417 37.4523 13.6918 40.3161 16.675 43.5146C19.6583 46.7132 21.1499 50.5439 21.1499 55.007C21.1499 58.6518 20.2176 62.0363 18.3531 65.1604C16.5631 68.2101 14.1765 70.8508 11.1933 73.0823C8.21003 75.2394 4.92844 76.9503 1.34854 78.2148C-2.23137 79.4049 -5.81128 80 -9.39119 80C-13.2694 80 -16.9239 79.1446 -20.3547 77.4337C-23.7854 75.6485 -26.2839 72.7104 -27.8501 68.6192L-21.4734 61.2552L-19.5716 61.3668C-18.3783 65.2348 -16.5883 68.4705 -14.2017 71.0739C-11.8151 73.603 -8.64538 74.8675 -4.69256 74.8675C-1.78388 74.8675 0.863754 74.1609 3.25036 72.7476C5.71155 71.2599 7.65067 69.2887 9.06771 66.834C10.5593 64.3794 11.3052 61.59 11.3052 58.4658C11.3052 56.3831 10.6339 54.3747 9.29146 52.4407C8.02357 50.4324 6.34549 48.6471 4.25721 47.0851C2.16893 45.523 0.00606728 44.2585 -2.23138 43.2915C-6.70626 41.3575 -10.4726 39.3863 -13.5305 37.378C-16.5883 35.3696 -18.9003 33.1009 -20.4665 30.5718C-21.9582 27.9684 -22.704 24.8443 -22.704 21.1994C-22.704 16.5132 -21.5853 12.6081 -19.3478 9.48396C-17.0358 6.35983 -14.0898 4.01673 -10.5099 2.45467C-6.85542 0.818222 -3.01448 0 1.01292 0C3.77243 0 6.34549 0.260343 8.7321 0.781029C11.1187 1.22734 13.3189 2.23152 15.3326 3.79358C17.3463 5.28126 19.1735 7.58717 20.8143 10.7113Z" fill="#7541EE"/>
</svg>
