<svg width="49" height="80" viewBox="0 0 49 80" fill="none" xmlns="http://www.w3.org/2000/svg">
<path d="M48.6644 10.7113L41.6164 16.9596L40.1621 16.6248C39.1925 12.9056 37.6263 9.89307 35.4635 7.58717C33.3006 5.28127 30.3174 4.12831 26.5137 4.12831C22.9338 4.12831 19.9505 5.43003 17.5639 8.03347C15.2519 10.5625 14.0959 13.6495 14.0959 17.2943C14.0959 20.1953 14.9163 22.7243 16.5571 24.8814C18.1979 27.0386 20.3234 28.9354 22.9338 30.5718C25.5441 32.2083 28.3037 33.6588 31.2123 34.9233C37.1043 37.4523 41.5419 40.3161 44.5251 43.5146C47.5084 46.7132 49 50.5439 49 55.007C49 58.6518 48.0677 62.0363 46.2032 65.1604C44.4132 68.2101 42.0266 70.8508 39.0434 73.0823C36.0601 75.2394 32.7785 76.9503 29.1986 78.2148C25.6187 79.4049 22.0388 80 18.4589 80C14.5807 80 10.9262 79.1446 7.49543 77.4337C4.06469 75.6485 1.56621 72.7104 0 68.6192L6.37671 61.2552L8.27854 61.3668C9.47184 65.2348 11.2618 68.4705 13.6484 71.0739C16.035 73.603 19.2047 74.8675 23.1575 74.8675C26.0662 74.8675 28.7139 74.1609 31.1005 72.7476C33.5616 71.2599 35.5008 69.2887 36.9178 66.834C38.4094 64.3794 39.1553 61.59 39.1553 58.4658C39.1553 56.3831 38.484 54.3747 37.1416 52.4407C35.8737 50.4324 34.1956 48.6471 32.1073 47.0851C30.019 45.523 27.8562 44.2585 25.6187 43.2915C21.1438 41.3575 17.3775 39.3863 14.3196 37.378C11.2618 35.3696 8.94977 33.1009 7.38356 30.5718C5.89193 27.9684 5.14612 24.8443 5.14612 21.1994C5.14612 16.5132 6.26484 12.6081 8.50228 9.48396C10.8143 6.35983 13.7603 4.01673 17.3402 2.45467C20.9947 0.818222 24.8356 0 28.863 0C31.6225 0 34.1956 0.260343 36.5822 0.781029C38.9688 1.22734 41.169 2.23152 43.1827 3.79358C45.1964 5.28126 47.0236 7.58717 48.6644 10.7113Z" fill="#7541EE"/>
</svg>
