<svg width="73" height="14" viewBox="0 0 73 14" fill="none" xmlns="http://www.w3.org/2000/svg">
<path d="M4.36985 13.198C3.93785 13.198 3.51185 13.156 3.09185 13.072C2.67185 12.988 2.27585 12.88 1.90385 12.748C1.53185 12.604 1.18985 12.442 0.877846 12.262C0.565846 12.07 0.295846 11.872 0.0678461 11.668C-0.0161538 11.584 -0.0221538 11.494 0.0498461 11.398L0.841846 10.462C0.913846 10.378 0.997846 10.372 1.09385 10.444C1.48985 10.756 1.98185 11.044 2.56985 11.308C3.15785 11.572 3.80585 11.704 4.51385 11.704C5.36585 11.704 6.02585 11.512 6.49385 11.128C6.97385 10.744 7.21385 10.24 7.21385 9.61601C7.21385 9.35201 7.17185 9.11201 7.08785 8.89601C7.00385 8.68001 6.85985 8.48801 6.65585 8.32001C6.46385 8.15201 6.20585 8.00801 5.88185 7.88801C5.55785 7.76801 5.14985 7.67801 4.65785 7.61801L4.04585 7.52801C1.64585 7.20401 0.445846 6.07601 0.445846 4.14401C0.445846 3.60401 0.535846 3.11201 0.715846 2.66801C0.907846 2.22401 1.17785 1.84601 1.52585 1.53401C1.87385 1.22201 2.29385 0.982012 2.78585 0.814012C3.27785 0.646012 3.82985 0.562012 4.44185 0.562012C5.16185 0.562012 5.84585 0.670012 6.49385 0.886012C7.15385 1.09001 7.71185 1.36001 8.16785 1.69601C8.26385 1.76801 8.27585 1.85201 8.20385 1.94801L7.59185 2.93801C7.51985 3.02201 7.43585 3.03401 7.33985 2.97401C6.83585 2.66201 6.34985 2.43401 5.88185 2.29001C5.41385 2.13401 4.91585 2.05601 4.38785 2.05601C3.63185 2.05601 3.05585 2.24201 2.65985 2.61401C2.26385 2.97401 2.06585 3.44801 2.06585 4.03601C2.06585 4.55201 2.25785 4.97801 2.64185 5.31401C3.02585 5.63801 3.69185 5.86601 4.63985 5.99801L5.23385 6.08801C6.43385 6.25601 7.33385 6.61601 7.93385 7.16801C8.53385 7.72001 8.83385 8.50001 8.83385 9.50801C8.83385 10.048 8.73785 10.546 8.54585 11.002C8.36585 11.446 8.08385 11.83 7.69985 12.154C7.32785 12.478 6.85985 12.736 6.29585 12.928C5.74385 13.108 5.10185 13.198 4.36985 13.198Z" fill="#7541EE"/>
<path d="M24.2693 0.940012C24.2693 0.820012 24.3293 0.760012 24.4493 0.760012H31.8113C31.9313 0.760012 31.9913 0.820012 31.9913 0.940012V2.07401C31.9913 2.19401 31.9313 2.25401 31.8113 2.25401H25.9793C25.9073 2.25401 25.8713 2.29001 25.8713 2.36201V5.96201C25.8713 6.03401 25.9073 6.07001 25.9793 6.07001H30.9293C31.0493 6.07001 31.1093 6.13001 31.1093 6.25001V7.38401C31.1093 7.50401 31.0493 7.56401 30.9293 7.56401H25.9793C25.9073 7.56401 25.8713 7.60001 25.8713 7.67201V11.398C25.8713 11.47 25.9073 11.506 25.9793 11.506H31.8113C31.9313 11.506 31.9913 11.566 31.9913 11.686V12.82C31.9913 12.94 31.9313 13 31.8113 13H24.4493C24.3293 13 24.2693 12.94 24.2693 12.82V0.940012Z" fill="#7541EE"/>
<path d="M47.3845 0.940012C47.3845 0.820012 47.4445 0.760012 47.5645 0.760012H48.8065C48.9265 0.760012 48.9865 0.820012 48.9865 0.940012V12.82C48.9865 12.94 48.9265 13 48.8065 13H47.5645C47.4445 13 47.3845 12.94 47.3845 12.82V0.940012Z" fill="#7541EE"/>
<path d="M64.5302 13C64.4102 13 64.3502 12.94 64.3502 12.82V11.686C64.3502 11.614 64.3742 11.548 64.4222 11.488L70.3982 2.27201V2.25401H64.7462C64.6262 2.25401 64.5662 2.19401 64.5662 2.07401V0.940012C64.5662 0.820012 64.6262 0.760012 64.7462 0.760012H72.0542C72.1742 0.760012 72.2342 0.820012 72.2342 0.940012V2.07401C72.2342 2.14601 72.2102 2.21201 72.1622 2.27201L66.1682 11.488V11.506H72.0542C72.1742 11.506 72.2342 11.566 72.2342 11.686V12.82C72.2342 12.94 72.1742 13 72.0542 13H64.5302Z" fill="#7541EE"/>
</svg>
