<svg width="113" height="21" viewBox="0 0 113 21" fill="none" xmlns="http://www.w3.org/2000/svg">
<g opacity="0.7">
<path opacity="0.3" d="M112.101 10.1519C110.918 14.3059 109.427 12.3345 109.17 11.607L108.501 9.75298C107.884 8.06325 107.112 8.06325 106.752 9.77645L106.186 12.71C105.569 15.8548 104.798 15.8548 104.438 12.6865L103.872 7.59388C103.512 4.44911 102.74 4.42564 102.123 7.57042L101.454 11.0907C101.197 12.4753 100.426 12.4988 99.7054 11.1376L99.3454 10.457C98.9339 9.65911 98.1624 9.65911 97.648 10.4336L97.0822 11.2784C96.6707 11.8651 95.9506 11.8651 95.4363 11.3019L94.6647 10.4336C94.3561 10.0581 93.636 10.0346 93.1216 10.3632L92.453 10.7856C92.0415 11.0437 91.4243 11.0437 91.0128 10.7856L90.7042 10.5978C89.9841 10.1519 89.264 10.2224 89.1096 10.7856L88.4924 12.8039C87.9781 14.5875 87.2065 14.5875 86.7436 12.8039L85.8692 9.30708C85.5091 7.85204 84.7376 7.82857 84.1204 9.28361L84.0175 9.56523C83.4003 11.0203 82.6287 10.9968 82.2687 9.54177L81.7029 7.17145C81.0857 4.6838 80.3141 4.6838 79.9541 7.19492L78.9254 14.1885C78.5653 16.5354 77.7938 16.5354 77.1765 14.212L76.3021 10.8325C76.1478 10.2693 75.4277 10.1754 74.7076 10.6448L74.5019 10.7621C74.0389 11.0437 73.4217 11.0203 73.0102 10.7387L72.8045 10.5978C72.2901 10.1754 71.57 10.1989 71.21 10.6683L70.6442 11.4192C70.027 12.2641 69.2554 12.2172 68.9468 11.3488L67.9695 8.67343C67.558 7.57042 66.7865 7.57042 66.2207 8.64996L65.4492 10.1519C65.1406 10.7621 64.4205 10.8091 63.8032 10.2458L63.3917 9.84686C62.9803 9.42442 62.2601 9.42442 61.7972 9.84686L60.9228 10.6683C60.5628 10.9968 59.8941 11.0437 59.4312 10.7387L59.0711 10.504C58.4539 10.1285 57.7852 10.1754 57.5281 10.6213L57.1166 11.3488C56.6022 12.2172 55.8307 12.2172 55.4192 11.3254L54.5962 9.56523C54.2362 8.79078 53.4646 8.76731 52.8988 9.5183L52.1787 10.5274C51.8701 10.9264 51.2014 10.9733 50.6357 10.6213L50.4299 10.4805C49.8127 10.105 49.144 10.1519 48.8868 10.5978L48.0639 11.959C47.4981 12.8743 46.7265 12.8743 46.3665 11.9355L45.7492 10.4805C45.2349 9.18974 44.4119 9.18974 44.0004 10.504L43.3832 12.358C42.8688 14.0008 42.0973 13.9773 41.6344 12.358L41.1715 10.5978C40.6057 8.46222 39.8341 8.46222 39.4226 10.6213L39.1655 11.8886C38.6511 14.5875 37.8796 14.5875 37.4166 11.8886L36.9023 8.90812C36.3879 5.97456 35.6164 5.97456 35.1535 8.90812L34.5877 12.4753C34.0733 15.7609 33.3018 15.7609 32.8389 12.4753L32.1702 7.85204C31.7073 4.58992 30.9357 4.58992 30.4214 7.85204L29.8556 11.3488C29.6498 12.6396 28.8783 12.6631 28.1068 11.4192L27.4895 10.3632C27.078 9.65911 26.3065 9.65911 25.7921 10.3397L25.2264 11.1142C24.7634 11.7243 24.0433 11.7243 23.5804 11.1142L23.1689 10.5509C22.8603 10.1519 22.1402 10.105 21.6258 10.457L21.0086 10.8325C20.5971 11.0907 19.9799 11.0907 19.5684 10.8325L19.2084 10.5978C18.5397 10.1754 17.8196 10.2458 17.6139 10.7621L16.7909 12.9682C16.1736 14.6579 15.4021 14.6579 15.0421 12.9447L14.1162 8.08672C13.7047 5.99803 12.9332 5.99803 12.3674 8.06325L11.6473 10.8325C11.3387 11.9825 10.5671 12.006 9.89848 10.8795L9.38412 10.0111C9.02407 9.40096 8.30397 9.37749 7.73817 9.94073L7.17238 10.5509C6.76089 10.9499 6.09222 10.9733 5.57787 10.5978C5.06351 10.1754 4.34341 10.1989 3.98336 10.6683L3.26325 11.6305C2.7489 12.358 1.92592 12.5927 1.05151 10.5744" stroke="white" stroke-miterlimit="10" stroke-linecap="round" stroke-linejoin="round"/>
<path d="M1 10.4806L2.13159 12.5223C2.80025 13.7192 3.52036 13.6488 3.82897 12.358L4.49764 9.11938C5.11487 6.13889 5.8864 6.16235 6.24645 9.16632L6.81225 14.3528C7.42948 19.8914 8.20102 19.8679 8.56107 14.3294L9.12686 5.34096C9.48691 -0.221065 10.2584 -0.221065 10.8757 5.31749L11.5443 11.5366C11.8015 13.9774 12.5731 14.0243 13.2932 11.6305L13.6532 10.4336C14.0647 9.04898 14.8362 9.02551 15.3506 10.3867L15.9164 11.8887C16.3279 12.9213 17.048 12.9447 17.5623 11.9356L18.3339 10.3867C18.6425 9.72956 19.3626 9.65916 19.8769 10.2459L20.5456 10.9969C20.9571 11.4428 21.5743 11.4428 21.9858 10.9969L22.2944 10.6683C23.0145 9.87037 23.7346 10.0112 23.8889 10.9734L24.5062 14.5171C25.0205 17.6384 25.7921 17.6384 26.255 14.4937L27.1294 8.32145C27.4894 5.76339 28.261 5.73992 28.8782 8.27452L28.9811 8.74389C29.5983 11.3019 30.3699 11.2785 30.7299 8.69695L31.2957 4.51956C31.9129 0.130963 32.6845 0.130963 33.0445 4.54303L34.0732 16.8874C34.4333 21.0179 35.2048 21.0414 35.8221 16.9344L36.6965 10.9969C36.8508 10.0112 37.5709 9.8469 38.291 10.6683L38.4967 10.8795C38.9596 11.3724 39.5769 11.3489 39.9884 10.8091L40.1941 10.551C40.7085 9.79997 41.4286 9.8469 41.7886 10.6683L42.3544 12.006C42.9716 13.4845 43.7432 13.4376 44.0518 11.8887L45.0291 7.1715C45.4405 5.22362 46.2121 5.22362 46.7779 7.12456L47.3951 9.79997C47.7037 10.903 48.4238 10.9499 49.0411 9.94078L49.4525 9.23672C49.864 8.5092 50.5841 8.5092 51.0471 9.23672L51.9215 10.6918C52.2815 11.2785 52.9502 11.3254 53.4131 10.8091L53.7732 10.4101C54.3904 9.72956 55.059 9.8469 55.3162 10.6448L55.7277 11.9121C56.2421 13.461 57.0136 13.4376 57.4251 11.8887L58.2481 8.79082C58.6081 7.42965 59.3797 7.38272 59.9455 8.72042L60.6656 10.504C60.9742 11.2315 61.6428 11.3019 62.2086 10.6918L62.4144 10.4336C63.0316 9.7765 63.7003 9.87037 63.9574 10.6683L64.7804 13.0855C65.3462 14.7049 66.1178 14.6814 66.4778 13.0386L67.095 10.4571C67.6094 8.18064 68.4324 8.20411 68.8438 10.4806L69.4611 13.7427C69.9754 16.6058 70.747 16.6058 71.2099 13.7192L71.6728 10.5979C72.2386 6.81947 73.0102 6.84294 73.4216 10.6214L73.6788 12.8743C74.1932 17.6384 74.9647 17.6384 75.4276 12.8743L75.942 7.64087C76.4563 2.45434 77.2279 2.47781 77.6908 7.64087L78.2566 13.9304C78.771 19.7271 79.5425 19.7271 80.0054 13.9304L80.6741 5.78686C81.137 0.0370885 81.9085 0.0136199 82.4229 5.78686L82.9887 11.9356C83.1944 14.212 83.966 14.259 84.7375 12.0764L85.3547 10.1989C85.7662 8.97857 86.5378 8.9551 87.0521 10.152L87.6694 11.4428C88.1323 12.5223 88.8524 12.5223 89.3153 11.4428L89.7268 10.4571C90.0354 9.75303 90.7555 9.65915 91.2699 10.2693L91.8871 10.9499C92.2986 11.3958 92.9158 11.3958 93.3273 10.9499L93.6874 10.551C94.356 9.7765 95.0761 9.91731 95.2819 10.856L96.1048 14.7518C96.7221 17.7323 97.4936 17.7088 97.8537 14.7049L98.7795 6.13889C99.191 2.45434 99.9625 2.45434 100.528 6.11542L101.248 10.9734C101.557 13.0151 102.329 13.0621 102.997 11.0673L103.512 9.51834C103.872 8.4388 104.592 8.39186 105.158 9.401L105.723 10.4571C106.135 11.1611 106.803 11.1846 107.318 10.5275C107.832 9.7765 108.552 9.82343 108.912 10.6448L109.632 12.3346C110.147 13.6253 110.918 13.6019 111.33 12.2642L111.999 10.0581" stroke="white" stroke-miterlimit="10" stroke-linecap="round" stroke-linejoin="round"/>
</g>
</svg>
