<svg width="148" height="49" viewBox="0 0 148 49" fill="none" xmlns="http://www.w3.org/2000/svg">
<path fill-rule="evenodd" clip-rule="evenodd" d="M49.3979 46.2658C48.0887 47.4814 46.6824 48.2373 45.1605 48.2373C42.1986 48.2373 40.3353 46.3948 38.9645 43.8405C37.8796 41.8188 37.0532 39.2578 36.2093 36.6423C35.9965 35.9828 35.7825 35.3198 35.563 34.6611C34.4602 31.3514 33.2103 28.1192 31.2611 25.7131C29.3345 23.3349 26.7208 21.7581 22.8264 21.7581C15.009 21.7581 9.55061 28.1422 6.00808 34.7384C4.24784 38.0159 2.98762 41.2979 2.16721 43.7631C1.75728 44.9949 1.45783 46.0208 1.26112 46.7376C1.16278 47.0959 1.09015 47.3769 1.04227 47.5676C1.01834 47.6629 1.00059 47.7357 0.988905 47.7843C0.983064 47.8086 0.978741 47.8268 0.975919 47.8388L0.972812 47.852L0.971953 47.8557C0.97195 47.8557 0.971948 47.8557 0.967352 47.8547L0.971953 47.8557C0.910855 48.1206 0.646584 48.2858 0.381696 48.2247C0.116808 48.1636 -0.0483959 47.8994 0.0127023 47.6345L0.492324 47.7451C0.0127023 47.6345 0.0127571 47.6342 0.0128352 47.6339L0.0131086 47.6327L0.0140771 47.6286L0.0177063 47.6131C0.0208799 47.5996 0.0255644 47.5799 0.031775 47.554C0.0441962 47.5024 0.0627236 47.4265 0.0874803 47.3279C0.136992 47.1307 0.211432 46.8428 0.311788 46.4771C0.512474 45.7458 0.816946 44.7029 1.23315 43.4523C2.06499 40.9527 3.34583 37.6148 5.14081 34.2726C8.70871 27.6291 14.4173 20.7736 22.8264 20.7736C27.0453 20.7736 29.9305 22.5067 32.026 25.0934C34.0988 27.6521 35.394 31.0398 36.497 34.3499C36.7255 35.0356 36.9454 35.7168 37.162 36.3876C38.0033 38.9928 38.7935 41.4398 39.8319 43.375C41.1255 45.7855 42.7246 47.2529 45.1605 47.2529C46.3375 47.2529 47.5151 46.6706 48.7281 45.5444C49.9409 44.4184 51.1437 42.7897 52.3607 40.7975C54.2374 37.7253 56.1033 33.8662 58.0699 29.7989C58.6569 28.5849 59.2529 27.3522 59.8608 26.1165C62.4937 20.7643 65.3449 15.3662 68.6243 11.3042C71.8986 7.24862 75.6767 4.43018 80.1768 4.43018C83.6081 4.43018 86.4391 6.46735 89.0096 9.36202C91.115 11.733 93.1069 14.7516 95.1513 17.8499C95.6014 18.5319 96.054 19.2179 96.5109 19.9016C99.0588 23.714 101.753 27.4787 104.944 30.2921C108.125 33.0962 111.778 34.9355 116.254 34.9355C131.174 34.9355 139.88 26.2599 146.049 20.1116C146.145 20.0169 146.239 19.9227 146.333 19.8292C146.526 19.6374 146.837 19.638 147.029 19.8306C147.221 20.0233 147.22 20.3349 147.028 20.5267C146.922 20.6315 146.816 20.7372 146.709 20.8437C140.544 26.9893 131.584 35.92 116.254 35.92C111.476 35.92 107.601 33.9462 104.293 31.0305C100.996 28.1242 98.2413 24.2625 95.6924 20.4486C95.2263 19.7511 94.7675 19.0559 94.3136 18.3681C92.2704 15.2725 90.3274 12.3287 88.2735 10.0157C85.7648 7.1906 83.1816 5.41461 80.1768 5.41461C76.1241 5.41461 72.5983 7.949 69.3902 11.9226C66.1873 15.89 63.3777 21.1975 60.7441 26.551C60.1454 27.7682 59.5554 28.9885 58.972 30.1951C57.0009 34.2721 55.1052 38.1932 53.2008 41.3107C51.9654 43.333 50.7075 45.0499 49.3979 46.2658Z" fill="white" fill-opacity="0.27"/>
<path fill-rule="evenodd" clip-rule="evenodd" d="M54.4959 24.1474C52.2087 26.7845 49.6145 28.638 46.3285 28.638C40.1381 28.638 36.9828 28.1232 33.8738 27.6101L33.8209 27.6014C30.7577 27.0959 27.7251 26.5954 21.7712 26.5954C18.9093 26.5954 16.1783 27.8807 13.6679 29.8704C11.1588 31.8591 8.90679 34.5231 7.01476 37.2076C5.12468 39.8893 3.60596 42.5741 2.55926 44.5902C2.03622 45.5976 1.63179 46.4366 1.35849 47.0229C1.22186 47.316 1.11805 47.5459 1.04862 47.7019C1.01391 47.7799 0.987799 47.8395 0.970482 47.8793L0.95113 47.9239L0.946448 47.9348L0.945363 47.9374L0.945136 47.9379C0.945126 47.9379 0.945121 47.9379 0.917103 47.926L0.945136 47.9379C0.838518 48.1879 0.549355 48.3043 0.299293 48.1976C0.0492302 48.091 -0.0670542 47.8019 0.039564 47.5518L0.492342 47.7449C0.039564 47.5518 0.0396437 47.5516 0.0397586 47.5514L0.0416092 47.547L0.0470218 47.5344L0.0678771 47.4863C0.0862139 47.4442 0.113387 47.3822 0.1492 47.3017C0.220824 47.1408 0.327024 46.9056 0.466238 46.607C0.744637 46.0098 1.15524 45.158 1.68556 44.1366C2.7456 42.0948 4.28692 39.3692 6.2101 36.6405C8.13134 33.9145 10.4458 31.1681 13.0564 29.099C15.6656 27.0309 18.6073 25.611 21.7712 25.611C27.8056 25.611 30.8968 26.1211 33.9896 26.6315L34.0341 26.6388C37.1141 27.1471 40.2116 27.6535 46.3285 27.6535C49.196 27.6535 51.5423 26.0504 53.7522 23.5024C55.5768 21.3986 57.2533 18.7175 59.0193 15.893C59.3991 15.2857 59.7829 14.6718 60.1733 14.0556C64.5346 7.17105 69.6983 0 78.7622 0C83.326 0 87.0421 2.27398 90.2541 5.59309C93.459 8.9049 96.2098 13.3068 98.8422 17.6555C99.0728 18.0364 99.3025 18.4169 99.5314 18.7963C101.93 22.7701 104.253 26.6186 106.785 29.5645C109.559 32.791 112.501 34.8363 115.961 34.8363C121.412 34.8363 124.871 30.7772 128.11 26.4742C128.35 26.1555 128.589 25.8354 128.827 25.516C130.174 23.7112 131.505 21.9263 132.931 20.5342C134.618 18.8875 136.505 17.7197 138.805 17.7197C139.077 17.7197 139.297 17.9401 139.297 18.212C139.297 18.4838 139.077 18.7042 138.805 18.7042C136.873 18.7042 135.22 19.676 133.619 21.2386C132.253 22.5718 130.976 24.2835 129.626 26.0915C129.386 26.4139 129.143 26.7394 128.897 27.0663C125.693 31.3216 121.962 35.8207 115.961 35.8207C112.072 35.8207 108.88 33.5115 106.039 30.2062C103.45 27.194 101.083 23.2728 98.6962 19.3176C98.4644 18.9335 98.2324 18.5492 98 18.1653C95.3605 13.8048 92.6627 9.49768 89.5467 6.27768C86.4376 3.06499 82.9603 0.98443 78.7622 0.98443C70.3023 0.98443 65.4028 7.64016 61.0049 14.5824C60.6235 15.1845 60.2457 15.789 59.8696 16.3905C58.103 19.2168 56.3759 21.9798 54.4959 24.1474Z" fill="white"/>
</svg>
